G04 #@! TF.FileFunction,Copper,L1,Top,Signal*
%FSLAX46Y46*%
G04 Gerber Fmt 4.6, Leading zero omitted, Abs format (unit mm)*
G04 Created by KiCad (PCBNEW 4.0.2-stable) date Monday, July 11, 2016 'AMt' 09:48:24 AM*
%MOMM*%
G01*
G04 APERTURE LIST*
%ADD10C,0.100000*%
%ADD11R,0.899160X1.000760*%
%ADD12R,1.000760X0.899160*%
%ADD13R,0.400000X1.350000*%
%ADD14C,2.032000*%
%ADD15C,0.787400*%
%ADD16R,0.600000X1.550000*%
%ADD17R,0.690000X0.990000*%
%ADD18R,0.820000X0.300000*%
%ADD19R,0.990000X0.690000*%
%ADD20O,2.500000X0.500000*%
%ADD21O,0.500000X2.500000*%
%ADD22R,1.000000X2.000000*%
%ADD23C,1.524000*%
%ADD24C,0.635000*%
%ADD25C,0.203200*%
%ADD26C,0.508000*%
G04 APERTURE END LIST*
D10*
D11*
X93842840Y-78486000D03*
X92339160Y-78486000D03*
X82412840Y-64008000D03*
X80909160Y-64008000D03*
D12*
X95758000Y-58811160D03*
X95758000Y-60314840D03*
D11*
X98922840Y-77724000D03*
X97419160Y-77724000D03*
D12*
X83185000Y-80761840D03*
X83185000Y-79258160D03*
D11*
X89799160Y-70358000D03*
X91302840Y-70358000D03*
D12*
X79121000Y-58811160D03*
X79121000Y-60314840D03*
X80772000Y-75194160D03*
X80772000Y-76697840D03*
D13*
X87346000Y-80891000D03*
X87996000Y-80891000D03*
X88646000Y-80891000D03*
X89296000Y-80891000D03*
X89946000Y-80891000D03*
D14*
X91696000Y-83566000D03*
X85596000Y-83566000D03*
D15*
X95123000Y-73406000D03*
X95123000Y-72136000D03*
X96393000Y-73406000D03*
X96393000Y-72136000D03*
X97663000Y-73406000D03*
X97663000Y-72136000D03*
D12*
X79502000Y-65902840D03*
X79502000Y-64399160D03*
D16*
X80264000Y-73406000D03*
X81534000Y-73406000D03*
X82804000Y-73406000D03*
X84074000Y-73406000D03*
X84074000Y-68006000D03*
X82804000Y-68006000D03*
X81534000Y-68006000D03*
X80264000Y-68006000D03*
D12*
X99060000Y-63362840D03*
X99060000Y-61859160D03*
X99060000Y-60314840D03*
X99060000Y-58811160D03*
D11*
X87386160Y-77216000D03*
X88889840Y-77216000D03*
D12*
X85725000Y-77205840D03*
X85725000Y-75702160D03*
X90678000Y-74284840D03*
X90678000Y-72781160D03*
X90678000Y-77332840D03*
X90678000Y-75829160D03*
X85725000Y-74284840D03*
X85725000Y-72781160D03*
X80772000Y-60314840D03*
X80772000Y-58811160D03*
D11*
X82412840Y-62611000D03*
X80909160Y-62611000D03*
D12*
X83947000Y-75194160D03*
X83947000Y-76697840D03*
X82423000Y-76697840D03*
X82423000Y-75194160D03*
X79375000Y-76697840D03*
X79375000Y-75194160D03*
X82423000Y-60314840D03*
X82423000Y-58811160D03*
X97409000Y-63362840D03*
X97409000Y-61859160D03*
X97409000Y-58811160D03*
X97409000Y-60314840D03*
D11*
X91302840Y-68961000D03*
X89799160Y-68961000D03*
D12*
X95758000Y-61859160D03*
X95758000Y-63362840D03*
D17*
X89154000Y-72771000D03*
X88204000Y-72771000D03*
X87254000Y-72771000D03*
X87254000Y-75361000D03*
X89154000Y-75361000D03*
D18*
X81153000Y-65405000D03*
X81153000Y-65905000D03*
X81153000Y-66405000D03*
X82253000Y-66405000D03*
X82253000Y-65905000D03*
X82253000Y-65405000D03*
D19*
X88138000Y-70231000D03*
X88138000Y-68331000D03*
X85548000Y-69281000D03*
D20*
X84713000Y-51562000D03*
X84713000Y-52362000D03*
X84713000Y-53162000D03*
X84713000Y-53962000D03*
X84713000Y-54762000D03*
X84713000Y-55562000D03*
X84713000Y-56362000D03*
X84713000Y-57162000D03*
X84713000Y-57962000D03*
X84713000Y-58762000D03*
X84663000Y-59562000D03*
X84713000Y-60362000D03*
X84713000Y-61162000D03*
X84713000Y-61962000D03*
X84713000Y-62762000D03*
X84713000Y-63562000D03*
X84713000Y-64362000D03*
X84713000Y-65162000D03*
D21*
X86638000Y-65962000D03*
X87438000Y-65962000D03*
X88238000Y-65962000D03*
X89038000Y-65962000D03*
X89838000Y-65962000D03*
X90638000Y-65962000D03*
D20*
X92563000Y-65162000D03*
X92563000Y-64362000D03*
X92563000Y-63562000D03*
X92563000Y-62762000D03*
X92563000Y-61962000D03*
X92563000Y-61162000D03*
X92563000Y-60362000D03*
X92563000Y-59562000D03*
X92563000Y-58762000D03*
X92563000Y-57962000D03*
X92563000Y-57162000D03*
X92563000Y-56362000D03*
D22*
X95758000Y-56892000D03*
X98958000Y-56892000D03*
X98958000Y-52242000D03*
X95758000Y-52242000D03*
X98933000Y-79760000D03*
X95733000Y-79760000D03*
X95733000Y-84410000D03*
X98933000Y-84410000D03*
X81407000Y-79760000D03*
X78207000Y-79760000D03*
X78207000Y-84410000D03*
X81407000Y-84410000D03*
X78232000Y-56892000D03*
X81432000Y-56892000D03*
X81432000Y-52242000D03*
X78232000Y-52242000D03*
D12*
X95758000Y-64907160D03*
X95758000Y-66410840D03*
D11*
X97292160Y-67183000D03*
X98795840Y-67183000D03*
D23*
X77343000Y-76327000D03*
X77343000Y-74327000D03*
X77343000Y-72327000D03*
X77343000Y-70327000D03*
X77343000Y-68327000D03*
X77343000Y-66327000D03*
X77343000Y-64327000D03*
X77343000Y-62327000D03*
X77343000Y-60327000D03*
D24*
X94488000Y-62928500D03*
X92964000Y-71818500D03*
X86614000Y-57277000D03*
X86614000Y-61087000D03*
X79375000Y-75194160D03*
X80200500Y-82804000D03*
X80264000Y-72072500D03*
X85915500Y-71691500D03*
X88201500Y-73850500D03*
X92563000Y-65162000D03*
X91302840Y-68961000D03*
X85548000Y-69281000D03*
X84709000Y-66548000D03*
X82042000Y-61595000D03*
X82423000Y-58811160D03*
X83185000Y-79258160D03*
X92329000Y-77216000D03*
X97419160Y-77724000D03*
X99123500Y-70294500D03*
X98795840Y-67183000D03*
X98958000Y-52242000D03*
X95758000Y-60314840D03*
X102489000Y-52324000D03*
X99568000Y-82677000D03*
X74803000Y-84391500D03*
X81407000Y-53784500D03*
X93091000Y-79756000D03*
X82804000Y-73406000D03*
X87249000Y-72771000D03*
X79311500Y-74231500D03*
X81407000Y-79756000D03*
X80772000Y-75194160D03*
X79121000Y-58811160D03*
X79311500Y-67056000D03*
X94615000Y-56515000D03*
X80137000Y-56515000D03*
X105664000Y-55245000D03*
X102743000Y-55245000D03*
X96774000Y-55245000D03*
X98933000Y-79756000D03*
X71628000Y-81788000D03*
X74803000Y-56896000D03*
X91630500Y-66611500D03*
X90106500Y-59690000D03*
X95440500Y-67437000D03*
X94551500Y-61976000D03*
X92773500Y-66611500D03*
X94805500Y-68643500D03*
X98552000Y-72771000D03*
X90741500Y-59118500D03*
X94551500Y-57975500D03*
X99060000Y-60325000D03*
X79375000Y-61785500D03*
X89154000Y-67881500D03*
X84709000Y-71945500D03*
X83439000Y-71945500D03*
X83312000Y-65913000D03*
X82994500Y-61595000D03*
X74803000Y-52324000D03*
X78486000Y-65659000D03*
X78232000Y-54610000D03*
X82931000Y-69596000D03*
D25*
X79502000Y-64399160D02*
X79936340Y-64833500D01*
X79936340Y-64833500D02*
X81587340Y-64833500D01*
X81587340Y-64833500D02*
X82412840Y-64008000D01*
D26*
X77343000Y-64327000D02*
X77415160Y-64399160D01*
X77415160Y-64399160D02*
X79502000Y-64399160D01*
D25*
X95123000Y-72136000D02*
X94805500Y-71818500D01*
X94321500Y-62762000D02*
X92563000Y-62762000D01*
X94488000Y-62928500D02*
X94321500Y-62762000D01*
X94805500Y-71818500D02*
X92964000Y-71818500D01*
X92563000Y-62762000D02*
X88289000Y-62762000D01*
X88289000Y-62762000D02*
X86614000Y-61087000D01*
X95758000Y-61859160D02*
X94855160Y-62762000D01*
X94855160Y-62762000D02*
X92563000Y-62762000D01*
X99060000Y-63362840D02*
X98308160Y-62611000D01*
X96509840Y-62611000D02*
X95758000Y-61859160D01*
X98308160Y-62611000D02*
X96509840Y-62611000D01*
D26*
X84713000Y-57162000D02*
X86499000Y-57162000D01*
X86499000Y-57162000D02*
X86614000Y-57277000D01*
X86260000Y-64362000D02*
X84713000Y-64362000D01*
X86614000Y-61087000D02*
X86614000Y-64008000D01*
X86614000Y-64008000D02*
X86260000Y-64362000D01*
D25*
X84713000Y-64362000D02*
X82766840Y-64362000D01*
X82766840Y-64362000D02*
X82412840Y-64008000D01*
X82253000Y-65405000D02*
X82253000Y-64167840D01*
X82253000Y-64167840D02*
X82412840Y-64008000D01*
D26*
X78207000Y-84410000D02*
X78594500Y-84410000D01*
X78594500Y-84410000D02*
X80200500Y-82804000D01*
D25*
X80264000Y-73406000D02*
X80264000Y-72072500D01*
X85725000Y-72781160D02*
X85725000Y-71882000D01*
X85725000Y-71882000D02*
X85915500Y-71691500D01*
D26*
X88204000Y-72771000D02*
X88204000Y-73848000D01*
X88204000Y-73848000D02*
X88201500Y-73850500D01*
D25*
X91302840Y-70358000D02*
X91302840Y-68961000D01*
X84713000Y-65162000D02*
X84713000Y-66544000D01*
X82851500Y-66405000D02*
X82994500Y-66548000D01*
X82994500Y-66548000D02*
X84709000Y-66548000D01*
X82851500Y-66405000D02*
X82253000Y-66405000D01*
X84713000Y-66544000D02*
X84709000Y-66548000D01*
X80909160Y-64008000D02*
X80909160Y-62611000D01*
X80909160Y-62611000D02*
X81925160Y-61595000D01*
X81925160Y-61595000D02*
X82042000Y-61595000D01*
X79121000Y-60314840D02*
X79268320Y-60314840D01*
X79268320Y-60314840D02*
X80772000Y-58811160D01*
X80772000Y-58811160D02*
X82423000Y-58811160D01*
D26*
X84713000Y-56362000D02*
X84713000Y-55562000D01*
X84713000Y-55562000D02*
X84713000Y-54762000D01*
X84713000Y-54762000D02*
X84713000Y-53962000D01*
X84713000Y-53962000D02*
X84713000Y-53162000D01*
X84713000Y-53162000D02*
X84713000Y-52362000D01*
X84713000Y-52362000D02*
X84713000Y-51562000D01*
D25*
X90794840Y-77216000D02*
X92329000Y-77216000D01*
X92339160Y-77226160D02*
X92329000Y-77216000D01*
X92339160Y-77226160D02*
X92339160Y-78486000D01*
X90794840Y-77216000D02*
X90678000Y-77332840D01*
X88889840Y-77216000D02*
X90561160Y-77216000D01*
X90561160Y-77216000D02*
X90678000Y-77332840D01*
X89946000Y-80891000D02*
X89946000Y-78064840D01*
X89946000Y-78064840D02*
X90678000Y-77332840D01*
X97663000Y-72136000D02*
X97663000Y-71755000D01*
X97663000Y-71755000D02*
X99123500Y-70294500D01*
X97409000Y-61859160D02*
X97409000Y-60314840D01*
X99060000Y-58811160D02*
X98912680Y-58811160D01*
X98912680Y-58811160D02*
X97409000Y-60314840D01*
X97409000Y-60314840D02*
X95758000Y-60314840D01*
D26*
X92563000Y-56362000D02*
X84713000Y-56362000D01*
X84713000Y-52362000D02*
X81552000Y-52362000D01*
X81552000Y-52362000D02*
X81432000Y-52242000D01*
X98958000Y-52242000D02*
X99040000Y-52324000D01*
X99040000Y-52324000D02*
X102489000Y-52324000D01*
X95733000Y-84410000D02*
X97466000Y-82677000D01*
X97466000Y-82677000D02*
X99568000Y-82677000D01*
X78207000Y-84410000D02*
X74821500Y-84410000D01*
X74821500Y-84410000D02*
X74803000Y-84391500D01*
X81432000Y-52242000D02*
X81432000Y-53759500D01*
X81432000Y-53759500D02*
X81407000Y-53784500D01*
X93091000Y-79756000D02*
X93842840Y-79004160D01*
X93842840Y-79004160D02*
X93842840Y-78486000D01*
X83185000Y-80761840D02*
X85270340Y-80761840D01*
X85270340Y-80761840D02*
X86741000Y-82232500D01*
X86741000Y-82232500D02*
X90614500Y-82232500D01*
X90614500Y-82232500D02*
X93091000Y-79756000D01*
D25*
X88138000Y-70231000D02*
X89672160Y-70231000D01*
X89672160Y-70231000D02*
X89799160Y-70358000D01*
X87254000Y-72771000D02*
X87254000Y-71115000D01*
X87254000Y-71115000D02*
X88138000Y-70231000D01*
D26*
X87249000Y-72771000D02*
X87254000Y-72771000D01*
D25*
X81407000Y-79760000D02*
X81407000Y-78486000D01*
X83947000Y-77533500D02*
X83947000Y-76697840D01*
X83566000Y-77914500D02*
X83947000Y-77533500D01*
X81978500Y-77914500D02*
X83566000Y-77914500D01*
X81407000Y-78486000D02*
X81978500Y-77914500D01*
D26*
X79311500Y-67056000D02*
X79311500Y-74231500D01*
X81407000Y-79756000D02*
X81407000Y-79760000D01*
D25*
X81153000Y-66405000D02*
X80756000Y-66802000D01*
X79565500Y-66802000D02*
X79311500Y-67056000D01*
X80756000Y-66802000D02*
X79565500Y-66802000D01*
D26*
X78232000Y-56892000D02*
X79121000Y-57781000D01*
X79121000Y-57785000D02*
X79121000Y-57781000D01*
X79121000Y-58811160D02*
X79121000Y-57785000D01*
X78232000Y-56892000D02*
X78609000Y-56515000D01*
X78609000Y-56515000D02*
X80137000Y-56515000D01*
X94615000Y-56515000D02*
X95381000Y-56515000D01*
X95381000Y-56515000D02*
X95758000Y-56892000D01*
X95758000Y-56892000D02*
X95758000Y-56261000D01*
X95758000Y-56261000D02*
X96774000Y-55245000D01*
X102743000Y-55245000D02*
X105664000Y-55245000D01*
X98933000Y-79756000D02*
X98933000Y-79760000D01*
X98922840Y-77724000D02*
X98933000Y-77734160D01*
X98933000Y-77734160D02*
X98933000Y-79760000D01*
X81407000Y-79760000D02*
X79379000Y-81788000D01*
X79379000Y-81788000D02*
X71628000Y-81788000D01*
X83185000Y-80761840D02*
X82408840Y-80761840D01*
X82408840Y-80761840D02*
X81407000Y-79760000D01*
X78232000Y-56892000D02*
X74807000Y-56892000D01*
X74807000Y-56892000D02*
X74803000Y-56896000D01*
X95758000Y-58811160D02*
X95758000Y-56892000D01*
D25*
X80772000Y-76697840D02*
X82423000Y-76697840D01*
D26*
X85725000Y-77205840D02*
X85798660Y-77205840D01*
X85798660Y-77205840D02*
X87254000Y-75750500D01*
X87254000Y-75750500D02*
X87254000Y-75361000D01*
X87346000Y-80891000D02*
X87346000Y-79726000D01*
X85725000Y-78105000D02*
X85725000Y-77205840D01*
X87346000Y-79726000D02*
X85725000Y-78105000D01*
D25*
X92329000Y-67310000D02*
X91630500Y-66611500D01*
X92329000Y-72453500D02*
X92329000Y-67310000D01*
X93535500Y-73660000D02*
X92329000Y-72453500D01*
X94869000Y-73660000D02*
X93535500Y-73660000D01*
X89178500Y-58762000D02*
X84713000Y-58762000D01*
X90106500Y-59690000D02*
X89178500Y-58762000D01*
X95123000Y-73406000D02*
X94869000Y-73660000D01*
X92563000Y-61962000D02*
X94537500Y-61962000D01*
X95440500Y-71183500D02*
X96393000Y-72136000D01*
X95440500Y-67437000D02*
X95440500Y-71183500D01*
X94537500Y-61962000D02*
X94551500Y-61976000D01*
X97663000Y-73406000D02*
X98298000Y-72771000D01*
X98298000Y-72771000D02*
X98552000Y-72771000D01*
X94805500Y-68643500D02*
X92773500Y-66611500D01*
X89585000Y-57962000D02*
X84713000Y-57962000D01*
X90741500Y-59118500D02*
X89585000Y-57962000D01*
X99060000Y-61859160D02*
X99641660Y-61859160D01*
X95440500Y-74358500D02*
X96393000Y-73406000D01*
X95440500Y-75946000D02*
X95440500Y-74358500D01*
X96393000Y-76898500D02*
X95440500Y-75946000D01*
X97663000Y-76898500D02*
X96393000Y-76898500D01*
X99885500Y-74676000D02*
X97663000Y-76898500D01*
X99885500Y-62103000D02*
X99885500Y-74676000D01*
X99641660Y-61859160D02*
X99885500Y-62103000D01*
X92563000Y-57962000D02*
X92576500Y-57975500D01*
X92576500Y-57975500D02*
X94551500Y-57975500D01*
X99060000Y-60325000D02*
X99060000Y-61859160D01*
X77343000Y-62327000D02*
X78519500Y-61150500D01*
X79936340Y-61150500D02*
X80772000Y-60314840D01*
X78519500Y-61150500D02*
X79936340Y-61150500D01*
X84663000Y-59562000D02*
X81524840Y-59562000D01*
X81524840Y-59562000D02*
X80772000Y-60314840D01*
X92563000Y-60362000D02*
X87921000Y-60362000D01*
X87121000Y-59562000D02*
X84663000Y-59562000D01*
X87921000Y-60362000D02*
X87121000Y-59562000D01*
X79375000Y-61785500D02*
X80952340Y-61785500D01*
X80952340Y-61785500D02*
X82423000Y-60314840D01*
X84713000Y-60362000D02*
X82470160Y-60362000D01*
X82470160Y-60362000D02*
X82423000Y-60314840D01*
X92563000Y-61162000D02*
X87705000Y-61162000D01*
X86905000Y-60362000D02*
X84713000Y-60362000D01*
X87705000Y-61162000D02*
X86905000Y-60362000D01*
X89154000Y-66078000D02*
X89154000Y-67881500D01*
X89154000Y-66078000D02*
X89038000Y-65962000D01*
X92563000Y-64362000D02*
X89244500Y-64362000D01*
X89038000Y-64568500D02*
X89038000Y-65962000D01*
X89244500Y-64362000D02*
X89038000Y-64568500D01*
X81153000Y-65905000D02*
X81150840Y-65902840D01*
X81150840Y-65902840D02*
X79502000Y-65902840D01*
X79880840Y-65905000D02*
X79502000Y-66283840D01*
X81534000Y-73406000D02*
X81534000Y-72326500D01*
X86614000Y-70040500D02*
X86614000Y-65986000D01*
X84709000Y-71945500D02*
X86614000Y-70040500D01*
X81915000Y-71945500D02*
X83439000Y-71945500D01*
X81534000Y-72326500D02*
X81915000Y-71945500D01*
X86614000Y-65986000D02*
X86638000Y-65962000D01*
X79375000Y-76697840D02*
X80126840Y-75946000D01*
X81597500Y-75755500D02*
X81597500Y-73469500D01*
X81407000Y-75946000D02*
X81597500Y-75755500D01*
X80126840Y-75946000D02*
X81407000Y-75946000D01*
X81597500Y-73469500D02*
X81534000Y-73406000D01*
X81534000Y-68006000D02*
X81534000Y-69088000D01*
X84074000Y-71628000D02*
X84074000Y-73406000D01*
X81534000Y-69088000D02*
X84074000Y-71628000D01*
X80264000Y-68006000D02*
X81534000Y-68006000D01*
X82423000Y-75194160D02*
X83947000Y-75194160D01*
X84074000Y-73406000D02*
X84074000Y-75067160D01*
X84074000Y-75067160D02*
X83947000Y-75194160D01*
X89154000Y-75361000D02*
X89154000Y-75448160D01*
X89154000Y-75448160D02*
X87386160Y-77216000D01*
X85725000Y-74284840D02*
X86550500Y-73459340D01*
X87312500Y-69977000D02*
X87312500Y-66087500D01*
X86550500Y-70739000D02*
X87312500Y-69977000D01*
X86550500Y-73459340D02*
X86550500Y-70739000D01*
X87312500Y-66087500D02*
X87438000Y-65962000D01*
X85725000Y-75702160D02*
X85725000Y-74284840D01*
X89838000Y-65962000D02*
X89838000Y-67232000D01*
X91386660Y-74284840D02*
X90678000Y-74284840D01*
X91567000Y-74104500D02*
X91386660Y-74284840D01*
X91567000Y-72136000D02*
X91567000Y-74104500D01*
X90551000Y-71120000D02*
X91567000Y-72136000D01*
X90551000Y-67945000D02*
X90551000Y-71120000D01*
X89838000Y-67232000D02*
X90551000Y-67945000D01*
X90678000Y-75829160D02*
X90678000Y-74284840D01*
X90678000Y-72781160D02*
X89164160Y-72781160D01*
X89164160Y-72781160D02*
X89154000Y-72771000D01*
X82412840Y-62611000D02*
X82412840Y-62176660D01*
X82412840Y-62176660D02*
X82994500Y-61595000D01*
X83312000Y-65913000D02*
X83304000Y-65905000D01*
X82253000Y-65905000D02*
X83304000Y-65905000D01*
X83427500Y-61162000D02*
X84713000Y-61162000D01*
X82994500Y-61595000D02*
X83427500Y-61162000D01*
X92563000Y-63562000D02*
X95558840Y-63562000D01*
X95558840Y-63562000D02*
X95758000Y-63362840D01*
X95758000Y-63362840D02*
X97409000Y-63362840D01*
X95758000Y-52242000D02*
X97409000Y-53893000D01*
X97409000Y-53893000D02*
X97409000Y-58811160D01*
X92563000Y-58762000D02*
X94322000Y-58762000D01*
X96657160Y-59563000D02*
X97409000Y-58811160D01*
X95123000Y-59563000D02*
X96657160Y-59563000D01*
X94322000Y-58762000D02*
X95123000Y-59563000D01*
X88138000Y-68331000D02*
X88138000Y-68770500D01*
X88328500Y-68961000D02*
X89799160Y-68961000D01*
X88138000Y-68770500D02*
X88328500Y-68961000D01*
X88238000Y-65962000D02*
X88238000Y-68231000D01*
X88238000Y-68231000D02*
X88138000Y-68331000D01*
X98958000Y-56892000D02*
X99691000Y-56892000D01*
X99740000Y-84410000D02*
X98933000Y-84410000D01*
X100330000Y-83820000D02*
X99740000Y-84410000D01*
X100330000Y-57531000D02*
X100330000Y-83820000D01*
X99691000Y-56892000D02*
X100330000Y-57531000D01*
X81432000Y-56892000D02*
X79785000Y-55245000D01*
X74803000Y-54737000D02*
X74803000Y-52324000D01*
X75311000Y-55245000D02*
X74803000Y-54737000D01*
X77978000Y-55245000D02*
X75311000Y-55245000D01*
X79785000Y-55245000D02*
X77978000Y-55245000D01*
X95733000Y-81622500D02*
X95733000Y-79760000D01*
X82023500Y-85026500D02*
X92329000Y-85026500D01*
X92329000Y-85026500D02*
X95733000Y-81622500D01*
X81407000Y-84410000D02*
X82023500Y-85026500D01*
X78486000Y-79481000D02*
X78486000Y-68389500D01*
X78486000Y-68389500D02*
X78486000Y-65659000D01*
X78232000Y-54610000D02*
X78232000Y-52242000D01*
X78207000Y-79760000D02*
X78486000Y-79481000D01*
X90638000Y-65962000D02*
X94703160Y-65962000D01*
X94703160Y-65962000D02*
X95758000Y-64907160D01*
X95758000Y-66410840D02*
X96530160Y-67183000D01*
X96530160Y-67183000D02*
X97292160Y-67183000D01*
D26*
X82804000Y-69469000D02*
X82804000Y-68006000D01*
X82931000Y-69596000D02*
X82804000Y-69469000D01*
X82804000Y-68006000D02*
X84074000Y-68006000D01*
M02*
