G04 #@! TF.FileFunction,Copper,L2,Bot,Signal*
%FSLAX46Y46*%
G04 Gerber Fmt 4.6, Leading zero omitted, Abs format (unit mm)*
G04 Created by KiCad (PCBNEW 4.0.2-stable) date Monday, July 11, 2016 'AMt' 09:48:24 AM*
%MOMM*%
G01*
G04 APERTURE LIST*
%ADD10C,0.100000*%
%ADD11R,0.899160X1.000760*%
%ADD12C,2.032000*%
%ADD13R,1.000000X2.000000*%
%ADD14C,1.524000*%
%ADD15C,0.635000*%
%ADD16C,0.203200*%
%ADD17C,0.508000*%
G04 APERTURE END LIST*
D10*
D11*
X105526840Y-58928000D03*
X104023160Y-58928000D03*
X102499160Y-77724000D03*
X104002840Y-77724000D03*
X71765160Y-77597000D03*
X73268840Y-77597000D03*
X74792840Y-58928000D03*
X73289160Y-58928000D03*
D12*
X91696000Y-83566000D03*
X85596000Y-83566000D03*
D13*
X74803000Y-56892000D03*
X71603000Y-56892000D03*
X71603000Y-52242000D03*
X74803000Y-52242000D03*
X71628000Y-79760000D03*
X74828000Y-79760000D03*
X74828000Y-84410000D03*
X71628000Y-84410000D03*
X102489000Y-79760000D03*
X105689000Y-79760000D03*
X105689000Y-84410000D03*
X102489000Y-84410000D03*
X105664000Y-56892000D03*
X102464000Y-56892000D03*
X102464000Y-52242000D03*
X105664000Y-52242000D03*
D14*
X77343000Y-76327000D03*
X77343000Y-74327000D03*
X77343000Y-72327000D03*
X77343000Y-70327000D03*
X77343000Y-68327000D03*
X77343000Y-66327000D03*
X77343000Y-64327000D03*
X77343000Y-62327000D03*
X77343000Y-60327000D03*
D15*
X94488000Y-62928500D03*
X92964000Y-71818500D03*
X86614000Y-57277000D03*
X86614000Y-61087000D03*
X79375000Y-75194160D03*
X80200500Y-82804000D03*
X80264000Y-72072500D03*
X85915500Y-71691500D03*
X88201500Y-73850500D03*
X92563000Y-65162000D03*
X91302840Y-68961000D03*
X85548000Y-69281000D03*
X84709000Y-66548000D03*
X82042000Y-61595000D03*
X82423000Y-58811160D03*
X83185000Y-79258160D03*
X92329000Y-77216000D03*
X97419160Y-77724000D03*
X99123500Y-70294500D03*
X98795840Y-67183000D03*
X98958000Y-52242000D03*
X95758000Y-60314840D03*
X102489000Y-52324000D03*
X99568000Y-82677000D03*
X74803000Y-84391500D03*
X81407000Y-53784500D03*
X93091000Y-79756000D03*
X82804000Y-73406000D03*
X87249000Y-72771000D03*
X79311500Y-74231500D03*
X81407000Y-79756000D03*
X80772000Y-75194160D03*
X79121000Y-58811160D03*
X79311500Y-67056000D03*
X94615000Y-56515000D03*
X80137000Y-56515000D03*
X105664000Y-55245000D03*
X102743000Y-55245000D03*
X96774000Y-55245000D03*
X98933000Y-79756000D03*
X71628000Y-81788000D03*
X74803000Y-56896000D03*
X91630500Y-66611500D03*
X90106500Y-59690000D03*
X95440500Y-67437000D03*
X94551500Y-61976000D03*
X92773500Y-66611500D03*
X94805500Y-68643500D03*
X98552000Y-72771000D03*
X90741500Y-59118500D03*
X94551500Y-57975500D03*
X99060000Y-60325000D03*
X79375000Y-61785500D03*
X89154000Y-67881500D03*
X84709000Y-71945500D03*
X83439000Y-71945500D03*
X83312000Y-65913000D03*
X82994500Y-61595000D03*
X74803000Y-52324000D03*
X78486000Y-65659000D03*
X78232000Y-54610000D03*
X82931000Y-69596000D03*
D16*
X94488000Y-67373500D02*
X94488000Y-62928500D01*
X92329000Y-69532500D02*
X94488000Y-67373500D01*
X92329000Y-71183500D02*
X92329000Y-69532500D01*
X92964000Y-71818500D02*
X92329000Y-71183500D01*
D17*
X86614000Y-57277000D02*
X86614000Y-61087000D01*
X77343000Y-60327000D02*
X78613000Y-61597000D01*
X78613000Y-63057000D02*
X77343000Y-64327000D01*
X78613000Y-61597000D02*
X78613000Y-63057000D01*
D16*
X92583000Y-65151000D02*
X92574000Y-65151000D01*
X92574000Y-65151000D02*
X92563000Y-65162000D01*
D17*
X102489000Y-52324000D02*
X103505000Y-52324000D01*
X103505000Y-52324000D02*
X104023160Y-52842160D01*
X104023160Y-52842160D02*
X104023160Y-58928000D01*
X104002840Y-77724000D02*
X104002840Y-82723840D01*
X104002840Y-82723840D02*
X105689000Y-84410000D01*
X103956000Y-82677000D02*
X105689000Y-84410000D01*
X99568000Y-82677000D02*
X103956000Y-82677000D01*
X74828000Y-84410000D02*
X73268840Y-82850840D01*
X73268840Y-82850840D02*
X73268840Y-77597000D01*
X74803000Y-84391500D02*
X74821500Y-84410000D01*
X74821500Y-84410000D02*
X74828000Y-84410000D01*
X73289160Y-58928000D02*
X73289160Y-53928160D01*
X73289160Y-53928160D02*
X71603000Y-52242000D01*
X73145500Y-53784500D02*
X71603000Y-52242000D01*
X81407000Y-53784500D02*
X73145500Y-53784500D01*
X98933000Y-79756000D02*
X93091000Y-79756000D01*
X82804000Y-73406000D02*
X83439000Y-72771000D01*
X81978500Y-74231500D02*
X82804000Y-73406000D01*
X77438500Y-74231500D02*
X81978500Y-74231500D01*
X83439000Y-72771000D02*
X87249000Y-72771000D01*
X80772000Y-75194160D02*
X79809340Y-74231500D01*
X80772000Y-79121000D02*
X80772000Y-75194160D01*
X80772000Y-79121000D02*
X81407000Y-79756000D01*
X79809340Y-74231500D02*
X79311500Y-74231500D01*
X77343000Y-74327000D02*
X77438500Y-74231500D01*
X80581500Y-65786000D02*
X79311500Y-67056000D01*
X80581500Y-60271660D02*
X80581500Y-65786000D01*
X79121000Y-58811160D02*
X80581500Y-60271660D01*
X80137000Y-56515000D02*
X94615000Y-56515000D01*
X105664000Y-55245000D02*
X105664000Y-56892000D01*
X96774000Y-55245000D02*
X102743000Y-55245000D01*
X105526840Y-58928000D02*
X105526840Y-57029160D01*
X105526840Y-57029160D02*
X105664000Y-56892000D01*
X102489000Y-79760000D02*
X98937000Y-79760000D01*
X98937000Y-79760000D02*
X98933000Y-79756000D01*
X102499160Y-77724000D02*
X102499160Y-79749840D01*
X102499160Y-79749840D02*
X102489000Y-79760000D01*
X105653840Y-57029160D02*
X105791000Y-56892000D01*
X102616000Y-77734160D02*
X102626160Y-77724000D01*
X71628000Y-81788000D02*
X71628000Y-79760000D01*
X71765160Y-77597000D02*
X71765160Y-79622840D01*
X71765160Y-79622840D02*
X71628000Y-79760000D01*
X74792840Y-58928000D02*
X74792840Y-56902160D01*
X74792840Y-56902160D02*
X74803000Y-56892000D01*
X74803000Y-56896000D02*
X74803000Y-56892000D01*
D16*
X91630500Y-66611500D02*
X90106500Y-65087500D01*
X90106500Y-65087500D02*
X90106500Y-59690000D01*
X95440500Y-62865000D02*
X95440500Y-67437000D01*
X94551500Y-61976000D02*
X95440500Y-62865000D01*
X92773500Y-66611500D02*
X90741500Y-64579500D01*
X95440500Y-69278500D02*
X94805500Y-68643500D01*
X95440500Y-71183500D02*
X95440500Y-69278500D01*
X97028000Y-72771000D02*
X95440500Y-71183500D01*
X98552000Y-72771000D02*
X97028000Y-72771000D01*
X90741500Y-64579500D02*
X90741500Y-59118500D01*
X94551500Y-57975500D02*
X96710500Y-57975500D01*
X96710500Y-57975500D02*
X99060000Y-60325000D01*
X77343000Y-66327000D02*
X77343000Y-65913000D01*
X77343000Y-65913000D02*
X79375000Y-63881000D01*
X79375000Y-63881000D02*
X79375000Y-61785500D01*
X89154000Y-67881500D02*
X86708500Y-70327000D01*
X86708500Y-70327000D02*
X77343000Y-70327000D01*
X83439000Y-71945500D02*
X84709000Y-71945500D01*
X83312000Y-63510160D02*
X83312000Y-61912500D01*
X83312000Y-63510160D02*
X83312000Y-65913000D01*
X83312000Y-61912500D02*
X82994500Y-61595000D01*
X71628000Y-84410000D02*
X72517000Y-83521000D01*
X71603000Y-58903000D02*
X71603000Y-56892000D01*
X72517000Y-59817000D02*
X71603000Y-58903000D01*
X72517000Y-83521000D02*
X72517000Y-59817000D01*
X74803000Y-52324000D02*
X74803000Y-52242000D01*
X98044000Y-85026500D02*
X101872500Y-85026500D01*
X80094500Y-85026500D02*
X98044000Y-85026500D01*
X74828000Y-79760000D02*
X80094500Y-85026500D01*
X101872500Y-85026500D02*
X102489000Y-84410000D01*
X80010000Y-64135000D02*
X80010000Y-61087000D01*
X78486000Y-65659000D02*
X80010000Y-64135000D01*
X78232000Y-59309000D02*
X78232000Y-54610000D01*
X80010000Y-61087000D02*
X78232000Y-59309000D01*
X105689000Y-79760000D02*
X105689000Y-60604000D01*
X104775000Y-53131000D02*
X105664000Y-52242000D01*
X104775000Y-59690000D02*
X104775000Y-53131000D01*
X105689000Y-60604000D02*
X104775000Y-59690000D01*
D17*
X77343000Y-68327000D02*
X78612000Y-69596000D01*
X78612000Y-69596000D02*
X82931000Y-69596000D01*
D16*
G36*
X86575900Y-55956200D02*
X80413991Y-55956200D01*
X80261326Y-55892808D01*
X80013760Y-55892592D01*
X79784956Y-55987132D01*
X79609747Y-56162035D01*
X79514808Y-56390674D01*
X79514592Y-56638240D01*
X79609132Y-56867044D01*
X79784035Y-57042253D01*
X80012674Y-57137192D01*
X80260240Y-57137408D01*
X80414183Y-57073800D01*
X86024559Y-57073800D01*
X85991808Y-57152674D01*
X85991592Y-57400240D01*
X86055200Y-57554183D01*
X86055200Y-60810009D01*
X85991808Y-60962674D01*
X85991592Y-61210240D01*
X86086132Y-61439044D01*
X86261035Y-61614253D01*
X86489674Y-61709192D01*
X86737240Y-61709408D01*
X86966044Y-61614868D01*
X87141253Y-61439965D01*
X87236192Y-61211326D01*
X87236408Y-60963760D01*
X87172800Y-60809817D01*
X87172800Y-59813240D01*
X89484092Y-59813240D01*
X89578632Y-60042044D01*
X89700100Y-60163725D01*
X89700100Y-65087500D01*
X89731035Y-65243023D01*
X89773139Y-65306035D01*
X89819132Y-65374868D01*
X91008241Y-66563978D01*
X91008092Y-66734740D01*
X91102632Y-66963544D01*
X91277535Y-67138753D01*
X91506174Y-67233692D01*
X91753740Y-67233908D01*
X91982544Y-67139368D01*
X92157753Y-66964465D01*
X92201992Y-66857926D01*
X92245632Y-66963544D01*
X92420535Y-67138753D01*
X92649174Y-67233692D01*
X92896740Y-67233908D01*
X93125544Y-67139368D01*
X93300753Y-66964465D01*
X93395692Y-66735826D01*
X93395908Y-66488260D01*
X93301368Y-66259456D01*
X93126465Y-66084247D01*
X92897826Y-65989308D01*
X92725894Y-65989158D01*
X91147900Y-64411164D01*
X91147900Y-59592107D01*
X91268753Y-59471465D01*
X91363692Y-59242826D01*
X91363908Y-58995260D01*
X91269368Y-58766456D01*
X91094465Y-58591247D01*
X90865826Y-58496308D01*
X90618260Y-58496092D01*
X90389456Y-58590632D01*
X90214247Y-58765535D01*
X90119308Y-58994174D01*
X90119244Y-59067711D01*
X89983260Y-59067592D01*
X89754456Y-59162132D01*
X89579247Y-59337035D01*
X89484308Y-59565674D01*
X89484092Y-59813240D01*
X87172800Y-59813240D01*
X87172800Y-58098740D01*
X93929092Y-58098740D01*
X94023632Y-58327544D01*
X94198535Y-58502753D01*
X94427174Y-58597692D01*
X94674740Y-58597908D01*
X94903544Y-58503368D01*
X95025225Y-58381900D01*
X96542164Y-58381900D01*
X98437741Y-60277477D01*
X98437592Y-60448240D01*
X98532132Y-60677044D01*
X98707035Y-60852253D01*
X98935674Y-60947192D01*
X99183240Y-60947408D01*
X99412044Y-60852868D01*
X99587253Y-60677965D01*
X99682192Y-60449326D01*
X99682408Y-60201760D01*
X99587868Y-59972956D01*
X99412965Y-59797747D01*
X99184326Y-59702808D01*
X99012394Y-59702658D01*
X96997868Y-57688132D01*
X96866023Y-57600035D01*
X96710500Y-57569100D01*
X95025107Y-57569100D01*
X94904465Y-57448247D01*
X94675826Y-57353308D01*
X94428260Y-57353092D01*
X94199456Y-57447632D01*
X94024247Y-57622535D01*
X93929308Y-57851174D01*
X93929092Y-58098740D01*
X87172800Y-58098740D01*
X87172800Y-57553991D01*
X87236192Y-57401326D01*
X87236408Y-57153760D01*
X87203369Y-57073800D01*
X94338009Y-57073800D01*
X94490674Y-57137192D01*
X94738240Y-57137408D01*
X94967044Y-57042868D01*
X95142253Y-56867965D01*
X95237192Y-56639326D01*
X95237408Y-56391760D01*
X95142868Y-56162956D01*
X94967965Y-55987747D01*
X94739326Y-55892808D01*
X94491760Y-55892592D01*
X94337817Y-55956200D01*
X94335600Y-55956200D01*
X94335600Y-51179800D01*
X100990400Y-51179800D01*
X100990400Y-54686200D01*
X97050991Y-54686200D01*
X96898326Y-54622808D01*
X96650760Y-54622592D01*
X96421956Y-54717132D01*
X96246747Y-54892035D01*
X96151808Y-55120674D01*
X96151592Y-55368240D01*
X96246132Y-55597044D01*
X96421035Y-55772253D01*
X96649674Y-55867192D01*
X96897240Y-55867408D01*
X97051183Y-55803800D01*
X100990400Y-55803800D01*
X100990400Y-79201200D01*
X99219624Y-79201200D01*
X99057326Y-79133808D01*
X98809760Y-79133592D01*
X98655817Y-79197200D01*
X93367991Y-79197200D01*
X93215326Y-79133808D01*
X92967760Y-79133592D01*
X92738956Y-79228132D01*
X92563747Y-79403035D01*
X92468808Y-79631674D01*
X92468592Y-79879240D01*
X92563132Y-80108044D01*
X92738035Y-80283253D01*
X92966674Y-80378192D01*
X93214240Y-80378408D01*
X93368183Y-80314800D01*
X98656009Y-80314800D01*
X98808674Y-80378192D01*
X99056240Y-80378408D01*
X99200502Y-80318800D01*
X100990400Y-80318800D01*
X100990400Y-84620100D01*
X92491110Y-84620100D01*
X92507952Y-84593478D01*
X91696000Y-83781526D01*
X90884048Y-84593478D01*
X90900890Y-84620100D01*
X86391110Y-84620100D01*
X86407952Y-84593478D01*
X85596000Y-83781526D01*
X84784048Y-84593478D01*
X84800890Y-84620100D01*
X80262836Y-84620100D01*
X79032403Y-83389667D01*
X84208690Y-83389667D01*
X84246814Y-83933990D01*
X84381773Y-84259810D01*
X84568522Y-84377952D01*
X85380474Y-83566000D01*
X85811526Y-83566000D01*
X86623478Y-84377952D01*
X86810227Y-84259810D01*
X86983310Y-83742333D01*
X86958610Y-83389667D01*
X90308690Y-83389667D01*
X90346814Y-83933990D01*
X90481773Y-84259810D01*
X90668522Y-84377952D01*
X91480474Y-83566000D01*
X91911526Y-83566000D01*
X92723478Y-84377952D01*
X92910227Y-84259810D01*
X93083310Y-83742333D01*
X93045186Y-83198010D01*
X92910227Y-82872190D01*
X92723478Y-82754048D01*
X91911526Y-83566000D01*
X91480474Y-83566000D01*
X90668522Y-82754048D01*
X90481773Y-82872190D01*
X90308690Y-83389667D01*
X86958610Y-83389667D01*
X86945186Y-83198010D01*
X86810227Y-82872190D01*
X86623478Y-82754048D01*
X85811526Y-83566000D01*
X85380474Y-83566000D01*
X84568522Y-82754048D01*
X84381773Y-82872190D01*
X84208690Y-83389667D01*
X79032403Y-83389667D01*
X78181258Y-82538522D01*
X84784048Y-82538522D01*
X85596000Y-83350474D01*
X86407952Y-82538522D01*
X90884048Y-82538522D01*
X91696000Y-83350474D01*
X92507952Y-82538522D01*
X92389810Y-82351773D01*
X91872333Y-82178690D01*
X91328010Y-82216814D01*
X91002190Y-82351773D01*
X90884048Y-82538522D01*
X86407952Y-82538522D01*
X86289810Y-82351773D01*
X85772333Y-82178690D01*
X85228010Y-82216814D01*
X84902190Y-82351773D01*
X84784048Y-82538522D01*
X78181258Y-82538522D01*
X76301600Y-80658864D01*
X76301600Y-77169789D01*
X76715738Y-77169789D01*
X76802534Y-77330167D01*
X77227570Y-77460633D01*
X77670179Y-77418513D01*
X77883466Y-77330167D01*
X77970262Y-77169789D01*
X77343000Y-76542526D01*
X76715738Y-77169789D01*
X76301600Y-77169789D01*
X76301600Y-76775163D01*
X76339833Y-76867466D01*
X76500211Y-76954262D01*
X77127474Y-76327000D01*
X77558526Y-76327000D01*
X78185789Y-76954262D01*
X78346167Y-76867466D01*
X78476633Y-76442430D01*
X78434513Y-75999821D01*
X78346167Y-75786534D01*
X78185789Y-75699738D01*
X77558526Y-76327000D01*
X77127474Y-76327000D01*
X76500211Y-75699738D01*
X76339833Y-75786534D01*
X76301600Y-75911091D01*
X76301600Y-74600189D01*
X76438084Y-74930504D01*
X76737917Y-75230862D01*
X76882273Y-75290804D01*
X76802534Y-75323833D01*
X76715738Y-75484211D01*
X77343000Y-76111474D01*
X77970262Y-75484211D01*
X77883466Y-75323833D01*
X77791998Y-75295757D01*
X77946504Y-75231916D01*
X78246862Y-74932083D01*
X78305736Y-74790300D01*
X79034509Y-74790300D01*
X79187174Y-74853692D01*
X79434740Y-74853908D01*
X79581037Y-74793459D01*
X80181006Y-75393428D01*
X80213200Y-75471343D01*
X80213200Y-79121000D01*
X80255736Y-79334844D01*
X80301916Y-79403956D01*
X80376869Y-79516131D01*
X80816007Y-79955269D01*
X80879132Y-80108044D01*
X81054035Y-80283253D01*
X81282674Y-80378192D01*
X81530240Y-80378408D01*
X81759044Y-80283868D01*
X81934253Y-80108965D01*
X82029192Y-79880326D01*
X82029408Y-79632760D01*
X81934868Y-79403956D01*
X81759965Y-79228747D01*
X81606133Y-79164871D01*
X81330800Y-78889538D01*
X81330800Y-75606525D01*
X92360491Y-75606525D01*
X92587194Y-76155187D01*
X93006605Y-76575330D01*
X93554871Y-76802990D01*
X94148525Y-76803509D01*
X94697187Y-76576806D01*
X95117330Y-76157395D01*
X95344990Y-75609129D01*
X95344992Y-75606525D01*
X95535491Y-75606525D01*
X95762194Y-76155187D01*
X96181605Y-76575330D01*
X96729871Y-76802990D01*
X97323525Y-76803509D01*
X97872187Y-76576806D01*
X98292330Y-76157395D01*
X98519990Y-75609129D01*
X98520509Y-75015475D01*
X98293806Y-74466813D01*
X97874395Y-74046670D01*
X97326129Y-73819010D01*
X96732475Y-73818491D01*
X96183813Y-74045194D01*
X95763670Y-74464605D01*
X95536010Y-75012871D01*
X95535491Y-75606525D01*
X95344992Y-75606525D01*
X95345509Y-75015475D01*
X95118806Y-74466813D01*
X94699395Y-74046670D01*
X94151129Y-73819010D01*
X93557475Y-73818491D01*
X93008813Y-74045194D01*
X92588670Y-74464605D01*
X92361010Y-75012871D01*
X92360491Y-75606525D01*
X81330800Y-75606525D01*
X81330800Y-75471151D01*
X81394192Y-75318486D01*
X81394408Y-75070920D01*
X81299868Y-74842116D01*
X81248142Y-74790300D01*
X81978500Y-74790300D01*
X82192344Y-74747764D01*
X82373631Y-74626631D01*
X83003268Y-73996994D01*
X83156044Y-73933868D01*
X83331253Y-73758965D01*
X83395130Y-73605133D01*
X83670463Y-73329800D01*
X86972009Y-73329800D01*
X87124674Y-73393192D01*
X87372240Y-73393408D01*
X87601044Y-73298868D01*
X87776253Y-73123965D01*
X87871192Y-72895326D01*
X87871408Y-72647760D01*
X87776868Y-72418956D01*
X87601965Y-72243747D01*
X87373326Y-72148808D01*
X87125760Y-72148592D01*
X86971817Y-72212200D01*
X85272073Y-72212200D01*
X85331192Y-72069826D01*
X85331408Y-71822260D01*
X85236868Y-71593456D01*
X85061965Y-71418247D01*
X84833326Y-71323308D01*
X84585760Y-71323092D01*
X84356956Y-71417632D01*
X84235275Y-71539100D01*
X83912607Y-71539100D01*
X83791965Y-71418247D01*
X83563326Y-71323308D01*
X83315760Y-71323092D01*
X83086956Y-71417632D01*
X82911747Y-71592535D01*
X82816808Y-71821174D01*
X82816592Y-72068740D01*
X82911132Y-72297544D01*
X83016570Y-72403167D01*
X82604731Y-72815007D01*
X82451956Y-72878132D01*
X82276747Y-73053035D01*
X82212870Y-73206868D01*
X81747038Y-73672700D01*
X79588491Y-73672700D01*
X79435826Y-73609308D01*
X79188260Y-73609092D01*
X79034317Y-73672700D01*
X78197209Y-73672700D01*
X77948083Y-73423138D01*
X77803727Y-73363196D01*
X77883466Y-73330167D01*
X77970262Y-73169789D01*
X77343000Y-72542526D01*
X76715738Y-73169789D01*
X76802534Y-73330167D01*
X76894002Y-73358243D01*
X76739496Y-73422084D01*
X76439138Y-73721917D01*
X76301600Y-74053145D01*
X76301600Y-72775163D01*
X76339833Y-72867466D01*
X76500211Y-72954262D01*
X77127474Y-72327000D01*
X77558526Y-72327000D01*
X78185789Y-72954262D01*
X78346167Y-72867466D01*
X78476633Y-72442430D01*
X78434513Y-71999821D01*
X78346167Y-71786534D01*
X78185789Y-71699738D01*
X77558526Y-72327000D01*
X77127474Y-72327000D01*
X76500211Y-71699738D01*
X76339833Y-71786534D01*
X76301600Y-71911091D01*
X76301600Y-70600189D01*
X76438084Y-70930504D01*
X76737917Y-71230862D01*
X76882273Y-71290804D01*
X76802534Y-71323833D01*
X76715738Y-71484211D01*
X77343000Y-72111474D01*
X77970262Y-71484211D01*
X77883466Y-71323833D01*
X77791998Y-71295757D01*
X77946504Y-71231916D01*
X78246862Y-70932083D01*
X78329363Y-70733400D01*
X86708500Y-70733400D01*
X86864023Y-70702465D01*
X86995868Y-70614368D01*
X88077736Y-69532500D01*
X91922600Y-69532500D01*
X91922600Y-71183500D01*
X91953535Y-71339023D01*
X92038069Y-71465535D01*
X92041632Y-71470868D01*
X92341741Y-71770977D01*
X92341592Y-71941740D01*
X92436132Y-72170544D01*
X92611035Y-72345753D01*
X92839674Y-72440692D01*
X93087240Y-72440908D01*
X93131288Y-72422708D01*
X93053039Y-72611152D01*
X93052761Y-72929452D01*
X93174313Y-73223628D01*
X93399188Y-73448896D01*
X93693152Y-73570961D01*
X94011452Y-73571239D01*
X94305628Y-73449687D01*
X94530896Y-73224812D01*
X94652961Y-72930848D01*
X94653239Y-72612548D01*
X94531687Y-72318372D01*
X94306812Y-72093104D01*
X94012848Y-71971039D01*
X93694548Y-71970761D01*
X93549749Y-72030591D01*
X93586192Y-71942826D01*
X93586384Y-71723018D01*
X94148525Y-71723509D01*
X94697187Y-71496806D01*
X95034100Y-71160480D01*
X95034100Y-71183500D01*
X95065035Y-71339023D01*
X95149569Y-71465535D01*
X95153132Y-71470868D01*
X96740632Y-73058368D01*
X96872477Y-73146465D01*
X97028000Y-73177400D01*
X98078393Y-73177400D01*
X98199035Y-73298253D01*
X98263348Y-73324958D01*
X98255104Y-73333188D01*
X98133039Y-73627152D01*
X98132761Y-73945452D01*
X98254313Y-74239628D01*
X98479188Y-74464896D01*
X98773152Y-74586961D01*
X99091452Y-74587239D01*
X99385628Y-74465687D01*
X99610896Y-74240812D01*
X99732961Y-73946848D01*
X99733239Y-73628548D01*
X99611687Y-73334372D01*
X99386812Y-73109104D01*
X99129747Y-73002361D01*
X99174192Y-72895326D01*
X99174408Y-72647760D01*
X99129656Y-72539453D01*
X99385628Y-72433687D01*
X99610896Y-72208812D01*
X99732961Y-71914848D01*
X99733239Y-71596548D01*
X99611687Y-71302372D01*
X99386812Y-71077104D01*
X99092848Y-70955039D01*
X98774548Y-70954761D01*
X98480372Y-71076313D01*
X98255104Y-71301188D01*
X98133039Y-71595152D01*
X98132761Y-71913452D01*
X98254313Y-72207628D01*
X98263532Y-72216863D01*
X98199956Y-72243132D01*
X98078275Y-72364600D01*
X97196336Y-72364600D01*
X96430357Y-71598621D01*
X96729871Y-71722990D01*
X97323525Y-71723509D01*
X97872187Y-71496806D01*
X98292330Y-71077395D01*
X98519990Y-70529129D01*
X98520509Y-69935475D01*
X98293806Y-69386813D01*
X97874395Y-68966670D01*
X97326129Y-68739010D01*
X96732475Y-68738491D01*
X96183813Y-68965194D01*
X95846900Y-69301520D01*
X95846900Y-69278500D01*
X95815965Y-69122977D01*
X95727868Y-68991132D01*
X95427759Y-68691023D01*
X95427908Y-68520260D01*
X95333368Y-68291456D01*
X95158465Y-68116247D01*
X94929826Y-68021308D01*
X94682260Y-68021092D01*
X94453456Y-68115632D01*
X94278247Y-68290535D01*
X94183308Y-68519174D01*
X94183105Y-68752287D01*
X94151129Y-68739010D01*
X93697622Y-68738614D01*
X94775368Y-67660868D01*
X94827459Y-67582909D01*
X94912632Y-67789044D01*
X95087535Y-67964253D01*
X95316174Y-68059192D01*
X95563740Y-68059408D01*
X95792544Y-67964868D01*
X95967753Y-67789965D01*
X96062692Y-67561326D01*
X96062908Y-67313760D01*
X95968368Y-67084956D01*
X95846900Y-66963275D01*
X95846900Y-62865000D01*
X95815965Y-62709477D01*
X95727868Y-62577632D01*
X95173759Y-62023523D01*
X95173908Y-61852760D01*
X95079368Y-61623956D01*
X94904465Y-61448747D01*
X94675826Y-61353808D01*
X94428260Y-61353592D01*
X94199456Y-61448132D01*
X94024247Y-61623035D01*
X93929308Y-61851674D01*
X93929092Y-62099240D01*
X94023632Y-62328044D01*
X94115990Y-62420563D01*
X93960747Y-62575535D01*
X93865808Y-62804174D01*
X93865592Y-63051740D01*
X93960132Y-63280544D01*
X94081600Y-63402225D01*
X94081600Y-67205164D01*
X92041632Y-69245132D01*
X91953535Y-69376977D01*
X91922600Y-69532500D01*
X88077736Y-69532500D01*
X89106477Y-68503759D01*
X89277240Y-68503908D01*
X89506044Y-68409368D01*
X89681253Y-68234465D01*
X89776192Y-68005826D01*
X89776408Y-67758260D01*
X89681868Y-67529456D01*
X89506965Y-67354247D01*
X89278326Y-67259308D01*
X89030760Y-67259092D01*
X88801956Y-67353632D01*
X88626747Y-67528535D01*
X88531808Y-67757174D01*
X88531658Y-67929106D01*
X86540164Y-69920600D01*
X83470031Y-69920600D01*
X83553192Y-69720326D01*
X83553408Y-69472760D01*
X83458868Y-69243956D01*
X83283965Y-69068747D01*
X83055326Y-68973808D01*
X82807760Y-68973592D01*
X82653817Y-69037200D01*
X78843462Y-69037200D01*
X78391065Y-68584803D01*
X78409615Y-68540131D01*
X78409985Y-68115731D01*
X78247916Y-67723496D01*
X77948083Y-67423138D01*
X77716471Y-67326964D01*
X77946504Y-67231916D01*
X78246862Y-66932083D01*
X78409615Y-66540131D01*
X78409841Y-66281234D01*
X78609240Y-66281408D01*
X78838044Y-66186868D01*
X79013253Y-66011965D01*
X79108192Y-65783326D01*
X79108342Y-65611394D01*
X80022700Y-64697037D01*
X80022700Y-65554538D01*
X79112232Y-66465006D01*
X78959456Y-66528132D01*
X78784247Y-66703035D01*
X78689308Y-66931674D01*
X78689092Y-67179240D01*
X78783632Y-67408044D01*
X78958535Y-67583253D01*
X79187174Y-67678192D01*
X79434740Y-67678408D01*
X79663544Y-67583868D01*
X79838753Y-67408965D01*
X79902630Y-67255132D01*
X80976631Y-66181131D01*
X81041778Y-66083632D01*
X81097764Y-65999844D01*
X81140300Y-65786000D01*
X81140300Y-61718240D01*
X82372092Y-61718240D01*
X82466632Y-61947044D01*
X82641535Y-62122253D01*
X82870174Y-62217192D01*
X82905600Y-62217223D01*
X82905600Y-65439393D01*
X82784747Y-65560035D01*
X82689808Y-65788674D01*
X82689592Y-66036240D01*
X82784132Y-66265044D01*
X82959035Y-66440253D01*
X83187674Y-66535192D01*
X83435240Y-66535408D01*
X83664044Y-66440868D01*
X83839253Y-66265965D01*
X83934192Y-66037326D01*
X83934408Y-65789760D01*
X83839868Y-65560956D01*
X83718400Y-65439275D01*
X83718400Y-61912500D01*
X83687465Y-61756977D01*
X83616751Y-61651148D01*
X83616908Y-61471760D01*
X83522368Y-61242956D01*
X83347465Y-61067747D01*
X83118826Y-60972808D01*
X82871260Y-60972592D01*
X82642456Y-61067132D01*
X82467247Y-61242035D01*
X82372308Y-61470674D01*
X82372092Y-61718240D01*
X81140300Y-61718240D01*
X81140300Y-60271660D01*
X81097764Y-60057816D01*
X80976631Y-59876529D01*
X79711994Y-58611892D01*
X79648868Y-58459116D01*
X79473965Y-58283907D01*
X79245326Y-58188968D01*
X78997760Y-58188752D01*
X78768956Y-58283292D01*
X78638400Y-58413620D01*
X78638400Y-55083607D01*
X78759253Y-54962965D01*
X78854192Y-54734326D01*
X78854408Y-54486760D01*
X78759868Y-54257956D01*
X78584965Y-54082747D01*
X78356326Y-53987808D01*
X78108760Y-53987592D01*
X77879956Y-54082132D01*
X77704747Y-54257035D01*
X77609808Y-54485674D01*
X77609592Y-54733240D01*
X77704132Y-54962044D01*
X77825600Y-55083725D01*
X77825600Y-59309000D01*
X77839320Y-59377976D01*
X77556131Y-59260385D01*
X77131731Y-59260015D01*
X76739496Y-59422084D01*
X76439138Y-59721917D01*
X76301600Y-60053145D01*
X76301600Y-51179800D01*
X86575900Y-51179800D01*
X86575900Y-55956200D01*
X86575900Y-55956200D01*
G37*
X86575900Y-55956200D02*
X80413991Y-55956200D01*
X80261326Y-55892808D01*
X80013760Y-55892592D01*
X79784956Y-55987132D01*
X79609747Y-56162035D01*
X79514808Y-56390674D01*
X79514592Y-56638240D01*
X79609132Y-56867044D01*
X79784035Y-57042253D01*
X80012674Y-57137192D01*
X80260240Y-57137408D01*
X80414183Y-57073800D01*
X86024559Y-57073800D01*
X85991808Y-57152674D01*
X85991592Y-57400240D01*
X86055200Y-57554183D01*
X86055200Y-60810009D01*
X85991808Y-60962674D01*
X85991592Y-61210240D01*
X86086132Y-61439044D01*
X86261035Y-61614253D01*
X86489674Y-61709192D01*
X86737240Y-61709408D01*
X86966044Y-61614868D01*
X87141253Y-61439965D01*
X87236192Y-61211326D01*
X87236408Y-60963760D01*
X87172800Y-60809817D01*
X87172800Y-59813240D01*
X89484092Y-59813240D01*
X89578632Y-60042044D01*
X89700100Y-60163725D01*
X89700100Y-65087500D01*
X89731035Y-65243023D01*
X89773139Y-65306035D01*
X89819132Y-65374868D01*
X91008241Y-66563978D01*
X91008092Y-66734740D01*
X91102632Y-66963544D01*
X91277535Y-67138753D01*
X91506174Y-67233692D01*
X91753740Y-67233908D01*
X91982544Y-67139368D01*
X92157753Y-66964465D01*
X92201992Y-66857926D01*
X92245632Y-66963544D01*
X92420535Y-67138753D01*
X92649174Y-67233692D01*
X92896740Y-67233908D01*
X93125544Y-67139368D01*
X93300753Y-66964465D01*
X93395692Y-66735826D01*
X93395908Y-66488260D01*
X93301368Y-66259456D01*
X93126465Y-66084247D01*
X92897826Y-65989308D01*
X92725894Y-65989158D01*
X91147900Y-64411164D01*
X91147900Y-59592107D01*
X91268753Y-59471465D01*
X91363692Y-59242826D01*
X91363908Y-58995260D01*
X91269368Y-58766456D01*
X91094465Y-58591247D01*
X90865826Y-58496308D01*
X90618260Y-58496092D01*
X90389456Y-58590632D01*
X90214247Y-58765535D01*
X90119308Y-58994174D01*
X90119244Y-59067711D01*
X89983260Y-59067592D01*
X89754456Y-59162132D01*
X89579247Y-59337035D01*
X89484308Y-59565674D01*
X89484092Y-59813240D01*
X87172800Y-59813240D01*
X87172800Y-58098740D01*
X93929092Y-58098740D01*
X94023632Y-58327544D01*
X94198535Y-58502753D01*
X94427174Y-58597692D01*
X94674740Y-58597908D01*
X94903544Y-58503368D01*
X95025225Y-58381900D01*
X96542164Y-58381900D01*
X98437741Y-60277477D01*
X98437592Y-60448240D01*
X98532132Y-60677044D01*
X98707035Y-60852253D01*
X98935674Y-60947192D01*
X99183240Y-60947408D01*
X99412044Y-60852868D01*
X99587253Y-60677965D01*
X99682192Y-60449326D01*
X99682408Y-60201760D01*
X99587868Y-59972956D01*
X99412965Y-59797747D01*
X99184326Y-59702808D01*
X99012394Y-59702658D01*
X96997868Y-57688132D01*
X96866023Y-57600035D01*
X96710500Y-57569100D01*
X95025107Y-57569100D01*
X94904465Y-57448247D01*
X94675826Y-57353308D01*
X94428260Y-57353092D01*
X94199456Y-57447632D01*
X94024247Y-57622535D01*
X93929308Y-57851174D01*
X93929092Y-58098740D01*
X87172800Y-58098740D01*
X87172800Y-57553991D01*
X87236192Y-57401326D01*
X87236408Y-57153760D01*
X87203369Y-57073800D01*
X94338009Y-57073800D01*
X94490674Y-57137192D01*
X94738240Y-57137408D01*
X94967044Y-57042868D01*
X95142253Y-56867965D01*
X95237192Y-56639326D01*
X95237408Y-56391760D01*
X95142868Y-56162956D01*
X94967965Y-55987747D01*
X94739326Y-55892808D01*
X94491760Y-55892592D01*
X94337817Y-55956200D01*
X94335600Y-55956200D01*
X94335600Y-51179800D01*
X100990400Y-51179800D01*
X100990400Y-54686200D01*
X97050991Y-54686200D01*
X96898326Y-54622808D01*
X96650760Y-54622592D01*
X96421956Y-54717132D01*
X96246747Y-54892035D01*
X96151808Y-55120674D01*
X96151592Y-55368240D01*
X96246132Y-55597044D01*
X96421035Y-55772253D01*
X96649674Y-55867192D01*
X96897240Y-55867408D01*
X97051183Y-55803800D01*
X100990400Y-55803800D01*
X100990400Y-79201200D01*
X99219624Y-79201200D01*
X99057326Y-79133808D01*
X98809760Y-79133592D01*
X98655817Y-79197200D01*
X93367991Y-79197200D01*
X93215326Y-79133808D01*
X92967760Y-79133592D01*
X92738956Y-79228132D01*
X92563747Y-79403035D01*
X92468808Y-79631674D01*
X92468592Y-79879240D01*
X92563132Y-80108044D01*
X92738035Y-80283253D01*
X92966674Y-80378192D01*
X93214240Y-80378408D01*
X93368183Y-80314800D01*
X98656009Y-80314800D01*
X98808674Y-80378192D01*
X99056240Y-80378408D01*
X99200502Y-80318800D01*
X100990400Y-80318800D01*
X100990400Y-84620100D01*
X92491110Y-84620100D01*
X92507952Y-84593478D01*
X91696000Y-83781526D01*
X90884048Y-84593478D01*
X90900890Y-84620100D01*
X86391110Y-84620100D01*
X86407952Y-84593478D01*
X85596000Y-83781526D01*
X84784048Y-84593478D01*
X84800890Y-84620100D01*
X80262836Y-84620100D01*
X79032403Y-83389667D01*
X84208690Y-83389667D01*
X84246814Y-83933990D01*
X84381773Y-84259810D01*
X84568522Y-84377952D01*
X85380474Y-83566000D01*
X85811526Y-83566000D01*
X86623478Y-84377952D01*
X86810227Y-84259810D01*
X86983310Y-83742333D01*
X86958610Y-83389667D01*
X90308690Y-83389667D01*
X90346814Y-83933990D01*
X90481773Y-84259810D01*
X90668522Y-84377952D01*
X91480474Y-83566000D01*
X91911526Y-83566000D01*
X92723478Y-84377952D01*
X92910227Y-84259810D01*
X93083310Y-83742333D01*
X93045186Y-83198010D01*
X92910227Y-82872190D01*
X92723478Y-82754048D01*
X91911526Y-83566000D01*
X91480474Y-83566000D01*
X90668522Y-82754048D01*
X90481773Y-82872190D01*
X90308690Y-83389667D01*
X86958610Y-83389667D01*
X86945186Y-83198010D01*
X86810227Y-82872190D01*
X86623478Y-82754048D01*
X85811526Y-83566000D01*
X85380474Y-83566000D01*
X84568522Y-82754048D01*
X84381773Y-82872190D01*
X84208690Y-83389667D01*
X79032403Y-83389667D01*
X78181258Y-82538522D01*
X84784048Y-82538522D01*
X85596000Y-83350474D01*
X86407952Y-82538522D01*
X90884048Y-82538522D01*
X91696000Y-83350474D01*
X92507952Y-82538522D01*
X92389810Y-82351773D01*
X91872333Y-82178690D01*
X91328010Y-82216814D01*
X91002190Y-82351773D01*
X90884048Y-82538522D01*
X86407952Y-82538522D01*
X86289810Y-82351773D01*
X85772333Y-82178690D01*
X85228010Y-82216814D01*
X84902190Y-82351773D01*
X84784048Y-82538522D01*
X78181258Y-82538522D01*
X76301600Y-80658864D01*
X76301600Y-77169789D01*
X76715738Y-77169789D01*
X76802534Y-77330167D01*
X77227570Y-77460633D01*
X77670179Y-77418513D01*
X77883466Y-77330167D01*
X77970262Y-77169789D01*
X77343000Y-76542526D01*
X76715738Y-77169789D01*
X76301600Y-77169789D01*
X76301600Y-76775163D01*
X76339833Y-76867466D01*
X76500211Y-76954262D01*
X77127474Y-76327000D01*
X77558526Y-76327000D01*
X78185789Y-76954262D01*
X78346167Y-76867466D01*
X78476633Y-76442430D01*
X78434513Y-75999821D01*
X78346167Y-75786534D01*
X78185789Y-75699738D01*
X77558526Y-76327000D01*
X77127474Y-76327000D01*
X76500211Y-75699738D01*
X76339833Y-75786534D01*
X76301600Y-75911091D01*
X76301600Y-74600189D01*
X76438084Y-74930504D01*
X76737917Y-75230862D01*
X76882273Y-75290804D01*
X76802534Y-75323833D01*
X76715738Y-75484211D01*
X77343000Y-76111474D01*
X77970262Y-75484211D01*
X77883466Y-75323833D01*
X77791998Y-75295757D01*
X77946504Y-75231916D01*
X78246862Y-74932083D01*
X78305736Y-74790300D01*
X79034509Y-74790300D01*
X79187174Y-74853692D01*
X79434740Y-74853908D01*
X79581037Y-74793459D01*
X80181006Y-75393428D01*
X80213200Y-75471343D01*
X80213200Y-79121000D01*
X80255736Y-79334844D01*
X80301916Y-79403956D01*
X80376869Y-79516131D01*
X80816007Y-79955269D01*
X80879132Y-80108044D01*
X81054035Y-80283253D01*
X81282674Y-80378192D01*
X81530240Y-80378408D01*
X81759044Y-80283868D01*
X81934253Y-80108965D01*
X82029192Y-79880326D01*
X82029408Y-79632760D01*
X81934868Y-79403956D01*
X81759965Y-79228747D01*
X81606133Y-79164871D01*
X81330800Y-78889538D01*
X81330800Y-75606525D01*
X92360491Y-75606525D01*
X92587194Y-76155187D01*
X93006605Y-76575330D01*
X93554871Y-76802990D01*
X94148525Y-76803509D01*
X94697187Y-76576806D01*
X95117330Y-76157395D01*
X95344990Y-75609129D01*
X95344992Y-75606525D01*
X95535491Y-75606525D01*
X95762194Y-76155187D01*
X96181605Y-76575330D01*
X96729871Y-76802990D01*
X97323525Y-76803509D01*
X97872187Y-76576806D01*
X98292330Y-76157395D01*
X98519990Y-75609129D01*
X98520509Y-75015475D01*
X98293806Y-74466813D01*
X97874395Y-74046670D01*
X97326129Y-73819010D01*
X96732475Y-73818491D01*
X96183813Y-74045194D01*
X95763670Y-74464605D01*
X95536010Y-75012871D01*
X95535491Y-75606525D01*
X95344992Y-75606525D01*
X95345509Y-75015475D01*
X95118806Y-74466813D01*
X94699395Y-74046670D01*
X94151129Y-73819010D01*
X93557475Y-73818491D01*
X93008813Y-74045194D01*
X92588670Y-74464605D01*
X92361010Y-75012871D01*
X92360491Y-75606525D01*
X81330800Y-75606525D01*
X81330800Y-75471151D01*
X81394192Y-75318486D01*
X81394408Y-75070920D01*
X81299868Y-74842116D01*
X81248142Y-74790300D01*
X81978500Y-74790300D01*
X82192344Y-74747764D01*
X82373631Y-74626631D01*
X83003268Y-73996994D01*
X83156044Y-73933868D01*
X83331253Y-73758965D01*
X83395130Y-73605133D01*
X83670463Y-73329800D01*
X86972009Y-73329800D01*
X87124674Y-73393192D01*
X87372240Y-73393408D01*
X87601044Y-73298868D01*
X87776253Y-73123965D01*
X87871192Y-72895326D01*
X87871408Y-72647760D01*
X87776868Y-72418956D01*
X87601965Y-72243747D01*
X87373326Y-72148808D01*
X87125760Y-72148592D01*
X86971817Y-72212200D01*
X85272073Y-72212200D01*
X85331192Y-72069826D01*
X85331408Y-71822260D01*
X85236868Y-71593456D01*
X85061965Y-71418247D01*
X84833326Y-71323308D01*
X84585760Y-71323092D01*
X84356956Y-71417632D01*
X84235275Y-71539100D01*
X83912607Y-71539100D01*
X83791965Y-71418247D01*
X83563326Y-71323308D01*
X83315760Y-71323092D01*
X83086956Y-71417632D01*
X82911747Y-71592535D01*
X82816808Y-71821174D01*
X82816592Y-72068740D01*
X82911132Y-72297544D01*
X83016570Y-72403167D01*
X82604731Y-72815007D01*
X82451956Y-72878132D01*
X82276747Y-73053035D01*
X82212870Y-73206868D01*
X81747038Y-73672700D01*
X79588491Y-73672700D01*
X79435826Y-73609308D01*
X79188260Y-73609092D01*
X79034317Y-73672700D01*
X78197209Y-73672700D01*
X77948083Y-73423138D01*
X77803727Y-73363196D01*
X77883466Y-73330167D01*
X77970262Y-73169789D01*
X77343000Y-72542526D01*
X76715738Y-73169789D01*
X76802534Y-73330167D01*
X76894002Y-73358243D01*
X76739496Y-73422084D01*
X76439138Y-73721917D01*
X76301600Y-74053145D01*
X76301600Y-72775163D01*
X76339833Y-72867466D01*
X76500211Y-72954262D01*
X77127474Y-72327000D01*
X77558526Y-72327000D01*
X78185789Y-72954262D01*
X78346167Y-72867466D01*
X78476633Y-72442430D01*
X78434513Y-71999821D01*
X78346167Y-71786534D01*
X78185789Y-71699738D01*
X77558526Y-72327000D01*
X77127474Y-72327000D01*
X76500211Y-71699738D01*
X76339833Y-71786534D01*
X76301600Y-71911091D01*
X76301600Y-70600189D01*
X76438084Y-70930504D01*
X76737917Y-71230862D01*
X76882273Y-71290804D01*
X76802534Y-71323833D01*
X76715738Y-71484211D01*
X77343000Y-72111474D01*
X77970262Y-71484211D01*
X77883466Y-71323833D01*
X77791998Y-71295757D01*
X77946504Y-71231916D01*
X78246862Y-70932083D01*
X78329363Y-70733400D01*
X86708500Y-70733400D01*
X86864023Y-70702465D01*
X86995868Y-70614368D01*
X88077736Y-69532500D01*
X91922600Y-69532500D01*
X91922600Y-71183500D01*
X91953535Y-71339023D01*
X92038069Y-71465535D01*
X92041632Y-71470868D01*
X92341741Y-71770977D01*
X92341592Y-71941740D01*
X92436132Y-72170544D01*
X92611035Y-72345753D01*
X92839674Y-72440692D01*
X93087240Y-72440908D01*
X93131288Y-72422708D01*
X93053039Y-72611152D01*
X93052761Y-72929452D01*
X93174313Y-73223628D01*
X93399188Y-73448896D01*
X93693152Y-73570961D01*
X94011452Y-73571239D01*
X94305628Y-73449687D01*
X94530896Y-73224812D01*
X94652961Y-72930848D01*
X94653239Y-72612548D01*
X94531687Y-72318372D01*
X94306812Y-72093104D01*
X94012848Y-71971039D01*
X93694548Y-71970761D01*
X93549749Y-72030591D01*
X93586192Y-71942826D01*
X93586384Y-71723018D01*
X94148525Y-71723509D01*
X94697187Y-71496806D01*
X95034100Y-71160480D01*
X95034100Y-71183500D01*
X95065035Y-71339023D01*
X95149569Y-71465535D01*
X95153132Y-71470868D01*
X96740632Y-73058368D01*
X96872477Y-73146465D01*
X97028000Y-73177400D01*
X98078393Y-73177400D01*
X98199035Y-73298253D01*
X98263348Y-73324958D01*
X98255104Y-73333188D01*
X98133039Y-73627152D01*
X98132761Y-73945452D01*
X98254313Y-74239628D01*
X98479188Y-74464896D01*
X98773152Y-74586961D01*
X99091452Y-74587239D01*
X99385628Y-74465687D01*
X99610896Y-74240812D01*
X99732961Y-73946848D01*
X99733239Y-73628548D01*
X99611687Y-73334372D01*
X99386812Y-73109104D01*
X99129747Y-73002361D01*
X99174192Y-72895326D01*
X99174408Y-72647760D01*
X99129656Y-72539453D01*
X99385628Y-72433687D01*
X99610896Y-72208812D01*
X99732961Y-71914848D01*
X99733239Y-71596548D01*
X99611687Y-71302372D01*
X99386812Y-71077104D01*
X99092848Y-70955039D01*
X98774548Y-70954761D01*
X98480372Y-71076313D01*
X98255104Y-71301188D01*
X98133039Y-71595152D01*
X98132761Y-71913452D01*
X98254313Y-72207628D01*
X98263532Y-72216863D01*
X98199956Y-72243132D01*
X98078275Y-72364600D01*
X97196336Y-72364600D01*
X96430357Y-71598621D01*
X96729871Y-71722990D01*
X97323525Y-71723509D01*
X97872187Y-71496806D01*
X98292330Y-71077395D01*
X98519990Y-70529129D01*
X98520509Y-69935475D01*
X98293806Y-69386813D01*
X97874395Y-68966670D01*
X97326129Y-68739010D01*
X96732475Y-68738491D01*
X96183813Y-68965194D01*
X95846900Y-69301520D01*
X95846900Y-69278500D01*
X95815965Y-69122977D01*
X95727868Y-68991132D01*
X95427759Y-68691023D01*
X95427908Y-68520260D01*
X95333368Y-68291456D01*
X95158465Y-68116247D01*
X94929826Y-68021308D01*
X94682260Y-68021092D01*
X94453456Y-68115632D01*
X94278247Y-68290535D01*
X94183308Y-68519174D01*
X94183105Y-68752287D01*
X94151129Y-68739010D01*
X93697622Y-68738614D01*
X94775368Y-67660868D01*
X94827459Y-67582909D01*
X94912632Y-67789044D01*
X95087535Y-67964253D01*
X95316174Y-68059192D01*
X95563740Y-68059408D01*
X95792544Y-67964868D01*
X95967753Y-67789965D01*
X96062692Y-67561326D01*
X96062908Y-67313760D01*
X95968368Y-67084956D01*
X95846900Y-66963275D01*
X95846900Y-62865000D01*
X95815965Y-62709477D01*
X95727868Y-62577632D01*
X95173759Y-62023523D01*
X95173908Y-61852760D01*
X95079368Y-61623956D01*
X94904465Y-61448747D01*
X94675826Y-61353808D01*
X94428260Y-61353592D01*
X94199456Y-61448132D01*
X94024247Y-61623035D01*
X93929308Y-61851674D01*
X93929092Y-62099240D01*
X94023632Y-62328044D01*
X94115990Y-62420563D01*
X93960747Y-62575535D01*
X93865808Y-62804174D01*
X93865592Y-63051740D01*
X93960132Y-63280544D01*
X94081600Y-63402225D01*
X94081600Y-67205164D01*
X92041632Y-69245132D01*
X91953535Y-69376977D01*
X91922600Y-69532500D01*
X88077736Y-69532500D01*
X89106477Y-68503759D01*
X89277240Y-68503908D01*
X89506044Y-68409368D01*
X89681253Y-68234465D01*
X89776192Y-68005826D01*
X89776408Y-67758260D01*
X89681868Y-67529456D01*
X89506965Y-67354247D01*
X89278326Y-67259308D01*
X89030760Y-67259092D01*
X88801956Y-67353632D01*
X88626747Y-67528535D01*
X88531808Y-67757174D01*
X88531658Y-67929106D01*
X86540164Y-69920600D01*
X83470031Y-69920600D01*
X83553192Y-69720326D01*
X83553408Y-69472760D01*
X83458868Y-69243956D01*
X83283965Y-69068747D01*
X83055326Y-68973808D01*
X82807760Y-68973592D01*
X82653817Y-69037200D01*
X78843462Y-69037200D01*
X78391065Y-68584803D01*
X78409615Y-68540131D01*
X78409985Y-68115731D01*
X78247916Y-67723496D01*
X77948083Y-67423138D01*
X77716471Y-67326964D01*
X77946504Y-67231916D01*
X78246862Y-66932083D01*
X78409615Y-66540131D01*
X78409841Y-66281234D01*
X78609240Y-66281408D01*
X78838044Y-66186868D01*
X79013253Y-66011965D01*
X79108192Y-65783326D01*
X79108342Y-65611394D01*
X80022700Y-64697037D01*
X80022700Y-65554538D01*
X79112232Y-66465006D01*
X78959456Y-66528132D01*
X78784247Y-66703035D01*
X78689308Y-66931674D01*
X78689092Y-67179240D01*
X78783632Y-67408044D01*
X78958535Y-67583253D01*
X79187174Y-67678192D01*
X79434740Y-67678408D01*
X79663544Y-67583868D01*
X79838753Y-67408965D01*
X79902630Y-67255132D01*
X80976631Y-66181131D01*
X81041778Y-66083632D01*
X81097764Y-65999844D01*
X81140300Y-65786000D01*
X81140300Y-61718240D01*
X82372092Y-61718240D01*
X82466632Y-61947044D01*
X82641535Y-62122253D01*
X82870174Y-62217192D01*
X82905600Y-62217223D01*
X82905600Y-65439393D01*
X82784747Y-65560035D01*
X82689808Y-65788674D01*
X82689592Y-66036240D01*
X82784132Y-66265044D01*
X82959035Y-66440253D01*
X83187674Y-66535192D01*
X83435240Y-66535408D01*
X83664044Y-66440868D01*
X83839253Y-66265965D01*
X83934192Y-66037326D01*
X83934408Y-65789760D01*
X83839868Y-65560956D01*
X83718400Y-65439275D01*
X83718400Y-61912500D01*
X83687465Y-61756977D01*
X83616751Y-61651148D01*
X83616908Y-61471760D01*
X83522368Y-61242956D01*
X83347465Y-61067747D01*
X83118826Y-60972808D01*
X82871260Y-60972592D01*
X82642456Y-61067132D01*
X82467247Y-61242035D01*
X82372308Y-61470674D01*
X82372092Y-61718240D01*
X81140300Y-61718240D01*
X81140300Y-60271660D01*
X81097764Y-60057816D01*
X80976631Y-59876529D01*
X79711994Y-58611892D01*
X79648868Y-58459116D01*
X79473965Y-58283907D01*
X79245326Y-58188968D01*
X78997760Y-58188752D01*
X78768956Y-58283292D01*
X78638400Y-58413620D01*
X78638400Y-55083607D01*
X78759253Y-54962965D01*
X78854192Y-54734326D01*
X78854408Y-54486760D01*
X78759868Y-54257956D01*
X78584965Y-54082747D01*
X78356326Y-53987808D01*
X78108760Y-53987592D01*
X77879956Y-54082132D01*
X77704747Y-54257035D01*
X77609808Y-54485674D01*
X77609592Y-54733240D01*
X77704132Y-54962044D01*
X77825600Y-55083725D01*
X77825600Y-59309000D01*
X77839320Y-59377976D01*
X77556131Y-59260385D01*
X77131731Y-59260015D01*
X76739496Y-59422084D01*
X76439138Y-59721917D01*
X76301600Y-60053145D01*
X76301600Y-51179800D01*
X86575900Y-51179800D01*
X86575900Y-55956200D01*
M02*
