M48
;DRILL file {KiCad 4.0.2-stable} date Monday, July 11, 2016 'AMt' 09:48:26 AM
;FORMAT={-:-/ absolute / inch / decimal}
FMAT,2
INCH,TZ
T1C0.015
T2C0.031
T3C0.047
%
G90
G05
M72
T1
X2.82Y-3.22
X2.945Y-2.06
X2.945Y-2.24
X2.945Y-3.3225
X3.08Y-2.15
X3.09Y-2.585
X3.115Y-2.3154
X3.1225Y-2.64
X3.1225Y-2.9225
X3.125Y-2.4325
X3.125Y-2.9604
X3.155Y-2.225
X3.1575Y-3.26
X3.16Y-2.8375
X3.18Y-2.9604
X3.205Y-2.1175
X3.205Y-3.14
X3.23Y-2.425
X3.245Y-2.3154
X3.26Y-2.89
X3.265Y-2.74
X3.2675Y-2.425
X3.275Y-3.1204
X3.28Y-2.595
X3.285Y-2.8325
X3.335Y-2.62
X3.335Y-2.8325
X3.368Y-2.7276
X3.3825Y-2.8225
X3.41Y-2.255
X3.41Y-2.405
X3.435Y-2.865
X3.4725Y-2.9075
X3.51Y-2.6725
X3.5475Y-2.35
X3.5725Y-2.3275
X3.5946Y-2.715
X3.6075Y-2.6225
X3.635Y-3.04
X3.6442Y-2.5654
X3.6525Y-2.6225
X3.66Y-2.8275
X3.665Y-3.14
X3.72Y-2.4775
X3.7225Y-2.2825
X3.7225Y-2.44
X3.725Y-2.225
X3.7325Y-2.7025
X3.7575Y-2.655
X3.77Y-2.3746
X3.81Y-2.175
X3.8354Y-3.06
X3.88Y-2.865
X3.8896Y-2.645
X3.895Y-3.14
X3.896Y-2.0568
X3.9Y-2.375
X3.9025Y-2.7675
X3.92Y-3.255
X4.035Y-2.06
X4.045Y-2.175
X4.16Y-2.175
T2
X3.045Y-2.3751
X3.045Y-2.4538
X3.045Y-2.5326
X3.045Y-2.6113
X3.045Y-2.69
X3.045Y-2.7688
X3.045Y-2.8475
X3.045Y-2.9263
X3.045Y-3.005
T3
X3.3699Y-3.29
X3.6101Y-3.29
T0
M30
