G04 #@! TF.FileFunction,Copper,L1,Top,Signal*
%FSLAX46Y46*%
G04 Gerber Fmt 4.6, Leading zero omitted, Abs format (unit mm)*
G04 Created by KiCad (PCBNEW 4.0.4-stable) date Tuesday, March 07, 2017 'PMt' 02:08:38 PM*
%MOMM*%
%LPD*%
G01*
G04 APERTURE LIST*
%ADD10C,0.100000*%
%ADD11R,0.899160X1.000760*%
%ADD12R,1.000760X0.899160*%
%ADD13R,1.498600X1.300480*%
%ADD14R,1.524000X1.524000*%
%ADD15C,1.524000*%
%ADD16R,1.000000X0.700000*%
%ADD17R,0.850000X0.190000*%
%ADD18R,0.190000X0.850000*%
%ADD19R,2.500000X2.500000*%
%ADD20R,0.700000X0.750000*%
%ADD21R,0.850000X0.450000*%
%ADD22R,1.600000X2.500000*%
%ADD23R,1.145000X0.550000*%
%ADD24R,0.550000X1.145000*%
%ADD25R,1.016000X1.016000*%
%ADD26C,1.016000*%
%ADD27C,0.508000*%
%ADD28O,2.500000X0.500000*%
%ADD29O,0.500000X2.500000*%
%ADD30R,0.280000X0.850000*%
%ADD31R,0.850000X0.280000*%
%ADD32R,2.050000X3.050000*%
%ADD33R,0.700000X1.500000*%
%ADD34C,0.635000*%
%ADD35C,0.203200*%
%ADD36C,0.508000*%
G04 APERTURE END LIST*
D10*
D11*
X141975840Y-123952000D03*
X140472160Y-123952000D03*
X138927840Y-123952000D03*
X137424160Y-123952000D03*
X145023840Y-120650000D03*
X143520160Y-120650000D03*
X145023840Y-119380000D03*
X143520160Y-119380000D03*
X145023840Y-121920000D03*
X143520160Y-121920000D03*
D12*
X136144000Y-122671840D03*
X136144000Y-121168160D03*
X133604000Y-122671840D03*
X133604000Y-121168160D03*
X134874000Y-122671840D03*
X134874000Y-121168160D03*
D13*
X132080000Y-120967500D03*
X132080000Y-122872500D03*
D12*
X141478000Y-113548160D03*
X141478000Y-115051840D03*
D13*
X136525000Y-97599500D03*
X136525000Y-99504500D03*
D12*
X135890000Y-113675160D03*
X135890000Y-115178840D03*
D13*
X134366000Y-113093500D03*
X134366000Y-114998500D03*
D14*
X132334000Y-114808000D03*
D15*
X132334000Y-112808000D03*
D14*
X140716000Y-125730000D03*
D15*
X138716000Y-125730000D03*
D12*
X132334000Y-92339160D03*
X132334000Y-93842840D03*
D11*
X143520160Y-116840000D03*
X145023840Y-116840000D03*
X145023840Y-118110000D03*
X143520160Y-118110000D03*
X134863840Y-117475000D03*
X133360160Y-117475000D03*
X134863840Y-119126000D03*
X133360160Y-119126000D03*
D12*
X136144000Y-119115840D03*
X136144000Y-117612160D03*
X131826000Y-119115840D03*
X131826000Y-117612160D03*
D11*
X144769840Y-105918000D03*
X143266160Y-105918000D03*
X144769840Y-107188000D03*
X143266160Y-107188000D03*
D12*
X142748000Y-115051840D03*
X142748000Y-113548160D03*
X145542000Y-113548160D03*
X145542000Y-115051840D03*
D11*
X136133840Y-108966000D03*
X134630160Y-108966000D03*
X136133840Y-110236000D03*
X134630160Y-110236000D03*
X136133840Y-111506000D03*
X134630160Y-111506000D03*
X143266160Y-111506000D03*
X144769840Y-111506000D03*
X143266160Y-110236000D03*
X144769840Y-110236000D03*
X143266160Y-108966000D03*
X144769840Y-108966000D03*
D16*
X137484000Y-113350000D03*
X137484000Y-114300000D03*
X137484000Y-115250000D03*
X139884000Y-115250000D03*
X139884000Y-113350000D03*
D17*
X137600000Y-107462000D03*
X137600000Y-107962000D03*
X137600000Y-108462000D03*
X137600000Y-108962000D03*
X137600000Y-109462000D03*
X137600000Y-109962000D03*
D18*
X138450000Y-110812000D03*
X138950000Y-110812000D03*
X139450000Y-110812000D03*
X139950000Y-110812000D03*
X140450000Y-110812000D03*
X140950000Y-110812000D03*
D17*
X141800000Y-109962000D03*
X141800000Y-109462000D03*
X141800000Y-108962000D03*
X141800000Y-108462000D03*
X141800000Y-107962000D03*
X141800000Y-107462000D03*
D18*
X140950000Y-106612000D03*
X140450000Y-106612000D03*
X139950000Y-106612000D03*
X139450000Y-106612000D03*
X138950000Y-106612000D03*
X138450000Y-106612000D03*
D19*
X139700000Y-108712000D03*
D20*
X135798000Y-102656000D03*
X136998000Y-102656000D03*
X136998000Y-101306000D03*
X135798000Y-101306000D03*
D21*
X134800000Y-98790000D03*
X134800000Y-97790000D03*
X134800000Y-96790000D03*
X131900000Y-96790000D03*
X131900000Y-97790000D03*
X131900000Y-98790000D03*
D22*
X133350000Y-97790000D03*
D23*
X132250000Y-100616000D03*
X132250000Y-101416000D03*
X132250000Y-102216000D03*
X132250000Y-103016000D03*
X132250000Y-103816000D03*
X132250000Y-104616000D03*
D24*
X133350000Y-104716000D03*
D23*
X134450000Y-104616000D03*
X134450000Y-103816000D03*
X134450000Y-103016000D03*
X134450000Y-102216000D03*
X134450000Y-101416000D03*
X134450000Y-100616000D03*
D24*
X133350000Y-100516000D03*
D25*
X135890000Y-89916000D03*
D26*
X134620000Y-89916000D03*
X135890000Y-91186000D03*
X134620000Y-91186000D03*
X135890000Y-92456000D03*
X134620000Y-92456000D03*
X135890000Y-93726000D03*
X134620000Y-93726000D03*
X135890000Y-94996000D03*
X134620000Y-94996000D03*
D27*
X132334000Y-89916000D03*
X147066000Y-125730000D03*
D28*
X138950000Y-89408700D03*
X138950000Y-90208700D03*
X138950000Y-91008700D03*
X138950000Y-91808700D03*
X138950000Y-92608700D03*
X138950000Y-93408700D03*
X138950000Y-94208700D03*
X138950000Y-95008700D03*
X138950000Y-95808700D03*
X138950000Y-96608700D03*
X138900000Y-97408700D03*
X138950000Y-98208700D03*
X138950000Y-99008700D03*
X138950000Y-99808700D03*
X138950000Y-100608700D03*
X138950000Y-101408700D03*
X138950000Y-102208700D03*
X138950000Y-103008700D03*
D29*
X140875000Y-103808700D03*
X141675000Y-103808700D03*
X142475000Y-103808700D03*
X143275000Y-103808700D03*
X144075000Y-103808700D03*
X144875000Y-103808700D03*
D28*
X146800000Y-103008700D03*
X146800000Y-102208700D03*
X146800000Y-101408700D03*
X146800000Y-100608700D03*
X146800000Y-99808700D03*
X146800000Y-99008700D03*
X146800000Y-98208700D03*
X146800000Y-97408700D03*
X146800000Y-96608700D03*
X146800000Y-95808700D03*
X146800000Y-95008700D03*
X146800000Y-94208700D03*
D30*
X140450000Y-122417400D03*
X140450000Y-117917400D03*
X138950000Y-117917400D03*
X138950000Y-122417400D03*
D31*
X141450000Y-120417400D03*
X141450000Y-120917400D03*
X141450000Y-121417400D03*
X141450000Y-121917400D03*
X141450000Y-119917400D03*
X141450000Y-119417400D03*
X141450000Y-118917400D03*
X141450000Y-118417400D03*
X137950000Y-118417400D03*
X137950000Y-118917400D03*
X137950000Y-119417400D03*
X137950000Y-119917400D03*
X137950000Y-120417400D03*
X137950000Y-120917400D03*
X137950000Y-121417400D03*
X137950000Y-121917400D03*
D32*
X139700000Y-120167400D03*
D33*
X146112000Y-110512000D03*
X147512000Y-110512000D03*
X147512000Y-106912000D03*
X146112000Y-106912000D03*
X133288000Y-106912000D03*
X131888000Y-106912000D03*
X131888000Y-110512000D03*
X133288000Y-110512000D03*
D27*
X132334000Y-125730000D03*
D34*
X145796000Y-103759000D03*
X144780000Y-94996000D03*
X138942000Y-93408000D03*
X140716000Y-89814400D03*
X140450000Y-122428000D03*
X138950000Y-122428000D03*
X139700000Y-120178000D03*
X131673600Y-101422200D03*
X141478000Y-115051840D03*
X145023840Y-116840000D03*
X145542000Y-115051840D03*
X132080000Y-122872500D03*
X133360160Y-119126000D03*
X133360160Y-117475000D03*
X139700000Y-108712000D03*
X138942000Y-103008000D03*
X132250000Y-103016000D03*
X136652000Y-98806000D03*
X142494000Y-116205000D03*
X142494000Y-121031000D03*
X140741400Y-96621600D03*
X140716000Y-91211400D03*
X142367000Y-96647000D03*
X133502400Y-94132400D03*
X143027400Y-95808800D03*
X133324600Y-95834200D03*
X131900000Y-97790000D03*
X131902200Y-94970600D03*
X137718800Y-106629200D03*
X131888000Y-106912000D03*
X137160000Y-112141000D03*
X140843000Y-101727000D03*
X140843000Y-112141000D03*
X132250000Y-100616000D03*
X133375400Y-101650800D03*
X136525000Y-97599500D03*
X140843000Y-97663000D03*
X146126200Y-106908600D03*
X146151600Y-108966000D03*
X144932400Y-101803200D03*
X144272000Y-115824000D03*
X142036800Y-105791000D03*
X139852400Y-100609400D03*
X143266160Y-107188000D03*
X135798000Y-101306000D03*
X133350000Y-99568000D03*
X138938000Y-99822000D03*
X146792000Y-96608000D03*
X146558000Y-113538000D03*
D35*
X146792000Y-103008000D02*
X146547000Y-103008000D01*
X146547000Y-103008000D02*
X145796000Y-103759000D01*
D36*
X146792000Y-94208000D02*
X145568000Y-94208000D01*
X145568000Y-94208000D02*
X144780000Y-94996000D01*
X138942000Y-89408000D02*
X140309600Y-89408000D01*
X140309600Y-89408000D02*
X140716000Y-89814400D01*
D35*
X138950000Y-120928000D02*
X138950000Y-122428000D01*
X140931400Y-118428000D02*
X139700000Y-119659400D01*
X139700000Y-119659400D02*
X139700000Y-120178000D01*
X138950000Y-120928000D02*
X139700000Y-120178000D01*
X140450000Y-122428000D02*
X140450000Y-120928000D01*
X140450000Y-120928000D02*
X139700000Y-120178000D01*
X132250000Y-101416000D02*
X131679800Y-101416000D01*
X131679800Y-101416000D02*
X131673600Y-101422200D01*
D36*
X134366000Y-114998500D02*
X132524500Y-114998500D01*
X132524500Y-114998500D02*
X132334000Y-114808000D01*
X135890000Y-115178840D02*
X134546340Y-115178840D01*
X134546340Y-115178840D02*
X134366000Y-114998500D01*
X137484000Y-114300000D02*
X136906000Y-114300000D01*
X136906000Y-114300000D02*
X136027160Y-115178840D01*
X136027160Y-115178840D02*
X135890000Y-115178840D01*
D35*
X139950000Y-110812000D02*
X139950000Y-108962000D01*
X139950000Y-108962000D02*
X139700000Y-108712000D01*
X139450000Y-110812000D02*
X139450000Y-108962000D01*
X139450000Y-108962000D02*
X139700000Y-108712000D01*
X141800000Y-108962000D02*
X139950000Y-108962000D01*
X139950000Y-108962000D02*
X139700000Y-108712000D01*
X141800000Y-107962000D02*
X140450000Y-107962000D01*
X140450000Y-107962000D02*
X139700000Y-108712000D01*
X141800000Y-107462000D02*
X140950000Y-107462000D01*
X140950000Y-107462000D02*
X139700000Y-108712000D01*
X139450000Y-106612000D02*
X139450000Y-108462000D01*
X139450000Y-108462000D02*
X139700000Y-108712000D01*
X137600000Y-108962000D02*
X139450000Y-108962000D01*
X139450000Y-108962000D02*
X139700000Y-108712000D01*
X137600000Y-108462000D02*
X139450000Y-108462000D01*
X139450000Y-108462000D02*
X139700000Y-108712000D01*
X138942000Y-103008000D02*
X137350000Y-103008000D01*
X137350000Y-103008000D02*
X136998000Y-102656000D01*
X132250000Y-103816000D02*
X132250000Y-103016000D01*
X136525000Y-99504500D02*
X136525000Y-98933000D01*
X136525000Y-98933000D02*
X136652000Y-98806000D01*
D36*
X138942000Y-90208000D02*
X138942000Y-89408000D01*
X138942000Y-91008000D02*
X138942000Y-90208000D01*
X138942000Y-91808000D02*
X138942000Y-91008000D01*
X138942000Y-92608000D02*
X138942000Y-91808000D01*
X138942000Y-93408000D02*
X138942000Y-92608000D01*
X138942000Y-94208000D02*
X138942000Y-93408000D01*
D35*
X136525000Y-99504500D02*
X136525000Y-99415600D01*
X136525000Y-99415600D02*
X134899400Y-97790000D01*
X134899400Y-97790000D02*
X134800000Y-97790000D01*
X141450000Y-118428000D02*
X140931400Y-118428000D01*
X141450000Y-120928000D02*
X142391000Y-120928000D01*
X142748000Y-115051840D02*
X142748000Y-115951000D01*
X142748000Y-115951000D02*
X142494000Y-116205000D01*
X138950000Y-117928000D02*
X138950000Y-116320000D01*
X138950000Y-116320000D02*
X139065000Y-116205000D01*
D36*
X138430000Y-115570000D02*
X138110000Y-115250000D01*
X138110000Y-115250000D02*
X137484000Y-115250000D01*
X134366000Y-113093500D02*
X132619500Y-113093500D01*
X132619500Y-113093500D02*
X132334000Y-112808000D01*
X134366000Y-113093500D02*
X135308340Y-113093500D01*
X135308340Y-113093500D02*
X135890000Y-113675160D01*
X137484000Y-113350000D02*
X136215160Y-113350000D01*
X136215160Y-113350000D02*
X135890000Y-113675160D01*
X142494000Y-116205000D02*
X139065000Y-116205000D01*
X138115000Y-113350000D02*
X137484000Y-113350000D01*
X138430000Y-113665000D02*
X138115000Y-113350000D01*
X138430000Y-115570000D02*
X138430000Y-113665000D01*
X139065000Y-116205000D02*
X138430000Y-115570000D01*
D35*
X142391000Y-120928000D02*
X142494000Y-121031000D01*
X140716000Y-94335600D02*
X140716000Y-91211400D01*
X142367000Y-95986600D02*
X140716000Y-94335600D01*
X138955600Y-96621600D02*
X140741400Y-96621600D01*
X142367000Y-96647000D02*
X142367000Y-95986600D01*
X138942000Y-96608000D02*
X138955600Y-96621600D01*
X138942000Y-95808000D02*
X134212800Y-95808000D01*
X134212800Y-95808000D02*
X133502400Y-95097600D01*
X138941200Y-95808800D02*
X138942000Y-95808000D01*
X133502400Y-95097600D02*
X133502400Y-94132400D01*
X146792000Y-95808000D02*
X143028200Y-95808000D01*
X143028200Y-95808000D02*
X143027400Y-95808800D01*
X133324600Y-95834200D02*
X132740400Y-95250000D01*
X132740400Y-95250000D02*
X132740400Y-94249240D01*
X132740400Y-94249240D02*
X132334000Y-93842840D01*
X132334000Y-93842840D02*
X132679440Y-93497400D01*
X132679440Y-93497400D02*
X134391400Y-93497400D01*
X134391400Y-93497400D02*
X134620000Y-93726000D01*
X134376160Y-93969840D02*
X134620000Y-93726000D01*
X143520160Y-116840000D02*
X140843000Y-116840000D01*
X140450000Y-117233000D02*
X140450000Y-117928000D01*
X140843000Y-116840000D02*
X140450000Y-117233000D01*
X144769840Y-111506000D02*
X145923000Y-111506000D01*
X146112000Y-111317000D02*
X146112000Y-110512000D01*
X145923000Y-111506000D02*
X146112000Y-111317000D01*
D36*
X140716000Y-125730000D02*
X140970000Y-125730000D01*
X140970000Y-125730000D02*
X141975840Y-124724160D01*
X141975840Y-124724160D02*
X141975840Y-123952000D01*
X141287500Y-122872500D02*
X144843500Y-122872500D01*
X144843500Y-122872500D02*
X145023840Y-122692160D01*
D35*
X141450000Y-121928000D02*
X141450000Y-122710000D01*
X141450000Y-122710000D02*
X141287500Y-122872500D01*
X141287500Y-122872500D02*
X141224000Y-122936000D01*
D36*
X145023840Y-120650000D02*
X145023840Y-119380000D01*
X145023840Y-121920000D02*
X145023840Y-120650000D01*
X145023840Y-122692160D02*
X145023840Y-121920000D01*
X140472160Y-123952000D02*
X140472160Y-123687840D01*
X140472160Y-123687840D02*
X141224000Y-122936000D01*
X138927840Y-123952000D02*
X140472160Y-123952000D01*
D35*
X140218160Y-123901200D02*
X140218160Y-123952000D01*
X137206160Y-122671840D02*
X137950000Y-121928000D01*
D36*
X134874000Y-122671840D02*
X136144000Y-122671840D01*
X133604000Y-122671840D02*
X134874000Y-122671840D01*
X138716000Y-125730000D02*
X138684000Y-125730000D01*
X138684000Y-125730000D02*
X137424160Y-124470160D01*
X137424160Y-124470160D02*
X137424160Y-123952000D01*
D35*
X136144000Y-122671840D02*
X137206160Y-122671840D01*
D36*
X136144000Y-122671840D02*
X137424160Y-123952000D01*
D35*
X141450000Y-120428000D02*
X143298160Y-120428000D01*
X143298160Y-120428000D02*
X143520160Y-120650000D01*
X141450000Y-119928000D02*
X142835000Y-119928000D01*
X142835000Y-119928000D02*
X143383000Y-119380000D01*
X143383000Y-119380000D02*
X143520160Y-119380000D01*
X141450000Y-121428000D02*
X142002000Y-121428000D01*
X142494000Y-121920000D02*
X143520160Y-121920000D01*
X142002000Y-121428000D02*
X142494000Y-121920000D01*
X137936160Y-120914160D02*
X137950000Y-120928000D01*
X137950000Y-120928000D02*
X136384160Y-120928000D01*
X136384160Y-120928000D02*
X136144000Y-121168160D01*
X137950000Y-119928000D02*
X134707000Y-119928000D01*
X133604000Y-121031000D02*
X133604000Y-121168160D01*
X134707000Y-119928000D02*
X133604000Y-121031000D01*
X137950000Y-120428000D02*
X135096000Y-120428000D01*
X134874000Y-120650000D02*
X134874000Y-121168160D01*
X135096000Y-120428000D02*
X134874000Y-120650000D01*
X134874000Y-120904000D02*
X134874000Y-121168160D01*
X131826000Y-119115840D02*
X131826000Y-120713500D01*
X131826000Y-120713500D02*
X132080000Y-120967500D01*
X132334000Y-120713500D02*
X132080000Y-120967500D01*
X137950000Y-121428000D02*
X137398000Y-121428000D01*
X132080000Y-121666000D02*
X132080000Y-120967500D01*
X132334000Y-121920000D02*
X132080000Y-121666000D01*
X136906000Y-121920000D02*
X132334000Y-121920000D01*
X137398000Y-121428000D02*
X136906000Y-121920000D01*
X131521200Y-93151960D02*
X132334000Y-92339160D01*
X131521200Y-94589600D02*
X131521200Y-93151960D01*
X131902200Y-94970600D02*
X131521200Y-94589600D01*
D36*
X138942000Y-95008000D02*
X140372400Y-95008000D01*
X141554200Y-96951800D02*
X140843000Y-97663000D01*
X141554200Y-96189800D02*
X141554200Y-96951800D01*
X140372400Y-95008000D02*
X141554200Y-96189800D01*
D35*
X138942000Y-95008000D02*
X137654600Y-95008000D01*
X136779000Y-89916000D02*
X135890000Y-89916000D01*
X137287000Y-90424000D02*
X136779000Y-89916000D01*
X137287000Y-94640400D02*
X137287000Y-90424000D01*
X137654600Y-95008000D02*
X137287000Y-94640400D01*
X138950000Y-106612000D02*
X138950000Y-106109200D01*
X139950000Y-106091800D02*
X139950000Y-106612000D01*
X139700000Y-105841800D02*
X139950000Y-106091800D01*
X139217400Y-105841800D02*
X139700000Y-105841800D01*
X138950000Y-106109200D02*
X139217400Y-105841800D01*
X138950000Y-106612000D02*
X138450000Y-106612000D01*
X137600000Y-107462000D02*
X137600000Y-106748000D01*
X137600000Y-106748000D02*
X137718800Y-106629200D01*
X138450000Y-106612000D02*
X137736000Y-106612000D01*
X137736000Y-106612000D02*
X137718800Y-106629200D01*
X137600000Y-107962000D02*
X137600000Y-107462000D01*
X144769840Y-107188000D02*
X144769840Y-105918000D01*
X144769840Y-107188000D02*
X144769840Y-107604560D01*
X144769840Y-107604560D02*
X144018000Y-108356400D01*
X144018000Y-108356400D02*
X144018000Y-112496600D01*
X144018000Y-112496600D02*
X143992600Y-112522000D01*
X145023840Y-118110000D02*
X147193000Y-118110000D01*
X147512000Y-117791000D02*
X147512000Y-111695000D01*
X147193000Y-118110000D02*
X147512000Y-117791000D01*
D36*
X141478000Y-113548160D02*
X141478000Y-113030000D01*
X147512000Y-111695000D02*
X147512000Y-110512000D01*
X146685000Y-112522000D02*
X147512000Y-111695000D01*
X141986000Y-112522000D02*
X143992600Y-112522000D01*
X143992600Y-112522000D02*
X146685000Y-112522000D01*
X141478000Y-113030000D02*
X141986000Y-112522000D01*
D35*
X131888000Y-104978000D02*
X131888000Y-106912000D01*
X132250000Y-104616000D02*
X131888000Y-104978000D01*
D36*
X137160000Y-112141000D02*
X140843000Y-112141000D01*
X139884000Y-113350000D02*
X140843000Y-112391000D01*
X140843000Y-112141000D02*
X140843000Y-112391000D01*
X139884000Y-113350000D02*
X141279840Y-113350000D01*
X141279840Y-113350000D02*
X141478000Y-113548160D01*
D35*
X135798000Y-102656000D02*
X136473000Y-101981000D01*
X137541000Y-101981000D02*
X137768000Y-102208000D01*
X136473000Y-101981000D02*
X137541000Y-101981000D01*
X137768000Y-102208000D02*
X138942000Y-102208000D01*
D36*
X140843000Y-97663000D02*
X140843000Y-101727000D01*
X140362000Y-102208000D02*
X138942000Y-102208000D01*
X140843000Y-101727000D02*
X140362000Y-102208000D01*
D35*
X135798000Y-102656000D02*
X135798000Y-102454000D01*
X133375400Y-101650800D02*
X133375400Y-104690600D01*
X133375400Y-104690600D02*
X133350000Y-104716000D01*
X134450000Y-101416000D02*
X133610200Y-101416000D01*
X133375400Y-101650800D02*
X133610200Y-101416000D01*
X132250000Y-104616000D02*
X132350000Y-104716000D01*
X132350000Y-104716000D02*
X133350000Y-104716000D01*
X136334500Y-97790000D02*
X136525000Y-97599500D01*
X138942000Y-95008000D02*
X137883200Y-95008000D01*
X134630160Y-108966000D02*
X133985000Y-108966000D01*
X133288000Y-108269000D02*
X133288000Y-106912000D01*
X133985000Y-108966000D02*
X133288000Y-108269000D01*
X134630160Y-111506000D02*
X134503160Y-111633000D01*
X134503160Y-111633000D02*
X132207000Y-111633000D01*
X132207000Y-111633000D02*
X131888000Y-111314000D01*
X131888000Y-111314000D02*
X131888000Y-110512000D01*
X134630160Y-110236000D02*
X133564000Y-110236000D01*
X133564000Y-110236000D02*
X133288000Y-110512000D01*
X147512000Y-107885000D02*
X147512000Y-106912000D01*
X147193000Y-108204000D02*
X147512000Y-107885000D01*
X145531840Y-108204000D02*
X147193000Y-108204000D01*
X144769840Y-108966000D02*
X145531840Y-108204000D01*
X144769840Y-110236000D02*
X144881600Y-110236000D01*
X144881600Y-110236000D02*
X146151600Y-108966000D01*
X146126200Y-106908600D02*
X146112000Y-106912000D01*
X144769840Y-110236000D02*
X144856200Y-110236000D01*
X141450000Y-119428000D02*
X142192000Y-119428000D01*
X142192000Y-119428000D02*
X142621000Y-118999000D01*
X142621000Y-118999000D02*
X142621000Y-118491000D01*
X144932400Y-101803200D02*
X145337200Y-102208000D01*
X146792000Y-102208000D02*
X145337200Y-102208000D01*
X144272000Y-117475000D02*
X144272000Y-115824000D01*
X144272000Y-117475000D02*
X143637000Y-118110000D01*
X143520160Y-118110000D02*
X143637000Y-118110000D01*
X143520160Y-118110000D02*
X143662400Y-118110000D01*
X143002000Y-118110000D02*
X143520160Y-118110000D01*
X142621000Y-118491000D02*
X143002000Y-118110000D01*
X137950000Y-118928000D02*
X137343000Y-118928000D01*
X135509000Y-118364000D02*
X134863840Y-117718840D01*
X136779000Y-118364000D02*
X135509000Y-118364000D01*
X137343000Y-118928000D02*
X136779000Y-118364000D01*
X134863840Y-117718840D02*
X134863840Y-117475000D01*
X134863840Y-117718840D02*
X134863840Y-117602000D01*
X136144000Y-119115840D02*
X136133840Y-119126000D01*
X136133840Y-119126000D02*
X134863840Y-119126000D01*
X134863840Y-119126000D02*
X134051040Y-118313200D01*
X132527040Y-118313200D02*
X131826000Y-117612160D01*
X134051040Y-118313200D02*
X132527040Y-118313200D01*
X137950000Y-119428000D02*
X136456160Y-119428000D01*
X136456160Y-119428000D02*
X136144000Y-119115840D01*
X137950000Y-118428000D02*
X137134160Y-117612160D01*
X137134160Y-117612160D02*
X136144000Y-117612160D01*
X139851000Y-100608000D02*
X139852400Y-100609400D01*
X139851000Y-100608000D02*
X138942000Y-100608000D01*
X143266160Y-105918000D02*
X143139160Y-105791000D01*
X138966000Y-100584000D02*
X138942000Y-100608000D01*
X140450000Y-106612000D02*
X140450000Y-106057000D01*
X140716000Y-105791000D02*
X142036800Y-105791000D01*
X140450000Y-106057000D02*
X140716000Y-105791000D01*
X142036800Y-105791000D02*
X143139160Y-105791000D01*
X143012160Y-105664000D02*
X143266160Y-105918000D01*
X136998000Y-101306000D02*
X136998000Y-101254000D01*
X136998000Y-101254000D02*
X137644000Y-100608000D01*
X137644000Y-100608000D02*
X138942000Y-100608000D01*
X137771000Y-100608000D02*
X138942000Y-100608000D01*
X138942000Y-100608000D02*
X134458000Y-100608000D01*
X134458000Y-100608000D02*
X134450000Y-100616000D01*
X138934000Y-100616000D02*
X138942000Y-100608000D01*
X134800000Y-98790000D02*
X134800000Y-100266000D01*
X134800000Y-100266000D02*
X134450000Y-100616000D01*
X142172000Y-106612000D02*
X142748000Y-107188000D01*
X142748000Y-107188000D02*
X143266160Y-107188000D01*
X140950000Y-106612000D02*
X142172000Y-106612000D01*
X138956000Y-99822000D02*
X138942000Y-99808000D01*
X133350000Y-100516000D02*
X133350000Y-99568000D01*
X131900000Y-99261000D02*
X131900000Y-98790000D01*
X132207000Y-99568000D02*
X131900000Y-99261000D01*
X133350000Y-99568000D02*
X132207000Y-99568000D01*
X138938000Y-99822000D02*
X138942000Y-99808000D01*
X145552160Y-113538000D02*
X146558000Y-113538000D01*
X145552160Y-113538000D02*
X145542000Y-113548160D01*
X142748000Y-113548160D02*
X145542000Y-113548160D01*
X141800000Y-108462000D02*
X142363000Y-108462000D01*
X144018000Y-107797600D02*
X144018000Y-103857000D01*
X143738600Y-108077000D02*
X144018000Y-107797600D01*
X142748000Y-108077000D02*
X143738600Y-108077000D01*
X142363000Y-108462000D02*
X142748000Y-108077000D01*
X144018000Y-103857000D02*
X144067000Y-103808000D01*
X137600000Y-109462000D02*
X137021000Y-109462000D01*
X137021000Y-109462000D02*
X136525000Y-108966000D01*
X136525000Y-108966000D02*
X136133840Y-108966000D01*
X136271000Y-108712000D02*
X136133840Y-108712000D01*
X137600000Y-109962000D02*
X136407840Y-109962000D01*
X136407840Y-109962000D02*
X136133840Y-110236000D01*
X136153840Y-109962000D02*
X136133840Y-109982000D01*
X138450000Y-110812000D02*
X137219000Y-110812000D01*
X137219000Y-110812000D02*
X136525000Y-111506000D01*
X136525000Y-111506000D02*
X136133840Y-111506000D01*
X140950000Y-110812000D02*
X141800000Y-110812000D01*
X142494000Y-111506000D02*
X143266160Y-111506000D01*
X141800000Y-110812000D02*
X142494000Y-111506000D01*
X141800000Y-109962000D02*
X142992160Y-109962000D01*
X142992160Y-109962000D02*
X143266160Y-110236000D01*
X143002000Y-110490000D02*
X143266160Y-110490000D01*
X141800000Y-109462000D02*
X142506000Y-109462000D01*
X142506000Y-109462000D02*
X143002000Y-108966000D01*
X143002000Y-108966000D02*
X143266160Y-108966000D01*
X140867000Y-103808000D02*
X134458000Y-103808000D01*
X134458000Y-103808000D02*
X134450000Y-103816000D01*
X141667000Y-103808000D02*
X141667000Y-105068600D01*
X135273800Y-104616000D02*
X134450000Y-104616000D01*
X136042400Y-105384600D02*
X135273800Y-104616000D01*
X141351000Y-105384600D02*
X136042400Y-105384600D01*
X141667000Y-105068600D02*
X141351000Y-105384600D01*
M02*
