G04 #@! TF.FileFunction,Legend,Top*
%FSLAX46Y46*%
G04 Gerber Fmt 4.6, Leading zero omitted, Abs format (unit mm)*
G04 Created by KiCad (PCBNEW 4.0.4-stable) date Tuesday, March 07, 2017 'PMt' 02:08:38 PM*
%MOMM*%
%LPD*%
G01*
G04 APERTURE LIST*
%ADD10C,0.100000*%
%ADD11C,0.190500*%
%ADD12C,0.127000*%
%ADD13C,0.150000*%
G04 APERTURE END LIST*
D10*
D11*
X143087904Y-126682288D02*
X142672889Y-126043221D01*
X143182351Y-126361360D01*
X143098934Y-125766545D01*
X143513949Y-126405612D01*
X144092151Y-126030122D02*
X143874763Y-125695373D01*
X143804806Y-125654272D01*
X143724180Y-125663365D01*
X143602453Y-125742416D01*
X143561352Y-125812373D01*
X144072389Y-125999691D02*
X144031288Y-126069647D01*
X143879129Y-126168460D01*
X143798504Y-126177554D01*
X143728546Y-126136453D01*
X143689021Y-126075590D01*
X143679928Y-125994963D01*
X143721029Y-125925007D01*
X143873188Y-125826194D01*
X143914288Y-125756237D01*
X144396470Y-125832496D02*
X144119793Y-125406451D01*
X144198844Y-125528178D02*
X144189750Y-125447553D01*
X144200419Y-125397358D01*
X144241520Y-125327401D01*
X144302384Y-125287875D01*
X144873069Y-124700940D02*
X144883738Y-124650745D01*
X144924838Y-124580788D01*
X145076998Y-124481975D01*
X145157624Y-124472882D01*
X145207818Y-124483551D01*
X145277775Y-124524652D01*
X145317300Y-124585516D01*
X145346157Y-124696573D01*
X145218126Y-125298906D01*
X145613739Y-125041992D01*
X145594337Y-124146011D02*
X145655201Y-124106485D01*
X145735827Y-124097392D01*
X145786021Y-124108062D01*
X145855978Y-124149162D01*
X145965460Y-124251127D01*
X146064273Y-124403286D01*
X146112892Y-124544775D01*
X146121986Y-124625401D01*
X146111316Y-124675596D01*
X146070216Y-124745552D01*
X146009352Y-124785078D01*
X145928726Y-124794172D01*
X145878531Y-124783502D01*
X145808575Y-124742401D01*
X145699093Y-124640437D01*
X145600279Y-124488278D01*
X145551661Y-124346788D01*
X145542567Y-124266163D01*
X145553236Y-124215968D01*
X145594337Y-124146011D01*
X146831009Y-124251487D02*
X146465828Y-124488638D01*
X146648419Y-124370063D02*
X146233404Y-123730996D01*
X146231828Y-123861816D01*
X146210490Y-123962206D01*
X146169389Y-124032163D01*
X146629016Y-123474082D02*
X147055061Y-123197405D01*
X147196190Y-124014336D01*
X133712857Y-125566714D02*
X133894286Y-126074714D01*
X134075714Y-125566714D01*
X134511142Y-125312714D02*
X134583714Y-125312714D01*
X134656285Y-125349000D01*
X134692571Y-125385286D01*
X134728857Y-125457857D01*
X134765142Y-125603000D01*
X134765142Y-125784429D01*
X134728857Y-125929571D01*
X134692571Y-126002143D01*
X134656285Y-126038429D01*
X134583714Y-126074714D01*
X134511142Y-126074714D01*
X134438571Y-126038429D01*
X134402285Y-126002143D01*
X134366000Y-125929571D01*
X134329714Y-125784429D01*
X134329714Y-125603000D01*
X134366000Y-125457857D01*
X134402285Y-125385286D01*
X134438571Y-125349000D01*
X134511142Y-125312714D01*
X135091714Y-126002143D02*
X135127999Y-126038429D01*
X135091714Y-126074714D01*
X135055428Y-126038429D01*
X135091714Y-126002143D01*
X135091714Y-126074714D01*
X135781142Y-125566714D02*
X135781142Y-126074714D01*
X135599713Y-125276429D02*
X135418285Y-125820714D01*
X135889999Y-125820714D01*
X142290199Y-125861000D02*
X142209573Y-125870095D01*
X142159379Y-125859425D01*
X142089421Y-125818324D01*
X141970846Y-125635733D01*
X141961753Y-125555108D01*
X141972421Y-125504913D01*
X142013522Y-125434956D01*
X142104818Y-125375668D01*
X142185443Y-125366575D01*
X142235638Y-125377244D01*
X142305595Y-125418345D01*
X142424171Y-125600935D01*
X142433264Y-125681562D01*
X142422595Y-125731756D01*
X142381494Y-125801713D01*
X142290199Y-125861000D01*
X142439567Y-125158279D02*
X142868403Y-125485510D01*
X142743885Y-124960653D01*
X143264015Y-125228597D02*
X142987339Y-124802552D01*
X143066389Y-124924279D02*
X143057296Y-124843654D01*
X143067965Y-124793459D01*
X143109065Y-124723502D01*
X143169929Y-124683976D01*
X143655262Y-124498595D02*
X143766320Y-124469739D01*
X143816513Y-124480409D01*
X143886470Y-124521509D01*
X143945758Y-124612804D01*
X143954852Y-124693431D01*
X143944183Y-124743625D01*
X143903082Y-124813582D01*
X143659628Y-124971683D01*
X143244613Y-124332616D01*
X143457636Y-124194277D01*
X143538261Y-124185184D01*
X143588456Y-124195854D01*
X143658412Y-124236955D01*
X143697938Y-124297819D01*
X143707032Y-124378444D01*
X143696363Y-124428639D01*
X143655262Y-124498595D01*
X143442239Y-124636933D01*
X144522386Y-124368136D02*
X144481285Y-124438092D01*
X144359558Y-124517143D01*
X144278933Y-124526237D01*
X144208975Y-124485135D01*
X144050874Y-124241681D01*
X144041781Y-124161055D01*
X144082882Y-124091098D01*
X144204609Y-124012048D01*
X144285235Y-124002955D01*
X144355192Y-124044055D01*
X144394717Y-124104919D01*
X144129925Y-124363408D01*
X145120352Y-124023077D02*
X144902964Y-123688328D01*
X144833007Y-123647227D01*
X144752381Y-123656320D01*
X144630653Y-123735371D01*
X144589553Y-123805328D01*
X145100590Y-123992646D02*
X145059489Y-124062602D01*
X144907330Y-124161416D01*
X144826705Y-124170509D01*
X144756747Y-124129408D01*
X144717222Y-124068545D01*
X144708129Y-123987918D01*
X144749230Y-123917962D01*
X144901389Y-123819149D01*
X144942489Y-123749192D01*
X145678794Y-123617156D02*
X145637693Y-123687112D01*
X145515966Y-123766163D01*
X145435340Y-123775257D01*
X145385146Y-123764588D01*
X145315188Y-123723486D01*
X145196613Y-123540896D01*
X145187520Y-123460270D01*
X145198188Y-123410076D01*
X145239289Y-123340118D01*
X145361016Y-123261068D01*
X145441642Y-123251975D01*
X146063738Y-123410436D02*
X145983111Y-123419530D01*
X145932918Y-123408860D01*
X145862960Y-123367759D01*
X145744384Y-123185169D01*
X145735291Y-123104543D01*
X145745960Y-123054349D01*
X145787061Y-122984391D01*
X145878356Y-122925103D01*
X145958982Y-122916010D01*
X146009177Y-122926680D01*
X146079134Y-122967780D01*
X146197709Y-123150370D01*
X146206803Y-123230997D01*
X146196134Y-123281192D01*
X146155033Y-123351148D01*
X146063738Y-123410436D01*
X146273970Y-122668189D02*
X146550646Y-123094234D01*
X146313495Y-122729053D02*
X146324164Y-122678859D01*
X146365265Y-122608901D01*
X146456560Y-122549613D01*
X146537186Y-122540520D01*
X146607143Y-122581621D01*
X146824532Y-122916370D01*
D12*
X141782800Y-124358400D02*
X141782800Y-123545600D01*
X140665200Y-123571000D02*
X140665200Y-124358400D01*
X140411200Y-123545600D02*
X142036800Y-123545600D01*
X142036800Y-123545600D02*
X142036800Y-124358400D01*
X142036800Y-124358400D02*
X140411200Y-124358400D01*
X140411200Y-124358400D02*
X140411200Y-123545600D01*
X138734800Y-124358400D02*
X138734800Y-123545600D01*
X137617200Y-123571000D02*
X137617200Y-124358400D01*
X137363200Y-123545600D02*
X138988800Y-123545600D01*
X138988800Y-123545600D02*
X138988800Y-124358400D01*
X138988800Y-124358400D02*
X137363200Y-124358400D01*
X137363200Y-124358400D02*
X137363200Y-123545600D01*
X144830800Y-121056400D02*
X144830800Y-120243600D01*
X143713200Y-120269000D02*
X143713200Y-121056400D01*
X143459200Y-120243600D02*
X145084800Y-120243600D01*
X145084800Y-120243600D02*
X145084800Y-121056400D01*
X145084800Y-121056400D02*
X143459200Y-121056400D01*
X143459200Y-121056400D02*
X143459200Y-120243600D01*
X144830800Y-119786400D02*
X144830800Y-118973600D01*
X143713200Y-118999000D02*
X143713200Y-119786400D01*
X143459200Y-118973600D02*
X145084800Y-118973600D01*
X145084800Y-118973600D02*
X145084800Y-119786400D01*
X145084800Y-119786400D02*
X143459200Y-119786400D01*
X143459200Y-119786400D02*
X143459200Y-118973600D01*
X144830800Y-122326400D02*
X144830800Y-121513600D01*
X143713200Y-121539000D02*
X143713200Y-122326400D01*
X143459200Y-121513600D02*
X145084800Y-121513600D01*
X145084800Y-121513600D02*
X145084800Y-122326400D01*
X145084800Y-122326400D02*
X143459200Y-122326400D01*
X143459200Y-122326400D02*
X143459200Y-121513600D01*
X135737600Y-122478800D02*
X136550400Y-122478800D01*
X136525000Y-121361200D02*
X135737600Y-121361200D01*
X136550400Y-121107200D02*
X136550400Y-122732800D01*
X136550400Y-122732800D02*
X135737600Y-122732800D01*
X135737600Y-122732800D02*
X135737600Y-121107200D01*
X135737600Y-121107200D02*
X136550400Y-121107200D01*
X133197600Y-122478800D02*
X134010400Y-122478800D01*
X133985000Y-121361200D02*
X133197600Y-121361200D01*
X134010400Y-121107200D02*
X134010400Y-122732800D01*
X134010400Y-122732800D02*
X133197600Y-122732800D01*
X133197600Y-122732800D02*
X133197600Y-121107200D01*
X133197600Y-121107200D02*
X134010400Y-121107200D01*
X134467600Y-122478800D02*
X135280400Y-122478800D01*
X135255000Y-121361200D02*
X134467600Y-121361200D01*
X135280400Y-121107200D02*
X135280400Y-122732800D01*
X135280400Y-122732800D02*
X134467600Y-122732800D01*
X134467600Y-122732800D02*
X134467600Y-121107200D01*
X134467600Y-121107200D02*
X135280400Y-121107200D01*
X131445000Y-121285000D02*
X132715000Y-121285000D01*
X131445000Y-122555000D02*
X132689600Y-122555000D01*
X131445000Y-122936000D02*
X131445000Y-120904000D01*
X131445000Y-120904000D02*
X132715000Y-120904000D01*
X132715000Y-120904000D02*
X132715000Y-122936000D01*
X132715000Y-122936000D02*
X131445000Y-122936000D01*
X141884400Y-113741200D02*
X141071600Y-113741200D01*
X141097000Y-114858800D02*
X141884400Y-114858800D01*
X141071600Y-115112800D02*
X141071600Y-113487200D01*
X141071600Y-113487200D02*
X141884400Y-113487200D01*
X141884400Y-113487200D02*
X141884400Y-115112800D01*
X141884400Y-115112800D02*
X141071600Y-115112800D01*
X135890000Y-97917000D02*
X137160000Y-97917000D01*
X135890000Y-99187000D02*
X137134600Y-99187000D01*
X135890000Y-99568000D02*
X135890000Y-97536000D01*
X135890000Y-97536000D02*
X137160000Y-97536000D01*
X137160000Y-97536000D02*
X137160000Y-99568000D01*
X137160000Y-99568000D02*
X135890000Y-99568000D01*
X136296400Y-113868200D02*
X135483600Y-113868200D01*
X135509000Y-114985800D02*
X136296400Y-114985800D01*
X135483600Y-115239800D02*
X135483600Y-113614200D01*
X135483600Y-113614200D02*
X136296400Y-113614200D01*
X136296400Y-113614200D02*
X136296400Y-115239800D01*
X136296400Y-115239800D02*
X135483600Y-115239800D01*
X133731000Y-113411000D02*
X135001000Y-113411000D01*
X133731000Y-114681000D02*
X134975600Y-114681000D01*
X133731000Y-115062000D02*
X133731000Y-113030000D01*
X133731000Y-113030000D02*
X135001000Y-113030000D01*
X135001000Y-113030000D02*
X135001000Y-115062000D01*
X135001000Y-115062000D02*
X133731000Y-115062000D01*
X132740400Y-92532200D02*
X131927600Y-92532200D01*
X131953000Y-93649800D02*
X132740400Y-93649800D01*
X131927600Y-93903800D02*
X131927600Y-92278200D01*
X131927600Y-92278200D02*
X132740400Y-92278200D01*
X132740400Y-92278200D02*
X132740400Y-93903800D01*
X132740400Y-93903800D02*
X131927600Y-93903800D01*
X143713200Y-116433600D02*
X143713200Y-117246400D01*
X144830800Y-117221000D02*
X144830800Y-116433600D01*
X145084800Y-117246400D02*
X143459200Y-117246400D01*
X143459200Y-117246400D02*
X143459200Y-116433600D01*
X143459200Y-116433600D02*
X145084800Y-116433600D01*
X145084800Y-116433600D02*
X145084800Y-117246400D01*
X144830800Y-118516400D02*
X144830800Y-117703600D01*
X143713200Y-117729000D02*
X143713200Y-118516400D01*
X143459200Y-117703600D02*
X145084800Y-117703600D01*
X145084800Y-117703600D02*
X145084800Y-118516400D01*
X145084800Y-118516400D02*
X143459200Y-118516400D01*
X143459200Y-118516400D02*
X143459200Y-117703600D01*
X134670800Y-117881400D02*
X134670800Y-117068600D01*
X133553200Y-117094000D02*
X133553200Y-117881400D01*
X133299200Y-117068600D02*
X134924800Y-117068600D01*
X134924800Y-117068600D02*
X134924800Y-117881400D01*
X134924800Y-117881400D02*
X133299200Y-117881400D01*
X133299200Y-117881400D02*
X133299200Y-117068600D01*
X134670800Y-119532400D02*
X134670800Y-118719600D01*
X133553200Y-118745000D02*
X133553200Y-119532400D01*
X133299200Y-118719600D02*
X134924800Y-118719600D01*
X134924800Y-118719600D02*
X134924800Y-119532400D01*
X134924800Y-119532400D02*
X133299200Y-119532400D01*
X133299200Y-119532400D02*
X133299200Y-118719600D01*
X135737600Y-118922800D02*
X136550400Y-118922800D01*
X136525000Y-117805200D02*
X135737600Y-117805200D01*
X136550400Y-117551200D02*
X136550400Y-119176800D01*
X136550400Y-119176800D02*
X135737600Y-119176800D01*
X135737600Y-119176800D02*
X135737600Y-117551200D01*
X135737600Y-117551200D02*
X136550400Y-117551200D01*
X131419600Y-118922800D02*
X132232400Y-118922800D01*
X132207000Y-117805200D02*
X131419600Y-117805200D01*
X132232400Y-117551200D02*
X132232400Y-119176800D01*
X132232400Y-119176800D02*
X131419600Y-119176800D01*
X131419600Y-119176800D02*
X131419600Y-117551200D01*
X131419600Y-117551200D02*
X132232400Y-117551200D01*
X144576800Y-106324400D02*
X144576800Y-105511600D01*
X143459200Y-105537000D02*
X143459200Y-106324400D01*
X143205200Y-105511600D02*
X144830800Y-105511600D01*
X144830800Y-105511600D02*
X144830800Y-106324400D01*
X144830800Y-106324400D02*
X143205200Y-106324400D01*
X143205200Y-106324400D02*
X143205200Y-105511600D01*
X144576800Y-107594400D02*
X144576800Y-106781600D01*
X143459200Y-106807000D02*
X143459200Y-107594400D01*
X143205200Y-106781600D02*
X144830800Y-106781600D01*
X144830800Y-106781600D02*
X144830800Y-107594400D01*
X144830800Y-107594400D02*
X143205200Y-107594400D01*
X143205200Y-107594400D02*
X143205200Y-106781600D01*
X142341600Y-114858800D02*
X143154400Y-114858800D01*
X143129000Y-113741200D02*
X142341600Y-113741200D01*
X143154400Y-113487200D02*
X143154400Y-115112800D01*
X143154400Y-115112800D02*
X142341600Y-115112800D01*
X142341600Y-115112800D02*
X142341600Y-113487200D01*
X142341600Y-113487200D02*
X143154400Y-113487200D01*
X145948400Y-113741200D02*
X145135600Y-113741200D01*
X145161000Y-114858800D02*
X145948400Y-114858800D01*
X145135600Y-115112800D02*
X145135600Y-113487200D01*
X145135600Y-113487200D02*
X145948400Y-113487200D01*
X145948400Y-113487200D02*
X145948400Y-115112800D01*
X145948400Y-115112800D02*
X145135600Y-115112800D01*
X135940800Y-109372400D02*
X135940800Y-108559600D01*
X134823200Y-108585000D02*
X134823200Y-109372400D01*
X134569200Y-108559600D02*
X136194800Y-108559600D01*
X136194800Y-108559600D02*
X136194800Y-109372400D01*
X136194800Y-109372400D02*
X134569200Y-109372400D01*
X134569200Y-109372400D02*
X134569200Y-108559600D01*
X135940800Y-110642400D02*
X135940800Y-109829600D01*
X134823200Y-109855000D02*
X134823200Y-110642400D01*
X134569200Y-109829600D02*
X136194800Y-109829600D01*
X136194800Y-109829600D02*
X136194800Y-110642400D01*
X136194800Y-110642400D02*
X134569200Y-110642400D01*
X134569200Y-110642400D02*
X134569200Y-109829600D01*
X135940800Y-111912400D02*
X135940800Y-111099600D01*
X134823200Y-111125000D02*
X134823200Y-111912400D01*
X134569200Y-111099600D02*
X136194800Y-111099600D01*
X136194800Y-111099600D02*
X136194800Y-111912400D01*
X136194800Y-111912400D02*
X134569200Y-111912400D01*
X134569200Y-111912400D02*
X134569200Y-111099600D01*
X143459200Y-111099600D02*
X143459200Y-111912400D01*
X144576800Y-111887000D02*
X144576800Y-111099600D01*
X144830800Y-111912400D02*
X143205200Y-111912400D01*
X143205200Y-111912400D02*
X143205200Y-111099600D01*
X143205200Y-111099600D02*
X144830800Y-111099600D01*
X144830800Y-111099600D02*
X144830800Y-111912400D01*
X143459200Y-109829600D02*
X143459200Y-110642400D01*
X144576800Y-110617000D02*
X144576800Y-109829600D01*
X144830800Y-110642400D02*
X143205200Y-110642400D01*
X143205200Y-110642400D02*
X143205200Y-109829600D01*
X143205200Y-109829600D02*
X144830800Y-109829600D01*
X144830800Y-109829600D02*
X144830800Y-110642400D01*
X143459200Y-108559600D02*
X143459200Y-109372400D01*
X144576800Y-109347000D02*
X144576800Y-108559600D01*
X144830800Y-109372400D02*
X143205200Y-109372400D01*
X143205200Y-109372400D02*
X143205200Y-108559600D01*
X143205200Y-108559600D02*
X144830800Y-108559600D01*
X144830800Y-108559600D02*
X144830800Y-109372400D01*
D13*
X139484000Y-112600000D02*
X139484000Y-112900000D01*
X137884000Y-112600000D02*
X139484000Y-112600000D01*
X137884000Y-112850000D02*
X137884000Y-112600000D01*
X139484000Y-112850000D02*
X137884000Y-112850000D01*
X139484000Y-115750000D02*
X139484000Y-112850000D01*
X137884000Y-115750000D02*
X139484000Y-115750000D01*
X137884000Y-112850000D02*
X137884000Y-115750000D01*
X136950000Y-105962000D02*
X138150000Y-105962000D01*
X136950000Y-107162000D02*
X136950000Y-105962000D01*
X142200000Y-106212000D02*
X137200000Y-106212000D01*
X142200000Y-111212000D02*
X142200000Y-106212000D01*
X137200000Y-111212000D02*
X142200000Y-111212000D01*
X137200000Y-106212000D02*
X137200000Y-111212000D01*
X136398000Y-103331000D02*
X136398000Y-102981000D01*
X135148000Y-103331000D02*
X136398000Y-103331000D01*
X135148000Y-101981000D02*
X135148000Y-103331000D01*
X135398000Y-101981000D02*
X135148000Y-101981000D01*
X135398000Y-100981000D02*
X135398000Y-102981000D01*
X137398000Y-100981000D02*
X135398000Y-100981000D01*
X137398000Y-102981000D02*
X137398000Y-100981000D01*
X135398000Y-102981000D02*
X137398000Y-102981000D01*
X135400000Y-98290000D02*
X134850000Y-98290000D01*
X135400000Y-99540000D02*
X135400000Y-98290000D01*
X134350000Y-99540000D02*
X135400000Y-99540000D01*
X134350000Y-99340000D02*
X134350000Y-99540000D01*
X131850000Y-99290000D02*
X134850000Y-99290000D01*
X131850000Y-96290000D02*
X131850000Y-99290000D01*
X134850000Y-96290000D02*
X131850000Y-96290000D01*
X134850000Y-99290000D02*
X134850000Y-96290000D01*
X131350000Y-100966000D02*
X131800000Y-100966000D01*
X131350000Y-99866000D02*
X131350000Y-100966000D01*
X132350000Y-99866000D02*
X131350000Y-99866000D01*
X132350000Y-100116000D02*
X132350000Y-99866000D01*
X134850000Y-100116000D02*
X131850000Y-100116000D01*
X134850000Y-105116000D02*
X134850000Y-100116000D01*
X131850000Y-105116000D02*
X134850000Y-105116000D01*
X131850000Y-100116000D02*
X131850000Y-105116000D01*
X136955000Y-89256000D02*
X133555000Y-89256000D01*
X133555000Y-89256000D02*
X133555000Y-95656000D01*
X133555000Y-95656000D02*
X136955000Y-95656000D01*
X136955000Y-95656000D02*
X136955000Y-89256000D01*
X141800000Y-93908700D02*
X147400000Y-88708700D01*
X141800000Y-88708700D02*
X147400000Y-93908700D01*
X141800000Y-88708700D02*
X141800000Y-93908700D01*
X141800000Y-93908700D02*
X147400000Y-93908700D01*
X138300000Y-88708700D02*
X138300000Y-104458700D01*
X138300000Y-104458700D02*
X147450000Y-104458700D01*
X147450000Y-104458700D02*
X147450000Y-88708700D01*
X147450000Y-88708700D02*
X138300000Y-88708700D01*
X142000000Y-122967400D02*
X142000000Y-122317400D01*
X140850000Y-122967400D02*
X142000000Y-122967400D01*
X137850000Y-117817400D02*
X137850000Y-122517400D01*
X141550000Y-117817400D02*
X137850000Y-117817400D01*
X141550000Y-122517400D02*
X141550000Y-117817400D01*
X137850000Y-122517400D02*
X141550000Y-122517400D01*
X145112000Y-110462000D02*
X145112000Y-106962000D01*
X145262000Y-110462000D02*
X145262000Y-106962000D01*
X145412000Y-106962000D02*
X145412000Y-110462000D01*
X148212000Y-106962000D02*
X145412000Y-106962000D01*
X148212000Y-110462000D02*
X148212000Y-106962000D01*
X145412000Y-110462000D02*
X148212000Y-110462000D01*
X134288000Y-106962000D02*
X134288000Y-110462000D01*
X134138000Y-106962000D02*
X134138000Y-110462000D01*
X133988000Y-110462000D02*
X133988000Y-106962000D01*
X131188000Y-110462000D02*
X133988000Y-110462000D01*
X131188000Y-106962000D02*
X131188000Y-110462000D01*
X133988000Y-106962000D02*
X131188000Y-106962000D01*
D11*
X143256000Y-123462143D02*
X143219714Y-123498429D01*
X143110857Y-123534714D01*
X143038286Y-123534714D01*
X142929429Y-123498429D01*
X142856857Y-123425857D01*
X142820572Y-123353286D01*
X142784286Y-123208143D01*
X142784286Y-123099286D01*
X142820572Y-122954143D01*
X142856857Y-122881571D01*
X142929429Y-122809000D01*
X143038286Y-122772714D01*
X143110857Y-122772714D01*
X143219714Y-122809000D01*
X143256000Y-122845286D01*
X143981714Y-123534714D02*
X143546286Y-123534714D01*
X143764000Y-123534714D02*
X143764000Y-122772714D01*
X143691429Y-122881571D01*
X143618857Y-122954143D01*
X143546286Y-122990429D01*
X136779000Y-125494143D02*
X136742714Y-125530429D01*
X136633857Y-125566714D01*
X136561286Y-125566714D01*
X136452429Y-125530429D01*
X136379857Y-125457857D01*
X136343572Y-125385286D01*
X136307286Y-125240143D01*
X136307286Y-125131286D01*
X136343572Y-124986143D01*
X136379857Y-124913571D01*
X136452429Y-124841000D01*
X136561286Y-124804714D01*
X136633857Y-124804714D01*
X136742714Y-124841000D01*
X136779000Y-124877286D01*
X137069286Y-124877286D02*
X137105572Y-124841000D01*
X137178143Y-124804714D01*
X137359572Y-124804714D01*
X137432143Y-124841000D01*
X137468429Y-124877286D01*
X137504714Y-124949857D01*
X137504714Y-125022429D01*
X137468429Y-125131286D01*
X137033000Y-125566714D01*
X137504714Y-125566714D01*
X146304000Y-120922143D02*
X146267714Y-120958429D01*
X146158857Y-120994714D01*
X146086286Y-120994714D01*
X145977429Y-120958429D01*
X145904857Y-120885857D01*
X145868572Y-120813286D01*
X145832286Y-120668143D01*
X145832286Y-120559286D01*
X145868572Y-120414143D01*
X145904857Y-120341571D01*
X145977429Y-120269000D01*
X146086286Y-120232714D01*
X146158857Y-120232714D01*
X146267714Y-120269000D01*
X146304000Y-120305286D01*
X146558000Y-120232714D02*
X147029714Y-120232714D01*
X146775714Y-120523000D01*
X146884572Y-120523000D01*
X146957143Y-120559286D01*
X146993429Y-120595571D01*
X147029714Y-120668143D01*
X147029714Y-120849571D01*
X146993429Y-120922143D01*
X146957143Y-120958429D01*
X146884572Y-120994714D01*
X146666857Y-120994714D01*
X146594286Y-120958429D01*
X146558000Y-120922143D01*
X146304000Y-119652143D02*
X146267714Y-119688429D01*
X146158857Y-119724714D01*
X146086286Y-119724714D01*
X145977429Y-119688429D01*
X145904857Y-119615857D01*
X145868572Y-119543286D01*
X145832286Y-119398143D01*
X145832286Y-119289286D01*
X145868572Y-119144143D01*
X145904857Y-119071571D01*
X145977429Y-118999000D01*
X146086286Y-118962714D01*
X146158857Y-118962714D01*
X146267714Y-118999000D01*
X146304000Y-119035286D01*
X146957143Y-119216714D02*
X146957143Y-119724714D01*
X146775714Y-118926429D02*
X146594286Y-119470714D01*
X147066000Y-119470714D01*
X146304000Y-122192143D02*
X146267714Y-122228429D01*
X146158857Y-122264714D01*
X146086286Y-122264714D01*
X145977429Y-122228429D01*
X145904857Y-122155857D01*
X145868572Y-122083286D01*
X145832286Y-121938143D01*
X145832286Y-121829286D01*
X145868572Y-121684143D01*
X145904857Y-121611571D01*
X145977429Y-121539000D01*
X146086286Y-121502714D01*
X146158857Y-121502714D01*
X146267714Y-121539000D01*
X146304000Y-121575286D01*
X146993429Y-121502714D02*
X146630572Y-121502714D01*
X146594286Y-121865571D01*
X146630572Y-121829286D01*
X146703143Y-121793000D01*
X146884572Y-121793000D01*
X146957143Y-121829286D01*
X146993429Y-121865571D01*
X147029714Y-121938143D01*
X147029714Y-122119571D01*
X146993429Y-122192143D01*
X146957143Y-122228429D01*
X146884572Y-122264714D01*
X146703143Y-122264714D01*
X146630572Y-122228429D01*
X146594286Y-122192143D01*
X136017000Y-120477643D02*
X135980714Y-120513929D01*
X135871857Y-120550214D01*
X135799286Y-120550214D01*
X135690429Y-120513929D01*
X135617857Y-120441357D01*
X135581572Y-120368786D01*
X135545286Y-120223643D01*
X135545286Y-120114786D01*
X135581572Y-119969643D01*
X135617857Y-119897071D01*
X135690429Y-119824500D01*
X135799286Y-119788214D01*
X135871857Y-119788214D01*
X135980714Y-119824500D01*
X136017000Y-119860786D01*
X136670143Y-119788214D02*
X136525000Y-119788214D01*
X136452429Y-119824500D01*
X136416143Y-119860786D01*
X136343572Y-119969643D01*
X136307286Y-120114786D01*
X136307286Y-120405071D01*
X136343572Y-120477643D01*
X136379857Y-120513929D01*
X136452429Y-120550214D01*
X136597572Y-120550214D01*
X136670143Y-120513929D01*
X136706429Y-120477643D01*
X136742714Y-120405071D01*
X136742714Y-120223643D01*
X136706429Y-120151071D01*
X136670143Y-120114786D01*
X136597572Y-120078500D01*
X136452429Y-120078500D01*
X136379857Y-120114786D01*
X136343572Y-120151071D01*
X136307286Y-120223643D01*
X133223000Y-124605143D02*
X133186714Y-124641429D01*
X133077857Y-124677714D01*
X133005286Y-124677714D01*
X132896429Y-124641429D01*
X132823857Y-124568857D01*
X132787572Y-124496286D01*
X132751286Y-124351143D01*
X132751286Y-124242286D01*
X132787572Y-124097143D01*
X132823857Y-124024571D01*
X132896429Y-123952000D01*
X133005286Y-123915714D01*
X133077857Y-123915714D01*
X133186714Y-123952000D01*
X133223000Y-123988286D01*
X133477000Y-123915714D02*
X133985000Y-123915714D01*
X133658429Y-124677714D01*
X134620000Y-124605143D02*
X134583714Y-124641429D01*
X134474857Y-124677714D01*
X134402286Y-124677714D01*
X134293429Y-124641429D01*
X134220857Y-124568857D01*
X134184572Y-124496286D01*
X134148286Y-124351143D01*
X134148286Y-124242286D01*
X134184572Y-124097143D01*
X134220857Y-124024571D01*
X134293429Y-123952000D01*
X134402286Y-123915714D01*
X134474857Y-123915714D01*
X134583714Y-123952000D01*
X134620000Y-123988286D01*
X135055429Y-124242286D02*
X134982857Y-124206000D01*
X134946572Y-124169714D01*
X134910286Y-124097143D01*
X134910286Y-124060857D01*
X134946572Y-123988286D01*
X134982857Y-123952000D01*
X135055429Y-123915714D01*
X135200572Y-123915714D01*
X135273143Y-123952000D01*
X135309429Y-123988286D01*
X135345714Y-124060857D01*
X135345714Y-124097143D01*
X135309429Y-124169714D01*
X135273143Y-124206000D01*
X135200572Y-124242286D01*
X135055429Y-124242286D01*
X134982857Y-124278571D01*
X134946572Y-124314857D01*
X134910286Y-124387429D01*
X134910286Y-124532571D01*
X134946572Y-124605143D01*
X134982857Y-124641429D01*
X135055429Y-124677714D01*
X135200572Y-124677714D01*
X135273143Y-124641429D01*
X135309429Y-124605143D01*
X135345714Y-124532571D01*
X135345714Y-124387429D01*
X135309429Y-124314857D01*
X135273143Y-124278571D01*
X135200572Y-124242286D01*
X131699000Y-124605143D02*
X131662714Y-124641429D01*
X131553857Y-124677714D01*
X131481286Y-124677714D01*
X131372429Y-124641429D01*
X131299857Y-124568857D01*
X131263572Y-124496286D01*
X131227286Y-124351143D01*
X131227286Y-124242286D01*
X131263572Y-124097143D01*
X131299857Y-124024571D01*
X131372429Y-123952000D01*
X131481286Y-123915714D01*
X131553857Y-123915714D01*
X131662714Y-123952000D01*
X131699000Y-123988286D01*
X132061857Y-124677714D02*
X132207000Y-124677714D01*
X132279572Y-124641429D01*
X132315857Y-124605143D01*
X132388429Y-124496286D01*
X132424714Y-124351143D01*
X132424714Y-124060857D01*
X132388429Y-123988286D01*
X132352143Y-123952000D01*
X132279572Y-123915714D01*
X132134429Y-123915714D01*
X132061857Y-123952000D01*
X132025572Y-123988286D01*
X131989286Y-124060857D01*
X131989286Y-124242286D01*
X132025572Y-124314857D01*
X132061857Y-124351143D01*
X132134429Y-124387429D01*
X132279572Y-124387429D01*
X132352143Y-124351143D01*
X132388429Y-124314857D01*
X132424714Y-124242286D01*
X141496143Y-112794143D02*
X141459857Y-112830429D01*
X141351000Y-112866714D01*
X141278429Y-112866714D01*
X141169572Y-112830429D01*
X141097000Y-112757857D01*
X141060715Y-112685286D01*
X141024429Y-112540143D01*
X141024429Y-112431286D01*
X141060715Y-112286143D01*
X141097000Y-112213571D01*
X141169572Y-112141000D01*
X141278429Y-112104714D01*
X141351000Y-112104714D01*
X141459857Y-112141000D01*
X141496143Y-112177286D01*
X142221857Y-112866714D02*
X141786429Y-112866714D01*
X142004143Y-112866714D02*
X142004143Y-112104714D01*
X141931572Y-112213571D01*
X141859000Y-112286143D01*
X141786429Y-112322429D01*
X142693571Y-112104714D02*
X142766143Y-112104714D01*
X142838714Y-112141000D01*
X142875000Y-112177286D01*
X142911286Y-112249857D01*
X142947571Y-112395000D01*
X142947571Y-112576429D01*
X142911286Y-112721571D01*
X142875000Y-112794143D01*
X142838714Y-112830429D01*
X142766143Y-112866714D01*
X142693571Y-112866714D01*
X142621000Y-112830429D01*
X142584714Y-112794143D01*
X142548429Y-112721571D01*
X142512143Y-112576429D01*
X142512143Y-112395000D01*
X142548429Y-112249857D01*
X142584714Y-112177286D01*
X142621000Y-112141000D01*
X142693571Y-112104714D01*
X135908143Y-96538143D02*
X135871857Y-96574429D01*
X135763000Y-96610714D01*
X135690429Y-96610714D01*
X135581572Y-96574429D01*
X135509000Y-96501857D01*
X135472715Y-96429286D01*
X135436429Y-96284143D01*
X135436429Y-96175286D01*
X135472715Y-96030143D01*
X135509000Y-95957571D01*
X135581572Y-95885000D01*
X135690429Y-95848714D01*
X135763000Y-95848714D01*
X135871857Y-95885000D01*
X135908143Y-95921286D01*
X136633857Y-96610714D02*
X136198429Y-96610714D01*
X136416143Y-96610714D02*
X136416143Y-95848714D01*
X136343572Y-95957571D01*
X136271000Y-96030143D01*
X136198429Y-96066429D01*
X137359571Y-96610714D02*
X136924143Y-96610714D01*
X137141857Y-96610714D02*
X137141857Y-95848714D01*
X137069286Y-95957571D01*
X136996714Y-96030143D01*
X136924143Y-96066429D01*
X135908143Y-112794143D02*
X135871857Y-112830429D01*
X135763000Y-112866714D01*
X135690429Y-112866714D01*
X135581572Y-112830429D01*
X135509000Y-112757857D01*
X135472715Y-112685286D01*
X135436429Y-112540143D01*
X135436429Y-112431286D01*
X135472715Y-112286143D01*
X135509000Y-112213571D01*
X135581572Y-112141000D01*
X135690429Y-112104714D01*
X135763000Y-112104714D01*
X135871857Y-112141000D01*
X135908143Y-112177286D01*
X136633857Y-112866714D02*
X136198429Y-112866714D01*
X136416143Y-112866714D02*
X136416143Y-112104714D01*
X136343572Y-112213571D01*
X136271000Y-112286143D01*
X136198429Y-112322429D01*
X136924143Y-112177286D02*
X136960429Y-112141000D01*
X137033000Y-112104714D01*
X137214429Y-112104714D01*
X137287000Y-112141000D01*
X137323286Y-112177286D01*
X137359571Y-112249857D01*
X137359571Y-112322429D01*
X137323286Y-112431286D01*
X136887857Y-112866714D01*
X137359571Y-112866714D01*
X133622143Y-116604143D02*
X133585857Y-116640429D01*
X133477000Y-116676714D01*
X133404429Y-116676714D01*
X133295572Y-116640429D01*
X133223000Y-116567857D01*
X133186715Y-116495286D01*
X133150429Y-116350143D01*
X133150429Y-116241286D01*
X133186715Y-116096143D01*
X133223000Y-116023571D01*
X133295572Y-115951000D01*
X133404429Y-115914714D01*
X133477000Y-115914714D01*
X133585857Y-115951000D01*
X133622143Y-115987286D01*
X134347857Y-116676714D02*
X133912429Y-116676714D01*
X134130143Y-116676714D02*
X134130143Y-115914714D01*
X134057572Y-116023571D01*
X133985000Y-116096143D01*
X133912429Y-116132429D01*
X134601857Y-115914714D02*
X135073571Y-115914714D01*
X134819571Y-116205000D01*
X134928429Y-116205000D01*
X135001000Y-116241286D01*
X135037286Y-116277571D01*
X135073571Y-116350143D01*
X135073571Y-116531571D01*
X135037286Y-116604143D01*
X135001000Y-116640429D01*
X134928429Y-116676714D01*
X134710714Y-116676714D01*
X134638143Y-116640429D01*
X134601857Y-116604143D01*
X136779001Y-126582714D02*
X136416144Y-126582714D01*
X136416144Y-125820714D01*
X137432143Y-126582714D02*
X136996715Y-126582714D01*
X137214429Y-126582714D02*
X137214429Y-125820714D01*
X137141858Y-125929571D01*
X137069286Y-126002143D01*
X136996715Y-126038429D01*
X132207000Y-95467714D02*
X131953000Y-95104857D01*
X131771572Y-95467714D02*
X131771572Y-94705714D01*
X132061857Y-94705714D01*
X132134429Y-94742000D01*
X132170714Y-94778286D01*
X132207000Y-94850857D01*
X132207000Y-94959714D01*
X132170714Y-95032286D01*
X132134429Y-95068571D01*
X132061857Y-95104857D01*
X131771572Y-95104857D01*
X132932714Y-95467714D02*
X132497286Y-95467714D01*
X132715000Y-95467714D02*
X132715000Y-94705714D01*
X132642429Y-94814571D01*
X132569857Y-94887143D01*
X132497286Y-94923429D01*
X146304000Y-117184714D02*
X146050000Y-116821857D01*
X145868572Y-117184714D02*
X145868572Y-116422714D01*
X146158857Y-116422714D01*
X146231429Y-116459000D01*
X146267714Y-116495286D01*
X146304000Y-116567857D01*
X146304000Y-116676714D01*
X146267714Y-116749286D01*
X146231429Y-116785571D01*
X146158857Y-116821857D01*
X145868572Y-116821857D01*
X146558000Y-116422714D02*
X147029714Y-116422714D01*
X146775714Y-116713000D01*
X146884572Y-116713000D01*
X146957143Y-116749286D01*
X146993429Y-116785571D01*
X147029714Y-116858143D01*
X147029714Y-117039571D01*
X146993429Y-117112143D01*
X146957143Y-117148429D01*
X146884572Y-117184714D01*
X146666857Y-117184714D01*
X146594286Y-117148429D01*
X146558000Y-117112143D01*
X146304000Y-118454714D02*
X146050000Y-118091857D01*
X145868572Y-118454714D02*
X145868572Y-117692714D01*
X146158857Y-117692714D01*
X146231429Y-117729000D01*
X146267714Y-117765286D01*
X146304000Y-117837857D01*
X146304000Y-117946714D01*
X146267714Y-118019286D01*
X146231429Y-118055571D01*
X146158857Y-118091857D01*
X145868572Y-118091857D01*
X146957143Y-117946714D02*
X146957143Y-118454714D01*
X146775714Y-117656429D02*
X146594286Y-118200714D01*
X147066000Y-118200714D01*
X136017000Y-116676714D02*
X135763000Y-116313857D01*
X135581572Y-116676714D02*
X135581572Y-115914714D01*
X135871857Y-115914714D01*
X135944429Y-115951000D01*
X135980714Y-115987286D01*
X136017000Y-116059857D01*
X136017000Y-116168714D01*
X135980714Y-116241286D01*
X135944429Y-116277571D01*
X135871857Y-116313857D01*
X135581572Y-116313857D01*
X136706429Y-115914714D02*
X136343572Y-115914714D01*
X136307286Y-116277571D01*
X136343572Y-116241286D01*
X136416143Y-116205000D01*
X136597572Y-116205000D01*
X136670143Y-116241286D01*
X136706429Y-116277571D01*
X136742714Y-116350143D01*
X136742714Y-116531571D01*
X136706429Y-116604143D01*
X136670143Y-116640429D01*
X136597572Y-116676714D01*
X136416143Y-116676714D01*
X136343572Y-116640429D01*
X136307286Y-116604143D01*
X133985000Y-120550214D02*
X133731000Y-120187357D01*
X133549572Y-120550214D02*
X133549572Y-119788214D01*
X133839857Y-119788214D01*
X133912429Y-119824500D01*
X133948714Y-119860786D01*
X133985000Y-119933357D01*
X133985000Y-120042214D01*
X133948714Y-120114786D01*
X133912429Y-120151071D01*
X133839857Y-120187357D01*
X133549572Y-120187357D01*
X134638143Y-119788214D02*
X134493000Y-119788214D01*
X134420429Y-119824500D01*
X134384143Y-119860786D01*
X134311572Y-119969643D01*
X134275286Y-120114786D01*
X134275286Y-120405071D01*
X134311572Y-120477643D01*
X134347857Y-120513929D01*
X134420429Y-120550214D01*
X134565572Y-120550214D01*
X134638143Y-120513929D01*
X134674429Y-120477643D01*
X134710714Y-120405071D01*
X134710714Y-120223643D01*
X134674429Y-120151071D01*
X134638143Y-120114786D01*
X134565572Y-120078500D01*
X134420429Y-120078500D01*
X134347857Y-120114786D01*
X134311572Y-120151071D01*
X134275286Y-120223643D01*
X137414000Y-117565714D02*
X137160000Y-117202857D01*
X136978572Y-117565714D02*
X136978572Y-116803714D01*
X137268857Y-116803714D01*
X137341429Y-116840000D01*
X137377714Y-116876286D01*
X137414000Y-116948857D01*
X137414000Y-117057714D01*
X137377714Y-117130286D01*
X137341429Y-117166571D01*
X137268857Y-117202857D01*
X136978572Y-117202857D01*
X137668000Y-116803714D02*
X138176000Y-116803714D01*
X137849429Y-117565714D01*
X131699000Y-116676714D02*
X131445000Y-116313857D01*
X131263572Y-116676714D02*
X131263572Y-115914714D01*
X131553857Y-115914714D01*
X131626429Y-115951000D01*
X131662714Y-115987286D01*
X131699000Y-116059857D01*
X131699000Y-116168714D01*
X131662714Y-116241286D01*
X131626429Y-116277571D01*
X131553857Y-116313857D01*
X131263572Y-116313857D01*
X132134429Y-116241286D02*
X132061857Y-116205000D01*
X132025572Y-116168714D01*
X131989286Y-116096143D01*
X131989286Y-116059857D01*
X132025572Y-115987286D01*
X132061857Y-115951000D01*
X132134429Y-115914714D01*
X132279572Y-115914714D01*
X132352143Y-115951000D01*
X132388429Y-115987286D01*
X132424714Y-116059857D01*
X132424714Y-116096143D01*
X132388429Y-116168714D01*
X132352143Y-116205000D01*
X132279572Y-116241286D01*
X132134429Y-116241286D01*
X132061857Y-116277571D01*
X132025572Y-116313857D01*
X131989286Y-116386429D01*
X131989286Y-116531571D01*
X132025572Y-116604143D01*
X132061857Y-116640429D01*
X132134429Y-116676714D01*
X132279572Y-116676714D01*
X132352143Y-116640429D01*
X132388429Y-116604143D01*
X132424714Y-116531571D01*
X132424714Y-116386429D01*
X132388429Y-116313857D01*
X132352143Y-116277571D01*
X132279572Y-116241286D01*
X141605000Y-106008714D02*
X141351000Y-105645857D01*
X141169572Y-106008714D02*
X141169572Y-105246714D01*
X141459857Y-105246714D01*
X141532429Y-105283000D01*
X141568714Y-105319286D01*
X141605000Y-105391857D01*
X141605000Y-105500714D01*
X141568714Y-105573286D01*
X141532429Y-105609571D01*
X141459857Y-105645857D01*
X141169572Y-105645857D01*
X141967857Y-106008714D02*
X142113000Y-106008714D01*
X142185572Y-105972429D01*
X142221857Y-105936143D01*
X142294429Y-105827286D01*
X142330714Y-105682143D01*
X142330714Y-105391857D01*
X142294429Y-105319286D01*
X142258143Y-105283000D01*
X142185572Y-105246714D01*
X142040429Y-105246714D01*
X141967857Y-105283000D01*
X141931572Y-105319286D01*
X141895286Y-105391857D01*
X141895286Y-105573286D01*
X141931572Y-105645857D01*
X141967857Y-105682143D01*
X142040429Y-105718429D01*
X142185572Y-105718429D01*
X142258143Y-105682143D01*
X142294429Y-105645857D01*
X142330714Y-105573286D01*
X145814143Y-105754714D02*
X145560143Y-105391857D01*
X145378715Y-105754714D02*
X145378715Y-104992714D01*
X145669000Y-104992714D01*
X145741572Y-105029000D01*
X145777857Y-105065286D01*
X145814143Y-105137857D01*
X145814143Y-105246714D01*
X145777857Y-105319286D01*
X145741572Y-105355571D01*
X145669000Y-105391857D01*
X145378715Y-105391857D01*
X146539857Y-105754714D02*
X146104429Y-105754714D01*
X146322143Y-105754714D02*
X146322143Y-104992714D01*
X146249572Y-105101571D01*
X146177000Y-105174143D01*
X146104429Y-105210429D01*
X147011571Y-104992714D02*
X147084143Y-104992714D01*
X147156714Y-105029000D01*
X147193000Y-105065286D01*
X147229286Y-105137857D01*
X147265571Y-105283000D01*
X147265571Y-105464429D01*
X147229286Y-105609571D01*
X147193000Y-105682143D01*
X147156714Y-105718429D01*
X147084143Y-105754714D01*
X147011571Y-105754714D01*
X146939000Y-105718429D01*
X146902714Y-105682143D01*
X146866429Y-105609571D01*
X146830143Y-105464429D01*
X146830143Y-105283000D01*
X146866429Y-105137857D01*
X146902714Y-105065286D01*
X146939000Y-105029000D01*
X147011571Y-104992714D01*
X144362714Y-114789857D02*
X143999857Y-115043857D01*
X144362714Y-115225285D02*
X143600714Y-115225285D01*
X143600714Y-114935000D01*
X143637000Y-114862428D01*
X143673286Y-114826143D01*
X143745857Y-114789857D01*
X143854714Y-114789857D01*
X143927286Y-114826143D01*
X143963571Y-114862428D01*
X143999857Y-114935000D01*
X143999857Y-115225285D01*
X144362714Y-114064143D02*
X144362714Y-114499571D01*
X144362714Y-114281857D02*
X143600714Y-114281857D01*
X143709571Y-114354428D01*
X143782143Y-114427000D01*
X143818429Y-114499571D01*
X144362714Y-113338429D02*
X144362714Y-113773857D01*
X144362714Y-113556143D02*
X143600714Y-113556143D01*
X143709571Y-113628714D01*
X143782143Y-113701286D01*
X143818429Y-113773857D01*
X147410714Y-114789857D02*
X147047857Y-115043857D01*
X147410714Y-115225285D02*
X146648714Y-115225285D01*
X146648714Y-114935000D01*
X146685000Y-114862428D01*
X146721286Y-114826143D01*
X146793857Y-114789857D01*
X146902714Y-114789857D01*
X146975286Y-114826143D01*
X147011571Y-114862428D01*
X147047857Y-114935000D01*
X147047857Y-115225285D01*
X147410714Y-114064143D02*
X147410714Y-114499571D01*
X147410714Y-114281857D02*
X146648714Y-114281857D01*
X146757571Y-114354428D01*
X146830143Y-114427000D01*
X146866429Y-114499571D01*
X146721286Y-113773857D02*
X146685000Y-113737571D01*
X146648714Y-113665000D01*
X146648714Y-113483571D01*
X146685000Y-113411000D01*
X146721286Y-113374714D01*
X146793857Y-113338429D01*
X146866429Y-113338429D01*
X146975286Y-113374714D01*
X147410714Y-113810143D01*
X147410714Y-113338429D01*
X135146143Y-106262714D02*
X134892143Y-105899857D01*
X134710715Y-106262714D02*
X134710715Y-105500714D01*
X135001000Y-105500714D01*
X135073572Y-105537000D01*
X135109857Y-105573286D01*
X135146143Y-105645857D01*
X135146143Y-105754714D01*
X135109857Y-105827286D01*
X135073572Y-105863571D01*
X135001000Y-105899857D01*
X134710715Y-105899857D01*
X135871857Y-106262714D02*
X135436429Y-106262714D01*
X135654143Y-106262714D02*
X135654143Y-105500714D01*
X135581572Y-105609571D01*
X135509000Y-105682143D01*
X135436429Y-105718429D01*
X136525000Y-105754714D02*
X136525000Y-106262714D01*
X136343571Y-105464429D02*
X136162143Y-106008714D01*
X136633857Y-106008714D01*
X135146143Y-107278714D02*
X134892143Y-106915857D01*
X134710715Y-107278714D02*
X134710715Y-106516714D01*
X135001000Y-106516714D01*
X135073572Y-106553000D01*
X135109857Y-106589286D01*
X135146143Y-106661857D01*
X135146143Y-106770714D01*
X135109857Y-106843286D01*
X135073572Y-106879571D01*
X135001000Y-106915857D01*
X134710715Y-106915857D01*
X135871857Y-107278714D02*
X135436429Y-107278714D01*
X135654143Y-107278714D02*
X135654143Y-106516714D01*
X135581572Y-106625571D01*
X135509000Y-106698143D01*
X135436429Y-106734429D01*
X136561286Y-106516714D02*
X136198429Y-106516714D01*
X136162143Y-106879571D01*
X136198429Y-106843286D01*
X136271000Y-106807000D01*
X136452429Y-106807000D01*
X136525000Y-106843286D01*
X136561286Y-106879571D01*
X136597571Y-106952143D01*
X136597571Y-107133571D01*
X136561286Y-107206143D01*
X136525000Y-107242429D01*
X136452429Y-107278714D01*
X136271000Y-107278714D01*
X136198429Y-107242429D01*
X136162143Y-107206143D01*
X135146143Y-108294714D02*
X134892143Y-107931857D01*
X134710715Y-108294714D02*
X134710715Y-107532714D01*
X135001000Y-107532714D01*
X135073572Y-107569000D01*
X135109857Y-107605286D01*
X135146143Y-107677857D01*
X135146143Y-107786714D01*
X135109857Y-107859286D01*
X135073572Y-107895571D01*
X135001000Y-107931857D01*
X134710715Y-107931857D01*
X135871857Y-108294714D02*
X135436429Y-108294714D01*
X135654143Y-108294714D02*
X135654143Y-107532714D01*
X135581572Y-107641571D01*
X135509000Y-107714143D01*
X135436429Y-107750429D01*
X136525000Y-107532714D02*
X136379857Y-107532714D01*
X136307286Y-107569000D01*
X136271000Y-107605286D01*
X136198429Y-107714143D01*
X136162143Y-107859286D01*
X136162143Y-108149571D01*
X136198429Y-108222143D01*
X136234714Y-108258429D01*
X136307286Y-108294714D01*
X136452429Y-108294714D01*
X136525000Y-108258429D01*
X136561286Y-108222143D01*
X136597571Y-108149571D01*
X136597571Y-107968143D01*
X136561286Y-107895571D01*
X136525000Y-107859286D01*
X136452429Y-107823000D01*
X136307286Y-107823000D01*
X136234714Y-107859286D01*
X136198429Y-107895571D01*
X136162143Y-107968143D01*
X138103429Y-111469714D02*
X138103429Y-112086571D01*
X138139714Y-112159143D01*
X138176000Y-112195429D01*
X138248571Y-112231714D01*
X138393714Y-112231714D01*
X138466286Y-112195429D01*
X138502571Y-112159143D01*
X138538857Y-112086571D01*
X138538857Y-111469714D01*
X138829143Y-111469714D02*
X139300857Y-111469714D01*
X139046857Y-111760000D01*
X139155715Y-111760000D01*
X139228286Y-111796286D01*
X139264572Y-111832571D01*
X139300857Y-111905143D01*
X139300857Y-112086571D01*
X139264572Y-112159143D01*
X139228286Y-112195429D01*
X139155715Y-112231714D01*
X138938000Y-112231714D01*
X138865429Y-112195429D01*
X138829143Y-112159143D01*
X139119429Y-104992714D02*
X139119429Y-105609571D01*
X139155714Y-105682143D01*
X139192000Y-105718429D01*
X139264571Y-105754714D01*
X139409714Y-105754714D01*
X139482286Y-105718429D01*
X139518571Y-105682143D01*
X139554857Y-105609571D01*
X139554857Y-104992714D01*
X140244286Y-105246714D02*
X140244286Y-105754714D01*
X140062857Y-104956429D02*
X139881429Y-105500714D01*
X140353143Y-105500714D01*
X136833429Y-103468714D02*
X136833429Y-104085571D01*
X136869714Y-104158143D01*
X136906000Y-104194429D01*
X136978571Y-104230714D01*
X137123714Y-104230714D01*
X137196286Y-104194429D01*
X137232571Y-104158143D01*
X137268857Y-104085571D01*
X137268857Y-103468714D01*
X137994572Y-103468714D02*
X137631715Y-103468714D01*
X137595429Y-103831571D01*
X137631715Y-103795286D01*
X137704286Y-103759000D01*
X137885715Y-103759000D01*
X137958286Y-103795286D01*
X137994572Y-103831571D01*
X138030857Y-103904143D01*
X138030857Y-104085571D01*
X137994572Y-104158143D01*
X137958286Y-104194429D01*
X137885715Y-104230714D01*
X137704286Y-104230714D01*
X137631715Y-104194429D01*
X137595429Y-104158143D01*
X134964714Y-100910571D02*
X135581571Y-100910571D01*
X135654143Y-100874286D01*
X135690429Y-100838000D01*
X135726714Y-100765429D01*
X135726714Y-100620286D01*
X135690429Y-100547714D01*
X135654143Y-100511429D01*
X135581571Y-100475143D01*
X134964714Y-100475143D01*
X134964714Y-99785714D02*
X134964714Y-99930857D01*
X135001000Y-100003428D01*
X135037286Y-100039714D01*
X135146143Y-100112285D01*
X135291286Y-100148571D01*
X135581571Y-100148571D01*
X135654143Y-100112285D01*
X135690429Y-100076000D01*
X135726714Y-100003428D01*
X135726714Y-99858285D01*
X135690429Y-99785714D01*
X135654143Y-99749428D01*
X135581571Y-99713143D01*
X135400143Y-99713143D01*
X135327571Y-99749428D01*
X135291286Y-99785714D01*
X135255000Y-99858285D01*
X135255000Y-100003428D01*
X135291286Y-100076000D01*
X135327571Y-100112285D01*
X135400143Y-100148571D01*
X131499429Y-105246714D02*
X131499429Y-105863571D01*
X131535714Y-105936143D01*
X131572000Y-105972429D01*
X131644571Y-106008714D01*
X131789714Y-106008714D01*
X131862286Y-105972429D01*
X131898571Y-105936143D01*
X131934857Y-105863571D01*
X131934857Y-105246714D01*
X132225143Y-105246714D02*
X132733143Y-105246714D01*
X132406572Y-106008714D01*
X142169429Y-87591414D02*
X142169429Y-88208271D01*
X142205714Y-88280843D01*
X142242000Y-88317129D01*
X142314571Y-88353414D01*
X142459714Y-88353414D01*
X142532286Y-88317129D01*
X142568571Y-88280843D01*
X142604857Y-88208271D01*
X142604857Y-87591414D01*
X143366857Y-88353414D02*
X142931429Y-88353414D01*
X143149143Y-88353414D02*
X143149143Y-87591414D01*
X143076572Y-87700271D01*
X143004000Y-87772843D01*
X142931429Y-87809129D01*
X141024429Y-116793114D02*
X141024429Y-117409971D01*
X141060714Y-117482543D01*
X141097000Y-117518829D01*
X141169571Y-117555114D01*
X141314714Y-117555114D01*
X141387286Y-117518829D01*
X141423571Y-117482543D01*
X141459857Y-117409971D01*
X141459857Y-116793114D01*
X141786429Y-116865686D02*
X141822715Y-116829400D01*
X141895286Y-116793114D01*
X142076715Y-116793114D01*
X142149286Y-116829400D01*
X142185572Y-116865686D01*
X142221857Y-116938257D01*
X142221857Y-117010829D01*
X142185572Y-117119686D01*
X141750143Y-117555114D01*
X142221857Y-117555114D01*
X146757572Y-112434914D02*
X146757572Y-111672914D01*
X146939000Y-111672914D01*
X147047857Y-111709200D01*
X147120429Y-111781771D01*
X147156714Y-111854343D01*
X147193000Y-111999486D01*
X147193000Y-112108343D01*
X147156714Y-112253486D01*
X147120429Y-112326057D01*
X147047857Y-112398629D01*
X146939000Y-112434914D01*
X146757572Y-112434914D01*
X147483286Y-111745486D02*
X147519572Y-111709200D01*
X147592143Y-111672914D01*
X147773572Y-111672914D01*
X147846143Y-111709200D01*
X147882429Y-111745486D01*
X147918714Y-111818057D01*
X147918714Y-111890629D01*
X147882429Y-111999486D01*
X147447000Y-112434914D01*
X147918714Y-112434914D01*
X135352972Y-105221314D02*
X135352972Y-104459314D01*
X135534400Y-104459314D01*
X135643257Y-104495600D01*
X135715829Y-104568171D01*
X135752114Y-104640743D01*
X135788400Y-104785886D01*
X135788400Y-104894743D01*
X135752114Y-105039886D01*
X135715829Y-105112457D01*
X135643257Y-105185029D01*
X135534400Y-105221314D01*
X135352972Y-105221314D01*
X136514114Y-105221314D02*
X136078686Y-105221314D01*
X136296400Y-105221314D02*
X136296400Y-104459314D01*
X136223829Y-104568171D01*
X136151257Y-104640743D01*
X136078686Y-104677029D01*
M02*
