G04 #@! TF.FileFunction,Copper,L2,Bot,Signal*
%FSLAX46Y46*%
G04 Gerber Fmt 4.6, Leading zero omitted, Abs format (unit mm)*
G04 Created by KiCad (PCBNEW 4.0.4-stable) date Tuesday, March 07, 2017 'PMt' 02:08:38 PM*
%MOMM*%
%LPD*%
G01*
G04 APERTURE LIST*
%ADD10C,0.100000*%
%ADD11R,1.524000X1.524000*%
%ADD12C,1.524000*%
%ADD13R,1.016000X1.016000*%
%ADD14C,1.016000*%
%ADD15C,0.635000*%
%ADD16C,0.203200*%
%ADD17C,0.508000*%
G04 APERTURE END LIST*
D10*
D11*
X132334000Y-114808000D03*
D12*
X132334000Y-112808000D03*
D11*
X140716000Y-125730000D03*
D12*
X138716000Y-125730000D03*
D13*
X135890000Y-89916000D03*
D14*
X134620000Y-89916000D03*
X135890000Y-91186000D03*
X134620000Y-91186000D03*
X135890000Y-92456000D03*
X134620000Y-92456000D03*
X135890000Y-93726000D03*
X134620000Y-93726000D03*
X135890000Y-94996000D03*
X134620000Y-94996000D03*
D15*
X145796000Y-103759000D03*
X144780000Y-94996000D03*
X138942000Y-93408000D03*
X140716000Y-89814400D03*
X140450000Y-122428000D03*
X138950000Y-122428000D03*
X139700000Y-120178000D03*
X131673600Y-101422200D03*
X141478000Y-115051840D03*
X145023840Y-116840000D03*
X145542000Y-115051840D03*
X132080000Y-122872500D03*
X133360160Y-119126000D03*
X133360160Y-117475000D03*
X139700000Y-108712000D03*
X138942000Y-103008000D03*
X132250000Y-103016000D03*
X136652000Y-98806000D03*
X142494000Y-116205000D03*
X142494000Y-121031000D03*
X140741400Y-96621600D03*
X140716000Y-91211400D03*
X142367000Y-96647000D03*
X133502400Y-94132400D03*
X143027400Y-95808800D03*
X133324600Y-95834200D03*
X131900000Y-97790000D03*
X131902200Y-94970600D03*
X137718800Y-106629200D03*
X131888000Y-106912000D03*
X137160000Y-112141000D03*
X140843000Y-101727000D03*
X140843000Y-112141000D03*
X132250000Y-100616000D03*
X133375400Y-101650800D03*
X136525000Y-97599500D03*
X140843000Y-97663000D03*
X146126200Y-106908600D03*
X146151600Y-108966000D03*
X144932400Y-101803200D03*
X144272000Y-115824000D03*
X142036800Y-105791000D03*
X139852400Y-100609400D03*
X143266160Y-107188000D03*
X135798000Y-101306000D03*
X133350000Y-99568000D03*
X138938000Y-99822000D03*
X146792000Y-96608000D03*
X146558000Y-113538000D03*
D16*
X139928600Y-89027000D02*
X140716000Y-89814400D01*
X135102600Y-89027000D02*
X139928600Y-89027000D01*
X135102600Y-89027000D02*
X134620000Y-89509600D01*
X134620000Y-89916000D02*
X134620000Y-89509600D01*
X138963400Y-122428000D02*
X138938000Y-122428000D01*
X138950000Y-122428000D02*
X138963400Y-122428000D01*
D17*
X142494000Y-121031000D02*
X142494000Y-116205000D01*
D16*
X140741400Y-96621600D02*
X142341600Y-96621600D01*
X142341600Y-96621600D02*
X142367000Y-96647000D01*
X140716000Y-91211400D02*
X135915400Y-91211400D01*
X135915400Y-91211400D02*
X135890000Y-91186000D01*
X133858000Y-91186000D02*
X134620000Y-91186000D01*
X133502400Y-91541600D02*
X133858000Y-91186000D01*
X133502400Y-94132400D02*
X133502400Y-91541600D01*
X143027400Y-95808800D02*
X133350000Y-95808800D01*
X133350000Y-95808800D02*
X133324600Y-95834200D01*
X131900000Y-97790000D02*
X131900000Y-94972800D01*
X132090500Y-97599500D02*
X131900000Y-97790000D01*
X136525000Y-97599500D02*
X132090500Y-97599500D01*
X131900000Y-94972800D02*
X131902200Y-94970600D01*
X137718800Y-106629200D02*
X140843000Y-106629200D01*
D17*
X137117000Y-112141000D02*
X137160000Y-112141000D01*
X131888000Y-106912000D02*
X137117000Y-112141000D01*
X140843000Y-112141000D02*
X140843000Y-106629200D01*
X140843000Y-106629200D02*
X140843000Y-101727000D01*
D16*
X132340600Y-100616000D02*
X133375400Y-101650800D01*
X132340600Y-100616000D02*
X132250000Y-100616000D01*
D17*
X136588500Y-97663000D02*
X136525000Y-97599500D01*
X136588500Y-97663000D02*
X140843000Y-97663000D01*
D16*
X146126200Y-108940600D02*
X146126200Y-106908600D01*
X146151600Y-108966000D02*
X146126200Y-108940600D01*
X144272000Y-107823000D02*
X144932400Y-107162600D01*
X144272000Y-115824000D02*
X144272000Y-107823000D01*
X144932400Y-107162600D02*
X144932400Y-101803200D01*
X141274800Y-100609400D02*
X139852400Y-100609400D01*
X142036800Y-101371400D02*
X141274800Y-100609400D01*
X142036800Y-101371400D02*
X142036800Y-105791000D01*
X141782800Y-99822000D02*
X138938000Y-99822000D01*
X143266160Y-101305360D02*
X141782800Y-99822000D01*
X143266160Y-107188000D02*
X143266160Y-101305360D01*
X138938000Y-99822000D02*
X137282000Y-99822000D01*
X137282000Y-99822000D02*
X135798000Y-101306000D01*
X138938000Y-99822000D02*
X133604000Y-99822000D01*
X133604000Y-99822000D02*
X133350000Y-99568000D01*
X146792000Y-113304000D02*
X146558000Y-113538000D01*
X146792000Y-113304000D02*
X146792000Y-96608000D01*
G36*
X140363035Y-91738653D02*
X140591674Y-91833592D01*
X140839240Y-91833808D01*
X141068044Y-91739268D01*
X141122400Y-91685007D01*
X141122400Y-94234000D01*
X141130405Y-94273528D01*
X141153157Y-94306828D01*
X141187073Y-94328652D01*
X141224000Y-94335600D01*
X147956200Y-94335600D01*
X147956200Y-126620200D01*
X141759304Y-126620200D01*
X141764287Y-126612907D01*
X141788771Y-126492000D01*
X141788771Y-124968000D01*
X141767518Y-124855048D01*
X141700763Y-124751308D01*
X141598907Y-124681713D01*
X141478000Y-124657229D01*
X139954000Y-124657229D01*
X139841048Y-124678482D01*
X139737308Y-124745237D01*
X139667713Y-124847093D01*
X139643229Y-124968000D01*
X139643229Y-125180497D01*
X139620916Y-125126496D01*
X139321083Y-124826138D01*
X138929131Y-124663385D01*
X138504731Y-124663015D01*
X138112496Y-124825084D01*
X137812138Y-125124917D01*
X137649385Y-125516869D01*
X137649015Y-125941269D01*
X137811084Y-126333504D01*
X138097279Y-126620200D01*
X131443800Y-126620200D01*
X131443800Y-116328240D01*
X141871592Y-116328240D01*
X141935200Y-116482183D01*
X141935200Y-120754009D01*
X141871808Y-120906674D01*
X141871592Y-121154240D01*
X141966132Y-121383044D01*
X142141035Y-121558253D01*
X142369674Y-121653192D01*
X142617240Y-121653408D01*
X142846044Y-121558868D01*
X143021253Y-121383965D01*
X143116192Y-121155326D01*
X143116408Y-120907760D01*
X143052800Y-120753817D01*
X143052800Y-116481991D01*
X143116192Y-116329326D01*
X143116408Y-116081760D01*
X143060826Y-115947240D01*
X143649592Y-115947240D01*
X143744132Y-116176044D01*
X143919035Y-116351253D01*
X144147674Y-116446192D01*
X144395240Y-116446408D01*
X144624044Y-116351868D01*
X144799253Y-116176965D01*
X144894192Y-115948326D01*
X144894408Y-115700760D01*
X144799868Y-115471956D01*
X144678400Y-115350275D01*
X144678400Y-107991336D01*
X145219768Y-107449968D01*
X145226928Y-107439253D01*
X145307865Y-107318123D01*
X145338800Y-107162600D01*
X145338800Y-107031840D01*
X145503792Y-107031840D01*
X145598332Y-107260644D01*
X145719800Y-107382325D01*
X145719800Y-108517749D01*
X145624347Y-108613035D01*
X145529408Y-108841674D01*
X145529192Y-109089240D01*
X145623732Y-109318044D01*
X145798635Y-109493253D01*
X146027274Y-109588192D01*
X146274840Y-109588408D01*
X146385600Y-109542643D01*
X146385600Y-112935905D01*
X146205956Y-113010132D01*
X146030747Y-113185035D01*
X145935808Y-113413674D01*
X145935592Y-113661240D01*
X146030132Y-113890044D01*
X146205035Y-114065253D01*
X146433674Y-114160192D01*
X146681240Y-114160408D01*
X146910044Y-114065868D01*
X147085253Y-113890965D01*
X147180192Y-113662326D01*
X147180408Y-113414760D01*
X147177681Y-113408161D01*
X147198400Y-113304000D01*
X147198400Y-97081607D01*
X147319253Y-96960965D01*
X147414192Y-96732326D01*
X147414408Y-96484760D01*
X147319868Y-96255956D01*
X147144965Y-96080747D01*
X146916326Y-95985808D01*
X146668760Y-95985592D01*
X146439956Y-96080132D01*
X146264747Y-96255035D01*
X146169808Y-96483674D01*
X146169592Y-96731240D01*
X146264132Y-96960044D01*
X146385600Y-97081725D01*
X146385600Y-106342496D01*
X146250526Y-106286408D01*
X146002960Y-106286192D01*
X145774156Y-106380732D01*
X145598947Y-106555635D01*
X145504008Y-106784274D01*
X145503792Y-107031840D01*
X145338800Y-107031840D01*
X145338800Y-102276807D01*
X145459653Y-102156165D01*
X145554592Y-101927526D01*
X145554808Y-101679960D01*
X145460268Y-101451156D01*
X145285365Y-101275947D01*
X145056726Y-101181008D01*
X144809160Y-101180792D01*
X144580356Y-101275332D01*
X144405147Y-101450235D01*
X144310208Y-101678874D01*
X144309992Y-101926440D01*
X144404532Y-102155244D01*
X144526000Y-102276925D01*
X144526000Y-106994264D01*
X143984632Y-107535632D01*
X143896535Y-107667477D01*
X143865600Y-107823000D01*
X143865600Y-115350393D01*
X143744747Y-115471035D01*
X143649808Y-115699674D01*
X143649592Y-115947240D01*
X143060826Y-115947240D01*
X143021868Y-115852956D01*
X142846965Y-115677747D01*
X142618326Y-115582808D01*
X142370760Y-115582592D01*
X142141956Y-115677132D01*
X141966747Y-115852035D01*
X141871808Y-116080674D01*
X141871592Y-116328240D01*
X131443800Y-116328240D01*
X131443800Y-116176724D01*
X131450743Y-116179600D01*
X132029200Y-116179600D01*
X132181600Y-116027200D01*
X132181600Y-114960400D01*
X132486400Y-114960400D01*
X132486400Y-116027200D01*
X132638800Y-116179600D01*
X133217257Y-116179600D01*
X133441311Y-116086794D01*
X133612794Y-115915311D01*
X133705600Y-115691257D01*
X133705600Y-115112800D01*
X133553200Y-114960400D01*
X132486400Y-114960400D01*
X132181600Y-114960400D01*
X132161600Y-114960400D01*
X132161600Y-114655600D01*
X132181600Y-114655600D01*
X132181600Y-114635600D01*
X132486400Y-114635600D01*
X132486400Y-114655600D01*
X133553200Y-114655600D01*
X133705600Y-114503200D01*
X133705600Y-113924743D01*
X133612794Y-113700689D01*
X133441311Y-113529206D01*
X133217257Y-113436400D01*
X133214504Y-113436400D01*
X133237862Y-113413083D01*
X133400615Y-113021131D01*
X133400985Y-112596731D01*
X133238916Y-112204496D01*
X132939083Y-111904138D01*
X132547131Y-111741385D01*
X132122731Y-111741015D01*
X131730496Y-111903084D01*
X131443800Y-112189279D01*
X131443800Y-107347858D01*
X131535035Y-107439253D01*
X131688868Y-107503130D01*
X136599284Y-112413546D01*
X136632132Y-112493044D01*
X136807035Y-112668253D01*
X137035674Y-112763192D01*
X137283240Y-112763408D01*
X137512044Y-112668868D01*
X137687253Y-112493965D01*
X137782192Y-112265326D01*
X137782408Y-112017760D01*
X137687868Y-111788956D01*
X137512965Y-111613747D01*
X137285598Y-111519336D01*
X132518702Y-106752440D01*
X137096392Y-106752440D01*
X137190932Y-106981244D01*
X137365835Y-107156453D01*
X137594474Y-107251392D01*
X137842040Y-107251608D01*
X138070844Y-107157068D01*
X138192525Y-107035600D01*
X140284200Y-107035600D01*
X140284200Y-111864009D01*
X140220808Y-112016674D01*
X140220592Y-112264240D01*
X140315132Y-112493044D01*
X140490035Y-112668253D01*
X140718674Y-112763192D01*
X140966240Y-112763408D01*
X141195044Y-112668868D01*
X141370253Y-112493965D01*
X141465192Y-112265326D01*
X141465408Y-112017760D01*
X141401800Y-111863817D01*
X141401800Y-102003991D01*
X141465192Y-101851326D01*
X141465408Y-101603760D01*
X141370868Y-101374956D01*
X141195965Y-101199747D01*
X140967326Y-101104808D01*
X140719760Y-101104592D01*
X140490956Y-101199132D01*
X140315747Y-101374035D01*
X140220808Y-101602674D01*
X140220592Y-101850240D01*
X140284200Y-102004183D01*
X140284200Y-106222800D01*
X138192407Y-106222800D01*
X138071765Y-106101947D01*
X137843126Y-106007008D01*
X137595560Y-106006792D01*
X137366756Y-106101332D01*
X137191547Y-106276235D01*
X137096608Y-106504874D01*
X137096392Y-106752440D01*
X132518702Y-106752440D01*
X132478994Y-106712732D01*
X132415868Y-106559956D01*
X132240965Y-106384747D01*
X132012326Y-106289808D01*
X131764760Y-106289592D01*
X131535956Y-106384132D01*
X131443800Y-106476127D01*
X131443800Y-100739240D01*
X131627592Y-100739240D01*
X131722132Y-100968044D01*
X131897035Y-101143253D01*
X132125674Y-101238192D01*
X132373240Y-101238408D01*
X132383877Y-101234013D01*
X132753141Y-101603277D01*
X132752992Y-101774040D01*
X132847532Y-102002844D01*
X133022435Y-102178053D01*
X133251074Y-102272992D01*
X133498640Y-102273208D01*
X133727444Y-102178668D01*
X133902653Y-102003765D01*
X133997592Y-101775126D01*
X133997808Y-101527560D01*
X133903268Y-101298756D01*
X133728365Y-101123547D01*
X133499726Y-101028608D01*
X133327794Y-101028458D01*
X132872338Y-100573002D01*
X132872408Y-100492760D01*
X132777868Y-100263956D01*
X132602965Y-100088747D01*
X132374326Y-99993808D01*
X132126760Y-99993592D01*
X131897956Y-100088132D01*
X131722747Y-100263035D01*
X131627808Y-100491674D01*
X131627592Y-100739240D01*
X131443800Y-100739240D01*
X131443800Y-99691240D01*
X132727592Y-99691240D01*
X132822132Y-99920044D01*
X132997035Y-100095253D01*
X133225674Y-100190192D01*
X133437869Y-100190377D01*
X133448477Y-100197465D01*
X133604000Y-100228400D01*
X136300864Y-100228400D01*
X135845523Y-100683741D01*
X135674760Y-100683592D01*
X135445956Y-100778132D01*
X135270747Y-100953035D01*
X135175808Y-101181674D01*
X135175592Y-101429240D01*
X135270132Y-101658044D01*
X135445035Y-101833253D01*
X135673674Y-101928192D01*
X135921240Y-101928408D01*
X136150044Y-101833868D01*
X136325253Y-101658965D01*
X136420192Y-101430326D01*
X136420342Y-101258394D01*
X137450336Y-100228400D01*
X138464393Y-100228400D01*
X138585035Y-100349253D01*
X138813674Y-100444192D01*
X139061240Y-100444408D01*
X139285585Y-100351710D01*
X139230208Y-100485074D01*
X139229992Y-100732640D01*
X139324532Y-100961444D01*
X139499435Y-101136653D01*
X139728074Y-101231592D01*
X139975640Y-101231808D01*
X140204444Y-101137268D01*
X140326125Y-101015800D01*
X141106464Y-101015800D01*
X141630400Y-101539736D01*
X141630400Y-105317393D01*
X141509547Y-105438035D01*
X141414608Y-105666674D01*
X141414392Y-105914240D01*
X141508932Y-106143044D01*
X141683835Y-106318253D01*
X141912474Y-106413192D01*
X142160040Y-106413408D01*
X142388844Y-106318868D01*
X142564053Y-106143965D01*
X142658992Y-105915326D01*
X142659208Y-105667760D01*
X142564668Y-105438956D01*
X142443200Y-105317275D01*
X142443200Y-101371400D01*
X142412265Y-101215877D01*
X142324168Y-101084032D01*
X141562168Y-100322032D01*
X141430323Y-100233935D01*
X141402496Y-100228400D01*
X141614464Y-100228400D01*
X142859760Y-101473696D01*
X142859760Y-106714393D01*
X142738907Y-106835035D01*
X142643968Y-107063674D01*
X142643752Y-107311240D01*
X142738292Y-107540044D01*
X142913195Y-107715253D01*
X143141834Y-107810192D01*
X143389400Y-107810408D01*
X143618204Y-107715868D01*
X143793413Y-107540965D01*
X143888352Y-107312326D01*
X143888568Y-107064760D01*
X143794028Y-106835956D01*
X143672560Y-106714275D01*
X143672560Y-101305360D01*
X143641625Y-101149837D01*
X143553528Y-101017992D01*
X142070168Y-99534632D01*
X141938323Y-99446535D01*
X141782800Y-99415600D01*
X139411607Y-99415600D01*
X139290965Y-99294747D01*
X139062326Y-99199808D01*
X138814760Y-99199592D01*
X138585956Y-99294132D01*
X138464275Y-99415600D01*
X133960359Y-99415600D01*
X133877868Y-99215956D01*
X133702965Y-99040747D01*
X133474326Y-98945808D01*
X133226760Y-98945592D01*
X132997956Y-99040132D01*
X132822747Y-99215035D01*
X132727808Y-99443674D01*
X132727592Y-99691240D01*
X131443800Y-99691240D01*
X131443800Y-98213837D01*
X131547035Y-98317253D01*
X131775674Y-98412192D01*
X132023240Y-98412408D01*
X132252044Y-98317868D01*
X132427253Y-98142965D01*
X132484167Y-98005900D01*
X136051393Y-98005900D01*
X136172035Y-98126753D01*
X136400674Y-98221692D01*
X136648240Y-98221908D01*
X136648501Y-98221800D01*
X140566009Y-98221800D01*
X140718674Y-98285192D01*
X140966240Y-98285408D01*
X141195044Y-98190868D01*
X141370253Y-98015965D01*
X141465192Y-97787326D01*
X141465408Y-97539760D01*
X141370868Y-97310956D01*
X141195965Y-97135747D01*
X141133268Y-97109713D01*
X141215125Y-97028000D01*
X141868037Y-97028000D01*
X142014035Y-97174253D01*
X142242674Y-97269192D01*
X142490240Y-97269408D01*
X142719044Y-97174868D01*
X142894253Y-96999965D01*
X142989192Y-96771326D01*
X142989408Y-96523760D01*
X142951094Y-96431034D01*
X143150640Y-96431208D01*
X143379444Y-96336668D01*
X143554653Y-96161765D01*
X143649592Y-95933126D01*
X143649808Y-95685560D01*
X143555268Y-95456756D01*
X143380365Y-95281547D01*
X143151726Y-95186608D01*
X142904160Y-95186392D01*
X142675356Y-95280932D01*
X142553675Y-95402400D01*
X136601335Y-95402400D01*
X136702659Y-95158385D01*
X136702941Y-94835033D01*
X136579460Y-94536187D01*
X136404474Y-94360895D01*
X136578657Y-94187016D01*
X136702659Y-93888385D01*
X136702941Y-93565033D01*
X136579460Y-93266187D01*
X136404474Y-93090895D01*
X136578657Y-92917016D01*
X136702659Y-92618385D01*
X136702941Y-92295033D01*
X136579460Y-91996187D01*
X136404474Y-91820895D01*
X136578657Y-91647016D01*
X136590789Y-91617800D01*
X140242393Y-91617800D01*
X140363035Y-91738653D01*
X140363035Y-91738653D01*
G37*
X140363035Y-91738653D02*
X140591674Y-91833592D01*
X140839240Y-91833808D01*
X141068044Y-91739268D01*
X141122400Y-91685007D01*
X141122400Y-94234000D01*
X141130405Y-94273528D01*
X141153157Y-94306828D01*
X141187073Y-94328652D01*
X141224000Y-94335600D01*
X147956200Y-94335600D01*
X147956200Y-126620200D01*
X141759304Y-126620200D01*
X141764287Y-126612907D01*
X141788771Y-126492000D01*
X141788771Y-124968000D01*
X141767518Y-124855048D01*
X141700763Y-124751308D01*
X141598907Y-124681713D01*
X141478000Y-124657229D01*
X139954000Y-124657229D01*
X139841048Y-124678482D01*
X139737308Y-124745237D01*
X139667713Y-124847093D01*
X139643229Y-124968000D01*
X139643229Y-125180497D01*
X139620916Y-125126496D01*
X139321083Y-124826138D01*
X138929131Y-124663385D01*
X138504731Y-124663015D01*
X138112496Y-124825084D01*
X137812138Y-125124917D01*
X137649385Y-125516869D01*
X137649015Y-125941269D01*
X137811084Y-126333504D01*
X138097279Y-126620200D01*
X131443800Y-126620200D01*
X131443800Y-116328240D01*
X141871592Y-116328240D01*
X141935200Y-116482183D01*
X141935200Y-120754009D01*
X141871808Y-120906674D01*
X141871592Y-121154240D01*
X141966132Y-121383044D01*
X142141035Y-121558253D01*
X142369674Y-121653192D01*
X142617240Y-121653408D01*
X142846044Y-121558868D01*
X143021253Y-121383965D01*
X143116192Y-121155326D01*
X143116408Y-120907760D01*
X143052800Y-120753817D01*
X143052800Y-116481991D01*
X143116192Y-116329326D01*
X143116408Y-116081760D01*
X143060826Y-115947240D01*
X143649592Y-115947240D01*
X143744132Y-116176044D01*
X143919035Y-116351253D01*
X144147674Y-116446192D01*
X144395240Y-116446408D01*
X144624044Y-116351868D01*
X144799253Y-116176965D01*
X144894192Y-115948326D01*
X144894408Y-115700760D01*
X144799868Y-115471956D01*
X144678400Y-115350275D01*
X144678400Y-107991336D01*
X145219768Y-107449968D01*
X145226928Y-107439253D01*
X145307865Y-107318123D01*
X145338800Y-107162600D01*
X145338800Y-107031840D01*
X145503792Y-107031840D01*
X145598332Y-107260644D01*
X145719800Y-107382325D01*
X145719800Y-108517749D01*
X145624347Y-108613035D01*
X145529408Y-108841674D01*
X145529192Y-109089240D01*
X145623732Y-109318044D01*
X145798635Y-109493253D01*
X146027274Y-109588192D01*
X146274840Y-109588408D01*
X146385600Y-109542643D01*
X146385600Y-112935905D01*
X146205956Y-113010132D01*
X146030747Y-113185035D01*
X145935808Y-113413674D01*
X145935592Y-113661240D01*
X146030132Y-113890044D01*
X146205035Y-114065253D01*
X146433674Y-114160192D01*
X146681240Y-114160408D01*
X146910044Y-114065868D01*
X147085253Y-113890965D01*
X147180192Y-113662326D01*
X147180408Y-113414760D01*
X147177681Y-113408161D01*
X147198400Y-113304000D01*
X147198400Y-97081607D01*
X147319253Y-96960965D01*
X147414192Y-96732326D01*
X147414408Y-96484760D01*
X147319868Y-96255956D01*
X147144965Y-96080747D01*
X146916326Y-95985808D01*
X146668760Y-95985592D01*
X146439956Y-96080132D01*
X146264747Y-96255035D01*
X146169808Y-96483674D01*
X146169592Y-96731240D01*
X146264132Y-96960044D01*
X146385600Y-97081725D01*
X146385600Y-106342496D01*
X146250526Y-106286408D01*
X146002960Y-106286192D01*
X145774156Y-106380732D01*
X145598947Y-106555635D01*
X145504008Y-106784274D01*
X145503792Y-107031840D01*
X145338800Y-107031840D01*
X145338800Y-102276807D01*
X145459653Y-102156165D01*
X145554592Y-101927526D01*
X145554808Y-101679960D01*
X145460268Y-101451156D01*
X145285365Y-101275947D01*
X145056726Y-101181008D01*
X144809160Y-101180792D01*
X144580356Y-101275332D01*
X144405147Y-101450235D01*
X144310208Y-101678874D01*
X144309992Y-101926440D01*
X144404532Y-102155244D01*
X144526000Y-102276925D01*
X144526000Y-106994264D01*
X143984632Y-107535632D01*
X143896535Y-107667477D01*
X143865600Y-107823000D01*
X143865600Y-115350393D01*
X143744747Y-115471035D01*
X143649808Y-115699674D01*
X143649592Y-115947240D01*
X143060826Y-115947240D01*
X143021868Y-115852956D01*
X142846965Y-115677747D01*
X142618326Y-115582808D01*
X142370760Y-115582592D01*
X142141956Y-115677132D01*
X141966747Y-115852035D01*
X141871808Y-116080674D01*
X141871592Y-116328240D01*
X131443800Y-116328240D01*
X131443800Y-116176724D01*
X131450743Y-116179600D01*
X132029200Y-116179600D01*
X132181600Y-116027200D01*
X132181600Y-114960400D01*
X132486400Y-114960400D01*
X132486400Y-116027200D01*
X132638800Y-116179600D01*
X133217257Y-116179600D01*
X133441311Y-116086794D01*
X133612794Y-115915311D01*
X133705600Y-115691257D01*
X133705600Y-115112800D01*
X133553200Y-114960400D01*
X132486400Y-114960400D01*
X132181600Y-114960400D01*
X132161600Y-114960400D01*
X132161600Y-114655600D01*
X132181600Y-114655600D01*
X132181600Y-114635600D01*
X132486400Y-114635600D01*
X132486400Y-114655600D01*
X133553200Y-114655600D01*
X133705600Y-114503200D01*
X133705600Y-113924743D01*
X133612794Y-113700689D01*
X133441311Y-113529206D01*
X133217257Y-113436400D01*
X133214504Y-113436400D01*
X133237862Y-113413083D01*
X133400615Y-113021131D01*
X133400985Y-112596731D01*
X133238916Y-112204496D01*
X132939083Y-111904138D01*
X132547131Y-111741385D01*
X132122731Y-111741015D01*
X131730496Y-111903084D01*
X131443800Y-112189279D01*
X131443800Y-107347858D01*
X131535035Y-107439253D01*
X131688868Y-107503130D01*
X136599284Y-112413546D01*
X136632132Y-112493044D01*
X136807035Y-112668253D01*
X137035674Y-112763192D01*
X137283240Y-112763408D01*
X137512044Y-112668868D01*
X137687253Y-112493965D01*
X137782192Y-112265326D01*
X137782408Y-112017760D01*
X137687868Y-111788956D01*
X137512965Y-111613747D01*
X137285598Y-111519336D01*
X132518702Y-106752440D01*
X137096392Y-106752440D01*
X137190932Y-106981244D01*
X137365835Y-107156453D01*
X137594474Y-107251392D01*
X137842040Y-107251608D01*
X138070844Y-107157068D01*
X138192525Y-107035600D01*
X140284200Y-107035600D01*
X140284200Y-111864009D01*
X140220808Y-112016674D01*
X140220592Y-112264240D01*
X140315132Y-112493044D01*
X140490035Y-112668253D01*
X140718674Y-112763192D01*
X140966240Y-112763408D01*
X141195044Y-112668868D01*
X141370253Y-112493965D01*
X141465192Y-112265326D01*
X141465408Y-112017760D01*
X141401800Y-111863817D01*
X141401800Y-102003991D01*
X141465192Y-101851326D01*
X141465408Y-101603760D01*
X141370868Y-101374956D01*
X141195965Y-101199747D01*
X140967326Y-101104808D01*
X140719760Y-101104592D01*
X140490956Y-101199132D01*
X140315747Y-101374035D01*
X140220808Y-101602674D01*
X140220592Y-101850240D01*
X140284200Y-102004183D01*
X140284200Y-106222800D01*
X138192407Y-106222800D01*
X138071765Y-106101947D01*
X137843126Y-106007008D01*
X137595560Y-106006792D01*
X137366756Y-106101332D01*
X137191547Y-106276235D01*
X137096608Y-106504874D01*
X137096392Y-106752440D01*
X132518702Y-106752440D01*
X132478994Y-106712732D01*
X132415868Y-106559956D01*
X132240965Y-106384747D01*
X132012326Y-106289808D01*
X131764760Y-106289592D01*
X131535956Y-106384132D01*
X131443800Y-106476127D01*
X131443800Y-100739240D01*
X131627592Y-100739240D01*
X131722132Y-100968044D01*
X131897035Y-101143253D01*
X132125674Y-101238192D01*
X132373240Y-101238408D01*
X132383877Y-101234013D01*
X132753141Y-101603277D01*
X132752992Y-101774040D01*
X132847532Y-102002844D01*
X133022435Y-102178053D01*
X133251074Y-102272992D01*
X133498640Y-102273208D01*
X133727444Y-102178668D01*
X133902653Y-102003765D01*
X133997592Y-101775126D01*
X133997808Y-101527560D01*
X133903268Y-101298756D01*
X133728365Y-101123547D01*
X133499726Y-101028608D01*
X133327794Y-101028458D01*
X132872338Y-100573002D01*
X132872408Y-100492760D01*
X132777868Y-100263956D01*
X132602965Y-100088747D01*
X132374326Y-99993808D01*
X132126760Y-99993592D01*
X131897956Y-100088132D01*
X131722747Y-100263035D01*
X131627808Y-100491674D01*
X131627592Y-100739240D01*
X131443800Y-100739240D01*
X131443800Y-99691240D01*
X132727592Y-99691240D01*
X132822132Y-99920044D01*
X132997035Y-100095253D01*
X133225674Y-100190192D01*
X133437869Y-100190377D01*
X133448477Y-100197465D01*
X133604000Y-100228400D01*
X136300864Y-100228400D01*
X135845523Y-100683741D01*
X135674760Y-100683592D01*
X135445956Y-100778132D01*
X135270747Y-100953035D01*
X135175808Y-101181674D01*
X135175592Y-101429240D01*
X135270132Y-101658044D01*
X135445035Y-101833253D01*
X135673674Y-101928192D01*
X135921240Y-101928408D01*
X136150044Y-101833868D01*
X136325253Y-101658965D01*
X136420192Y-101430326D01*
X136420342Y-101258394D01*
X137450336Y-100228400D01*
X138464393Y-100228400D01*
X138585035Y-100349253D01*
X138813674Y-100444192D01*
X139061240Y-100444408D01*
X139285585Y-100351710D01*
X139230208Y-100485074D01*
X139229992Y-100732640D01*
X139324532Y-100961444D01*
X139499435Y-101136653D01*
X139728074Y-101231592D01*
X139975640Y-101231808D01*
X140204444Y-101137268D01*
X140326125Y-101015800D01*
X141106464Y-101015800D01*
X141630400Y-101539736D01*
X141630400Y-105317393D01*
X141509547Y-105438035D01*
X141414608Y-105666674D01*
X141414392Y-105914240D01*
X141508932Y-106143044D01*
X141683835Y-106318253D01*
X141912474Y-106413192D01*
X142160040Y-106413408D01*
X142388844Y-106318868D01*
X142564053Y-106143965D01*
X142658992Y-105915326D01*
X142659208Y-105667760D01*
X142564668Y-105438956D01*
X142443200Y-105317275D01*
X142443200Y-101371400D01*
X142412265Y-101215877D01*
X142324168Y-101084032D01*
X141562168Y-100322032D01*
X141430323Y-100233935D01*
X141402496Y-100228400D01*
X141614464Y-100228400D01*
X142859760Y-101473696D01*
X142859760Y-106714393D01*
X142738907Y-106835035D01*
X142643968Y-107063674D01*
X142643752Y-107311240D01*
X142738292Y-107540044D01*
X142913195Y-107715253D01*
X143141834Y-107810192D01*
X143389400Y-107810408D01*
X143618204Y-107715868D01*
X143793413Y-107540965D01*
X143888352Y-107312326D01*
X143888568Y-107064760D01*
X143794028Y-106835956D01*
X143672560Y-106714275D01*
X143672560Y-101305360D01*
X143641625Y-101149837D01*
X143553528Y-101017992D01*
X142070168Y-99534632D01*
X141938323Y-99446535D01*
X141782800Y-99415600D01*
X139411607Y-99415600D01*
X139290965Y-99294747D01*
X139062326Y-99199808D01*
X138814760Y-99199592D01*
X138585956Y-99294132D01*
X138464275Y-99415600D01*
X133960359Y-99415600D01*
X133877868Y-99215956D01*
X133702965Y-99040747D01*
X133474326Y-98945808D01*
X133226760Y-98945592D01*
X132997956Y-99040132D01*
X132822747Y-99215035D01*
X132727808Y-99443674D01*
X132727592Y-99691240D01*
X131443800Y-99691240D01*
X131443800Y-98213837D01*
X131547035Y-98317253D01*
X131775674Y-98412192D01*
X132023240Y-98412408D01*
X132252044Y-98317868D01*
X132427253Y-98142965D01*
X132484167Y-98005900D01*
X136051393Y-98005900D01*
X136172035Y-98126753D01*
X136400674Y-98221692D01*
X136648240Y-98221908D01*
X136648501Y-98221800D01*
X140566009Y-98221800D01*
X140718674Y-98285192D01*
X140966240Y-98285408D01*
X141195044Y-98190868D01*
X141370253Y-98015965D01*
X141465192Y-97787326D01*
X141465408Y-97539760D01*
X141370868Y-97310956D01*
X141195965Y-97135747D01*
X141133268Y-97109713D01*
X141215125Y-97028000D01*
X141868037Y-97028000D01*
X142014035Y-97174253D01*
X142242674Y-97269192D01*
X142490240Y-97269408D01*
X142719044Y-97174868D01*
X142894253Y-96999965D01*
X142989192Y-96771326D01*
X142989408Y-96523760D01*
X142951094Y-96431034D01*
X143150640Y-96431208D01*
X143379444Y-96336668D01*
X143554653Y-96161765D01*
X143649592Y-95933126D01*
X143649808Y-95685560D01*
X143555268Y-95456756D01*
X143380365Y-95281547D01*
X143151726Y-95186608D01*
X142904160Y-95186392D01*
X142675356Y-95280932D01*
X142553675Y-95402400D01*
X136601335Y-95402400D01*
X136702659Y-95158385D01*
X136702941Y-94835033D01*
X136579460Y-94536187D01*
X136404474Y-94360895D01*
X136578657Y-94187016D01*
X136702659Y-93888385D01*
X136702941Y-93565033D01*
X136579460Y-93266187D01*
X136404474Y-93090895D01*
X136578657Y-92917016D01*
X136702659Y-92618385D01*
X136702941Y-92295033D01*
X136579460Y-91996187D01*
X136404474Y-91820895D01*
X136578657Y-91647016D01*
X136590789Y-91617800D01*
X140242393Y-91617800D01*
X140363035Y-91738653D01*
G36*
X134038151Y-89118625D02*
X134620000Y-89700474D01*
X134634143Y-89686332D01*
X134849669Y-89901858D01*
X134835526Y-89916000D01*
X134849669Y-89930143D01*
X134634143Y-90145669D01*
X134620000Y-90131526D01*
X134321737Y-90429789D01*
X134160187Y-90496540D01*
X133931343Y-90724984D01*
X133908665Y-90779600D01*
X133858000Y-90779600D01*
X133702477Y-90810535D01*
X133570632Y-90898632D01*
X133215032Y-91254232D01*
X133126935Y-91386077D01*
X133096000Y-91541600D01*
X133096000Y-93658793D01*
X132975147Y-93779435D01*
X132880208Y-94008074D01*
X132879992Y-94255640D01*
X132974532Y-94484444D01*
X133149435Y-94659653D01*
X133378074Y-94754592D01*
X133625640Y-94754808D01*
X133854444Y-94660268D01*
X133896933Y-94617854D01*
X133807341Y-94833615D01*
X133807059Y-95156967D01*
X133908470Y-95402400D01*
X133772851Y-95402400D01*
X133677565Y-95306947D01*
X133448926Y-95212008D01*
X133201360Y-95211792D01*
X132972556Y-95306332D01*
X132797347Y-95481235D01*
X132702408Y-95709874D01*
X132702192Y-95957440D01*
X132796732Y-96186244D01*
X132971635Y-96361453D01*
X133200274Y-96456392D01*
X133447840Y-96456608D01*
X133676644Y-96362068D01*
X133823769Y-96215200D01*
X140267675Y-96215200D01*
X140214147Y-96268635D01*
X140119208Y-96497274D01*
X140118992Y-96744840D01*
X140213532Y-96973644D01*
X140343860Y-97104200D01*
X136909862Y-97104200D01*
X136877965Y-97072247D01*
X136649326Y-96977308D01*
X136401760Y-96977092D01*
X136172956Y-97071632D01*
X136051275Y-97193100D01*
X132306400Y-97193100D01*
X132306400Y-95446403D01*
X132429453Y-95323565D01*
X132524392Y-95094926D01*
X132524608Y-94847360D01*
X132430068Y-94618556D01*
X132255165Y-94443347D01*
X132026526Y-94348408D01*
X131778960Y-94348192D01*
X131550156Y-94442732D01*
X131443800Y-94548902D01*
X131443800Y-89800570D01*
X133486367Y-89800570D01*
X133528487Y-90243179D01*
X133616833Y-90456466D01*
X133822625Y-90497849D01*
X134404474Y-89916000D01*
X133822625Y-89334151D01*
X133616833Y-89375534D01*
X133486367Y-89800570D01*
X131443800Y-89800570D01*
X131443800Y-89025800D01*
X134056817Y-89025800D01*
X134038151Y-89118625D01*
X134038151Y-89118625D01*
G37*
X134038151Y-89118625D02*
X134620000Y-89700474D01*
X134634143Y-89686332D01*
X134849669Y-89901858D01*
X134835526Y-89916000D01*
X134849669Y-89930143D01*
X134634143Y-90145669D01*
X134620000Y-90131526D01*
X134321737Y-90429789D01*
X134160187Y-90496540D01*
X133931343Y-90724984D01*
X133908665Y-90779600D01*
X133858000Y-90779600D01*
X133702477Y-90810535D01*
X133570632Y-90898632D01*
X133215032Y-91254232D01*
X133126935Y-91386077D01*
X133096000Y-91541600D01*
X133096000Y-93658793D01*
X132975147Y-93779435D01*
X132880208Y-94008074D01*
X132879992Y-94255640D01*
X132974532Y-94484444D01*
X133149435Y-94659653D01*
X133378074Y-94754592D01*
X133625640Y-94754808D01*
X133854444Y-94660268D01*
X133896933Y-94617854D01*
X133807341Y-94833615D01*
X133807059Y-95156967D01*
X133908470Y-95402400D01*
X133772851Y-95402400D01*
X133677565Y-95306947D01*
X133448926Y-95212008D01*
X133201360Y-95211792D01*
X132972556Y-95306332D01*
X132797347Y-95481235D01*
X132702408Y-95709874D01*
X132702192Y-95957440D01*
X132796732Y-96186244D01*
X132971635Y-96361453D01*
X133200274Y-96456392D01*
X133447840Y-96456608D01*
X133676644Y-96362068D01*
X133823769Y-96215200D01*
X140267675Y-96215200D01*
X140214147Y-96268635D01*
X140119208Y-96497274D01*
X140118992Y-96744840D01*
X140213532Y-96973644D01*
X140343860Y-97104200D01*
X136909862Y-97104200D01*
X136877965Y-97072247D01*
X136649326Y-96977308D01*
X136401760Y-96977092D01*
X136172956Y-97071632D01*
X136051275Y-97193100D01*
X132306400Y-97193100D01*
X132306400Y-95446403D01*
X132429453Y-95323565D01*
X132524392Y-95094926D01*
X132524608Y-94847360D01*
X132430068Y-94618556D01*
X132255165Y-94443347D01*
X132026526Y-94348408D01*
X131778960Y-94348192D01*
X131550156Y-94442732D01*
X131443800Y-94548902D01*
X131443800Y-89800570D01*
X133486367Y-89800570D01*
X133528487Y-90243179D01*
X133616833Y-90456466D01*
X133822625Y-90497849D01*
X134404474Y-89916000D01*
X133822625Y-89334151D01*
X133616833Y-89375534D01*
X133486367Y-89800570D01*
X131443800Y-89800570D01*
X131443800Y-89025800D01*
X134056817Y-89025800D01*
X134038151Y-89118625D01*
G36*
X141122400Y-90737675D02*
X141068965Y-90684147D01*
X140840326Y-90589208D01*
X140592760Y-90588992D01*
X140363956Y-90683532D01*
X140242275Y-90805000D01*
X136612025Y-90805000D01*
X136579460Y-90726187D01*
X136544965Y-90691631D01*
X136614692Y-90646763D01*
X136684287Y-90544907D01*
X136708771Y-90424000D01*
X136708771Y-89408000D01*
X136687518Y-89295048D01*
X136620763Y-89191308D01*
X136518907Y-89121713D01*
X136398000Y-89097229D01*
X135409904Y-89097229D01*
X135338475Y-89025800D01*
X141122400Y-89025800D01*
X141122400Y-90737675D01*
X141122400Y-90737675D01*
G37*
X141122400Y-90737675D02*
X141068965Y-90684147D01*
X140840326Y-90589208D01*
X140592760Y-90588992D01*
X140363956Y-90683532D01*
X140242275Y-90805000D01*
X136612025Y-90805000D01*
X136579460Y-90726187D01*
X136544965Y-90691631D01*
X136614692Y-90646763D01*
X136684287Y-90544907D01*
X136708771Y-90424000D01*
X136708771Y-89408000D01*
X136687518Y-89295048D01*
X136620763Y-89191308D01*
X136518907Y-89121713D01*
X136398000Y-89097229D01*
X135409904Y-89097229D01*
X135338475Y-89025800D01*
X141122400Y-89025800D01*
X141122400Y-90737675D01*
M02*
