G04 #@! TF.FileFunction,Copper,L2,Bot,Signal*
%FSLAX46Y46*%
G04 Gerber Fmt 4.6, Leading zero omitted, Abs format (unit mm)*
G04 Created by KiCad (PCBNEW 4.0.4-stable) date Tuesday, January 03, 2017 'PMt' 07:48:05 PM*
%MOMM*%
%LPD*%
G01*
G04 APERTURE LIST*
%ADD10C,0.100000*%
%ADD11R,1.524000X1.524000*%
%ADD12C,1.524000*%
%ADD13R,1.016000X1.016000*%
%ADD14C,1.016000*%
%ADD15C,0.635000*%
%ADD16C,0.203200*%
%ADD17C,0.508000*%
G04 APERTURE END LIST*
D10*
D11*
X132334000Y-114808000D03*
D12*
X132334000Y-112808000D03*
D11*
X140716000Y-125730000D03*
D12*
X138716000Y-125730000D03*
D13*
X133731000Y-89789000D03*
D14*
X132461000Y-89789000D03*
X133731000Y-91059000D03*
X132461000Y-91059000D03*
X133731000Y-92329000D03*
X132461000Y-92329000D03*
X133731000Y-93599000D03*
X132461000Y-93599000D03*
X133731000Y-94869000D03*
X132461000Y-94869000D03*
D15*
X140450000Y-122428000D03*
X138950000Y-122428000D03*
X139700000Y-120178000D03*
X131673600Y-101422200D03*
X141478000Y-115051840D03*
X145023840Y-116840000D03*
X145542000Y-115051840D03*
X132080000Y-122872500D03*
X133360160Y-119126000D03*
X133360160Y-117475000D03*
X139700000Y-108712000D03*
X145796000Y-103759000D03*
X138942000Y-103008000D03*
X132250000Y-103016000D03*
X136652000Y-98806000D03*
X135890000Y-94731840D03*
X144780000Y-94996000D03*
X137160000Y-89408000D03*
X142494000Y-116205000D03*
X142494000Y-121031000D03*
X135890000Y-93268800D03*
X143027400Y-95808800D03*
X137718800Y-106629200D03*
X131888000Y-106912000D03*
X137160000Y-112141000D03*
X140843000Y-101727000D03*
X140843000Y-112141000D03*
X132250000Y-100616000D03*
X133375400Y-101650800D03*
X131900000Y-97790000D03*
X136525000Y-97599500D03*
X140843000Y-97663000D03*
X146126200Y-106908600D03*
X146151600Y-108966000D03*
X144272000Y-115824000D03*
X144907000Y-104775000D03*
X142036800Y-105791000D03*
X139852400Y-100609400D03*
X143266160Y-107188000D03*
X135798000Y-101306000D03*
X133350000Y-99568000D03*
X138938000Y-99822000D03*
X146792000Y-96608000D03*
X146558000Y-113538000D03*
D16*
X138963400Y-122428000D02*
X138938000Y-122428000D01*
X138950000Y-122428000D02*
X138963400Y-122428000D01*
D17*
X142494000Y-121031000D02*
X142494000Y-116205000D01*
D16*
X138430000Y-95808800D02*
X135890000Y-93268800D01*
X143027400Y-95808800D02*
X138430000Y-95808800D01*
X137718800Y-106629200D02*
X140843000Y-106629200D01*
D17*
X137117000Y-112141000D02*
X137160000Y-112141000D01*
X131888000Y-106912000D02*
X137117000Y-112141000D01*
X140843000Y-112141000D02*
X140843000Y-106629200D01*
X140843000Y-106629200D02*
X140843000Y-101727000D01*
D16*
X132340600Y-100616000D02*
X133375400Y-101650800D01*
X132340600Y-100616000D02*
X132250000Y-100616000D01*
X136525000Y-97599500D02*
X132090500Y-97599500D01*
X132090500Y-97599500D02*
X131900000Y-97790000D01*
D17*
X136588500Y-97663000D02*
X140843000Y-97663000D01*
X136588500Y-97663000D02*
X136525000Y-97599500D01*
D16*
X146126200Y-108940600D02*
X146126200Y-106908600D01*
X146151600Y-108966000D02*
X146126200Y-108940600D01*
X144272000Y-107823000D02*
X144272000Y-105410000D01*
X144272000Y-115824000D02*
X144272000Y-107823000D01*
X144272000Y-105410000D02*
X144907000Y-104775000D01*
X141274800Y-100609400D02*
X139852400Y-100609400D01*
X142036800Y-101371400D02*
X141274800Y-100609400D01*
X142036800Y-101371400D02*
X142036800Y-105791000D01*
X141782800Y-99822000D02*
X138938000Y-99822000D01*
X143266160Y-101305360D02*
X141782800Y-99822000D01*
X143266160Y-107188000D02*
X143266160Y-101305360D01*
X138938000Y-99822000D02*
X137282000Y-99822000D01*
X137282000Y-99822000D02*
X135798000Y-101306000D01*
X138938000Y-99822000D02*
X133604000Y-99822000D01*
X133604000Y-99822000D02*
X133350000Y-99568000D01*
X146792000Y-113304000D02*
X146558000Y-113538000D01*
X146792000Y-113304000D02*
X146792000Y-96608000D01*
G36*
X132001187Y-89099540D02*
X131772343Y-89327984D01*
X131648341Y-89626615D01*
X131648059Y-89949967D01*
X131771540Y-90248813D01*
X131946526Y-90424105D01*
X131772343Y-90597984D01*
X131648341Y-90896615D01*
X131648059Y-91219967D01*
X131771540Y-91518813D01*
X131946526Y-91694105D01*
X131772343Y-91867984D01*
X131648341Y-92166615D01*
X131648059Y-92489967D01*
X131771540Y-92788813D01*
X131946526Y-92964105D01*
X131772343Y-93137984D01*
X131648341Y-93436615D01*
X131648059Y-93759967D01*
X131771540Y-94058813D01*
X131946526Y-94234105D01*
X131772343Y-94407984D01*
X131648341Y-94706615D01*
X131648059Y-95029967D01*
X131771540Y-95328813D01*
X131999984Y-95557657D01*
X132298615Y-95681659D01*
X132621967Y-95681941D01*
X132920813Y-95558460D01*
X133096105Y-95383474D01*
X133269984Y-95557657D01*
X133568615Y-95681659D01*
X133891967Y-95681941D01*
X134190813Y-95558460D01*
X134419657Y-95330016D01*
X134543659Y-95031385D01*
X134543941Y-94708033D01*
X134420460Y-94409187D01*
X134245474Y-94233895D01*
X134419657Y-94060016D01*
X134543659Y-93761385D01*
X134543941Y-93438033D01*
X134524938Y-93392040D01*
X135267592Y-93392040D01*
X135362132Y-93620844D01*
X135537035Y-93796053D01*
X135765674Y-93890992D01*
X135937606Y-93891142D01*
X138142631Y-96096168D01*
X138274477Y-96184265D01*
X138430000Y-96215200D01*
X142553793Y-96215200D01*
X142674435Y-96336053D01*
X142903074Y-96430992D01*
X143150640Y-96431208D01*
X143379444Y-96336668D01*
X143554653Y-96161765D01*
X143649592Y-95933126D01*
X143649808Y-95685560D01*
X143555268Y-95456756D01*
X143380365Y-95281547D01*
X143151726Y-95186608D01*
X142904160Y-95186392D01*
X142675356Y-95280932D01*
X142553675Y-95402400D01*
X138598337Y-95402400D01*
X136512259Y-93316323D01*
X136512408Y-93145560D01*
X136417868Y-92916756D01*
X136242965Y-92741547D01*
X136014326Y-92646608D01*
X135766760Y-92646392D01*
X135537956Y-92740932D01*
X135362747Y-92915835D01*
X135267808Y-93144474D01*
X135267592Y-93392040D01*
X134524938Y-93392040D01*
X134420460Y-93139187D01*
X134245474Y-92963895D01*
X134419657Y-92790016D01*
X134543659Y-92491385D01*
X134543941Y-92168033D01*
X134420460Y-91869187D01*
X134245474Y-91693895D01*
X134419657Y-91520016D01*
X134543659Y-91221385D01*
X134543941Y-90898033D01*
X134520120Y-90840383D01*
X134584311Y-90813794D01*
X134755794Y-90642311D01*
X134848600Y-90418257D01*
X134848600Y-90093800D01*
X134696200Y-89941400D01*
X133883400Y-89941400D01*
X133883400Y-89961400D01*
X133578600Y-89961400D01*
X133578600Y-89941400D01*
X133558600Y-89941400D01*
X133558600Y-89636600D01*
X133578600Y-89636600D01*
X133578600Y-89616600D01*
X133883400Y-89616600D01*
X133883400Y-89636600D01*
X134696200Y-89636600D01*
X134848600Y-89484200D01*
X134848600Y-89159743D01*
X134793119Y-89025800D01*
X141122400Y-89025800D01*
X141122400Y-94234000D01*
X141130405Y-94273528D01*
X141153157Y-94306828D01*
X141187073Y-94328652D01*
X141224000Y-94335600D01*
X147956200Y-94335600D01*
X147956200Y-126620200D01*
X141759304Y-126620200D01*
X141764287Y-126612907D01*
X141788771Y-126492000D01*
X141788771Y-124968000D01*
X141767518Y-124855048D01*
X141700763Y-124751308D01*
X141598907Y-124681713D01*
X141478000Y-124657229D01*
X139954000Y-124657229D01*
X139841048Y-124678482D01*
X139737308Y-124745237D01*
X139667713Y-124847093D01*
X139643229Y-124968000D01*
X139643229Y-125180497D01*
X139620916Y-125126496D01*
X139321083Y-124826138D01*
X138929131Y-124663385D01*
X138504731Y-124663015D01*
X138112496Y-124825084D01*
X137812138Y-125124917D01*
X137649385Y-125516869D01*
X137649015Y-125941269D01*
X137811084Y-126333504D01*
X138097279Y-126620200D01*
X131443800Y-126620200D01*
X131443800Y-116328240D01*
X141871592Y-116328240D01*
X141935200Y-116482183D01*
X141935200Y-120754009D01*
X141871808Y-120906674D01*
X141871592Y-121154240D01*
X141966132Y-121383044D01*
X142141035Y-121558253D01*
X142369674Y-121653192D01*
X142617240Y-121653408D01*
X142846044Y-121558868D01*
X143021253Y-121383965D01*
X143116192Y-121155326D01*
X143116408Y-120907760D01*
X143052800Y-120753817D01*
X143052800Y-116481991D01*
X143116192Y-116329326D01*
X143116408Y-116081760D01*
X143021868Y-115852956D01*
X142846965Y-115677747D01*
X142618326Y-115582808D01*
X142370760Y-115582592D01*
X142141956Y-115677132D01*
X141966747Y-115852035D01*
X141871808Y-116080674D01*
X141871592Y-116328240D01*
X131443800Y-116328240D01*
X131443800Y-116176724D01*
X131450743Y-116179600D01*
X132029200Y-116179600D01*
X132181600Y-116027200D01*
X132181600Y-114960400D01*
X132486400Y-114960400D01*
X132486400Y-116027200D01*
X132638800Y-116179600D01*
X133217257Y-116179600D01*
X133441311Y-116086794D01*
X133612794Y-115915311D01*
X133705600Y-115691257D01*
X133705600Y-115112800D01*
X133553200Y-114960400D01*
X132486400Y-114960400D01*
X132181600Y-114960400D01*
X132161600Y-114960400D01*
X132161600Y-114655600D01*
X132181600Y-114655600D01*
X132181600Y-114635600D01*
X132486400Y-114635600D01*
X132486400Y-114655600D01*
X133553200Y-114655600D01*
X133705600Y-114503200D01*
X133705600Y-113924743D01*
X133612794Y-113700689D01*
X133441311Y-113529206D01*
X133217257Y-113436400D01*
X133214504Y-113436400D01*
X133237862Y-113413083D01*
X133400615Y-113021131D01*
X133400985Y-112596731D01*
X133238916Y-112204496D01*
X132939083Y-111904138D01*
X132547131Y-111741385D01*
X132122731Y-111741015D01*
X131730496Y-111903084D01*
X131443800Y-112189279D01*
X131443800Y-107347858D01*
X131535035Y-107439253D01*
X131688868Y-107503130D01*
X136599284Y-112413546D01*
X136632132Y-112493044D01*
X136807035Y-112668253D01*
X137035674Y-112763192D01*
X137283240Y-112763408D01*
X137512044Y-112668868D01*
X137687253Y-112493965D01*
X137782192Y-112265326D01*
X137782408Y-112017760D01*
X137687868Y-111788956D01*
X137512965Y-111613747D01*
X137285598Y-111519336D01*
X132518702Y-106752440D01*
X137096392Y-106752440D01*
X137190932Y-106981244D01*
X137365835Y-107156453D01*
X137594474Y-107251392D01*
X137842040Y-107251608D01*
X138070844Y-107157068D01*
X138192525Y-107035600D01*
X140284200Y-107035600D01*
X140284200Y-111864009D01*
X140220808Y-112016674D01*
X140220592Y-112264240D01*
X140315132Y-112493044D01*
X140490035Y-112668253D01*
X140718674Y-112763192D01*
X140966240Y-112763408D01*
X141195044Y-112668868D01*
X141370253Y-112493965D01*
X141465192Y-112265326D01*
X141465408Y-112017760D01*
X141401800Y-111863817D01*
X141401800Y-102003991D01*
X141465192Y-101851326D01*
X141465408Y-101603760D01*
X141370868Y-101374956D01*
X141195965Y-101199747D01*
X140967326Y-101104808D01*
X140719760Y-101104592D01*
X140490956Y-101199132D01*
X140315747Y-101374035D01*
X140220808Y-101602674D01*
X140220592Y-101850240D01*
X140284200Y-102004183D01*
X140284200Y-106222800D01*
X138192407Y-106222800D01*
X138071765Y-106101947D01*
X137843126Y-106007008D01*
X137595560Y-106006792D01*
X137366756Y-106101332D01*
X137191547Y-106276235D01*
X137096608Y-106504874D01*
X137096392Y-106752440D01*
X132518702Y-106752440D01*
X132478994Y-106712732D01*
X132415868Y-106559956D01*
X132240965Y-106384747D01*
X132012326Y-106289808D01*
X131764760Y-106289592D01*
X131535956Y-106384132D01*
X131443800Y-106476127D01*
X131443800Y-100739240D01*
X131627592Y-100739240D01*
X131722132Y-100968044D01*
X131897035Y-101143253D01*
X132125674Y-101238192D01*
X132373240Y-101238408D01*
X132383877Y-101234013D01*
X132753141Y-101603277D01*
X132752992Y-101774040D01*
X132847532Y-102002844D01*
X133022435Y-102178053D01*
X133251074Y-102272992D01*
X133498640Y-102273208D01*
X133727444Y-102178668D01*
X133902653Y-102003765D01*
X133997592Y-101775126D01*
X133997808Y-101527560D01*
X133903268Y-101298756D01*
X133728365Y-101123547D01*
X133499726Y-101028608D01*
X133327794Y-101028458D01*
X132872338Y-100573002D01*
X132872408Y-100492760D01*
X132777868Y-100263956D01*
X132602965Y-100088747D01*
X132374326Y-99993808D01*
X132126760Y-99993592D01*
X131897956Y-100088132D01*
X131722747Y-100263035D01*
X131627808Y-100491674D01*
X131627592Y-100739240D01*
X131443800Y-100739240D01*
X131443800Y-99691240D01*
X132727592Y-99691240D01*
X132822132Y-99920044D01*
X132997035Y-100095253D01*
X133225674Y-100190192D01*
X133437869Y-100190377D01*
X133448477Y-100197465D01*
X133604000Y-100228400D01*
X136300864Y-100228400D01*
X135845523Y-100683741D01*
X135674760Y-100683592D01*
X135445956Y-100778132D01*
X135270747Y-100953035D01*
X135175808Y-101181674D01*
X135175592Y-101429240D01*
X135270132Y-101658044D01*
X135445035Y-101833253D01*
X135673674Y-101928192D01*
X135921240Y-101928408D01*
X136150044Y-101833868D01*
X136325253Y-101658965D01*
X136420192Y-101430326D01*
X136420342Y-101258394D01*
X137450336Y-100228400D01*
X138464393Y-100228400D01*
X138585035Y-100349253D01*
X138813674Y-100444192D01*
X139061240Y-100444408D01*
X139285585Y-100351710D01*
X139230208Y-100485074D01*
X139229992Y-100732640D01*
X139324532Y-100961444D01*
X139499435Y-101136653D01*
X139728074Y-101231592D01*
X139975640Y-101231808D01*
X140204444Y-101137268D01*
X140326125Y-101015800D01*
X141106464Y-101015800D01*
X141630400Y-101539736D01*
X141630400Y-105317393D01*
X141509547Y-105438035D01*
X141414608Y-105666674D01*
X141414392Y-105914240D01*
X141508932Y-106143044D01*
X141683835Y-106318253D01*
X141912474Y-106413192D01*
X142160040Y-106413408D01*
X142388844Y-106318868D01*
X142564053Y-106143965D01*
X142658992Y-105915326D01*
X142659208Y-105667760D01*
X142564668Y-105438956D01*
X142443200Y-105317275D01*
X142443200Y-101371400D01*
X142412265Y-101215877D01*
X142324168Y-101084032D01*
X141562168Y-100322032D01*
X141430323Y-100233935D01*
X141402496Y-100228400D01*
X141614464Y-100228400D01*
X142859760Y-101473696D01*
X142859760Y-106714393D01*
X142738907Y-106835035D01*
X142643968Y-107063674D01*
X142643752Y-107311240D01*
X142738292Y-107540044D01*
X142913195Y-107715253D01*
X143141834Y-107810192D01*
X143389400Y-107810408D01*
X143618204Y-107715868D01*
X143793413Y-107540965D01*
X143865600Y-107367119D01*
X143865600Y-115350393D01*
X143744747Y-115471035D01*
X143649808Y-115699674D01*
X143649592Y-115947240D01*
X143744132Y-116176044D01*
X143919035Y-116351253D01*
X144147674Y-116446192D01*
X144395240Y-116446408D01*
X144624044Y-116351868D01*
X144799253Y-116176965D01*
X144894192Y-115948326D01*
X144894408Y-115700760D01*
X144799868Y-115471956D01*
X144678400Y-115350275D01*
X144678400Y-107031840D01*
X145503792Y-107031840D01*
X145598332Y-107260644D01*
X145719800Y-107382325D01*
X145719800Y-108517749D01*
X145624347Y-108613035D01*
X145529408Y-108841674D01*
X145529192Y-109089240D01*
X145623732Y-109318044D01*
X145798635Y-109493253D01*
X146027274Y-109588192D01*
X146274840Y-109588408D01*
X146385600Y-109542643D01*
X146385600Y-112935905D01*
X146205956Y-113010132D01*
X146030747Y-113185035D01*
X145935808Y-113413674D01*
X145935592Y-113661240D01*
X146030132Y-113890044D01*
X146205035Y-114065253D01*
X146433674Y-114160192D01*
X146681240Y-114160408D01*
X146910044Y-114065868D01*
X147085253Y-113890965D01*
X147180192Y-113662326D01*
X147180408Y-113414760D01*
X147177681Y-113408161D01*
X147198400Y-113304000D01*
X147198400Y-97081607D01*
X147319253Y-96960965D01*
X147414192Y-96732326D01*
X147414408Y-96484760D01*
X147319868Y-96255956D01*
X147144965Y-96080747D01*
X146916326Y-95985808D01*
X146668760Y-95985592D01*
X146439956Y-96080132D01*
X146264747Y-96255035D01*
X146169808Y-96483674D01*
X146169592Y-96731240D01*
X146264132Y-96960044D01*
X146385600Y-97081725D01*
X146385600Y-106342496D01*
X146250526Y-106286408D01*
X146002960Y-106286192D01*
X145774156Y-106380732D01*
X145598947Y-106555635D01*
X145504008Y-106784274D01*
X145503792Y-107031840D01*
X144678400Y-107031840D01*
X144678400Y-105578336D01*
X144859477Y-105397259D01*
X145030240Y-105397408D01*
X145259044Y-105302868D01*
X145434253Y-105127965D01*
X145529192Y-104899326D01*
X145529408Y-104651760D01*
X145434868Y-104422956D01*
X145259965Y-104247747D01*
X145031326Y-104152808D01*
X144783760Y-104152592D01*
X144554956Y-104247132D01*
X144379747Y-104422035D01*
X144284808Y-104650674D01*
X144284658Y-104822606D01*
X143984632Y-105122632D01*
X143896535Y-105254477D01*
X143865600Y-105410000D01*
X143865600Y-107009173D01*
X143794028Y-106835956D01*
X143672560Y-106714275D01*
X143672560Y-101305360D01*
X143641625Y-101149837D01*
X143553528Y-101017992D01*
X142070168Y-99534632D01*
X141938323Y-99446535D01*
X141782800Y-99415600D01*
X139411607Y-99415600D01*
X139290965Y-99294747D01*
X139062326Y-99199808D01*
X138814760Y-99199592D01*
X138585956Y-99294132D01*
X138464275Y-99415600D01*
X133960359Y-99415600D01*
X133877868Y-99215956D01*
X133702965Y-99040747D01*
X133474326Y-98945808D01*
X133226760Y-98945592D01*
X132997956Y-99040132D01*
X132822747Y-99215035D01*
X132727808Y-99443674D01*
X132727592Y-99691240D01*
X131443800Y-99691240D01*
X131443800Y-98213837D01*
X131547035Y-98317253D01*
X131775674Y-98412192D01*
X132023240Y-98412408D01*
X132252044Y-98317868D01*
X132427253Y-98142965D01*
X132484167Y-98005900D01*
X136051393Y-98005900D01*
X136172035Y-98126753D01*
X136400674Y-98221692D01*
X136648240Y-98221908D01*
X136648501Y-98221800D01*
X140566009Y-98221800D01*
X140718674Y-98285192D01*
X140966240Y-98285408D01*
X141195044Y-98190868D01*
X141370253Y-98015965D01*
X141465192Y-97787326D01*
X141465408Y-97539760D01*
X141370868Y-97310956D01*
X141195965Y-97135747D01*
X140967326Y-97040808D01*
X140719760Y-97040592D01*
X140565817Y-97104200D01*
X136909862Y-97104200D01*
X136877965Y-97072247D01*
X136649326Y-96977308D01*
X136401760Y-96977092D01*
X136172956Y-97071632D01*
X136051275Y-97193100D01*
X132090500Y-97193100D01*
X132086941Y-97193808D01*
X132024326Y-97167808D01*
X131776760Y-97167592D01*
X131547956Y-97262132D01*
X131443800Y-97366106D01*
X131443800Y-89025800D01*
X132179651Y-89025800D01*
X132001187Y-89099540D01*
X132001187Y-89099540D01*
G37*
X132001187Y-89099540D02*
X131772343Y-89327984D01*
X131648341Y-89626615D01*
X131648059Y-89949967D01*
X131771540Y-90248813D01*
X131946526Y-90424105D01*
X131772343Y-90597984D01*
X131648341Y-90896615D01*
X131648059Y-91219967D01*
X131771540Y-91518813D01*
X131946526Y-91694105D01*
X131772343Y-91867984D01*
X131648341Y-92166615D01*
X131648059Y-92489967D01*
X131771540Y-92788813D01*
X131946526Y-92964105D01*
X131772343Y-93137984D01*
X131648341Y-93436615D01*
X131648059Y-93759967D01*
X131771540Y-94058813D01*
X131946526Y-94234105D01*
X131772343Y-94407984D01*
X131648341Y-94706615D01*
X131648059Y-95029967D01*
X131771540Y-95328813D01*
X131999984Y-95557657D01*
X132298615Y-95681659D01*
X132621967Y-95681941D01*
X132920813Y-95558460D01*
X133096105Y-95383474D01*
X133269984Y-95557657D01*
X133568615Y-95681659D01*
X133891967Y-95681941D01*
X134190813Y-95558460D01*
X134419657Y-95330016D01*
X134543659Y-95031385D01*
X134543941Y-94708033D01*
X134420460Y-94409187D01*
X134245474Y-94233895D01*
X134419657Y-94060016D01*
X134543659Y-93761385D01*
X134543941Y-93438033D01*
X134524938Y-93392040D01*
X135267592Y-93392040D01*
X135362132Y-93620844D01*
X135537035Y-93796053D01*
X135765674Y-93890992D01*
X135937606Y-93891142D01*
X138142631Y-96096168D01*
X138274477Y-96184265D01*
X138430000Y-96215200D01*
X142553793Y-96215200D01*
X142674435Y-96336053D01*
X142903074Y-96430992D01*
X143150640Y-96431208D01*
X143379444Y-96336668D01*
X143554653Y-96161765D01*
X143649592Y-95933126D01*
X143649808Y-95685560D01*
X143555268Y-95456756D01*
X143380365Y-95281547D01*
X143151726Y-95186608D01*
X142904160Y-95186392D01*
X142675356Y-95280932D01*
X142553675Y-95402400D01*
X138598337Y-95402400D01*
X136512259Y-93316323D01*
X136512408Y-93145560D01*
X136417868Y-92916756D01*
X136242965Y-92741547D01*
X136014326Y-92646608D01*
X135766760Y-92646392D01*
X135537956Y-92740932D01*
X135362747Y-92915835D01*
X135267808Y-93144474D01*
X135267592Y-93392040D01*
X134524938Y-93392040D01*
X134420460Y-93139187D01*
X134245474Y-92963895D01*
X134419657Y-92790016D01*
X134543659Y-92491385D01*
X134543941Y-92168033D01*
X134420460Y-91869187D01*
X134245474Y-91693895D01*
X134419657Y-91520016D01*
X134543659Y-91221385D01*
X134543941Y-90898033D01*
X134520120Y-90840383D01*
X134584311Y-90813794D01*
X134755794Y-90642311D01*
X134848600Y-90418257D01*
X134848600Y-90093800D01*
X134696200Y-89941400D01*
X133883400Y-89941400D01*
X133883400Y-89961400D01*
X133578600Y-89961400D01*
X133578600Y-89941400D01*
X133558600Y-89941400D01*
X133558600Y-89636600D01*
X133578600Y-89636600D01*
X133578600Y-89616600D01*
X133883400Y-89616600D01*
X133883400Y-89636600D01*
X134696200Y-89636600D01*
X134848600Y-89484200D01*
X134848600Y-89159743D01*
X134793119Y-89025800D01*
X141122400Y-89025800D01*
X141122400Y-94234000D01*
X141130405Y-94273528D01*
X141153157Y-94306828D01*
X141187073Y-94328652D01*
X141224000Y-94335600D01*
X147956200Y-94335600D01*
X147956200Y-126620200D01*
X141759304Y-126620200D01*
X141764287Y-126612907D01*
X141788771Y-126492000D01*
X141788771Y-124968000D01*
X141767518Y-124855048D01*
X141700763Y-124751308D01*
X141598907Y-124681713D01*
X141478000Y-124657229D01*
X139954000Y-124657229D01*
X139841048Y-124678482D01*
X139737308Y-124745237D01*
X139667713Y-124847093D01*
X139643229Y-124968000D01*
X139643229Y-125180497D01*
X139620916Y-125126496D01*
X139321083Y-124826138D01*
X138929131Y-124663385D01*
X138504731Y-124663015D01*
X138112496Y-124825084D01*
X137812138Y-125124917D01*
X137649385Y-125516869D01*
X137649015Y-125941269D01*
X137811084Y-126333504D01*
X138097279Y-126620200D01*
X131443800Y-126620200D01*
X131443800Y-116328240D01*
X141871592Y-116328240D01*
X141935200Y-116482183D01*
X141935200Y-120754009D01*
X141871808Y-120906674D01*
X141871592Y-121154240D01*
X141966132Y-121383044D01*
X142141035Y-121558253D01*
X142369674Y-121653192D01*
X142617240Y-121653408D01*
X142846044Y-121558868D01*
X143021253Y-121383965D01*
X143116192Y-121155326D01*
X143116408Y-120907760D01*
X143052800Y-120753817D01*
X143052800Y-116481991D01*
X143116192Y-116329326D01*
X143116408Y-116081760D01*
X143021868Y-115852956D01*
X142846965Y-115677747D01*
X142618326Y-115582808D01*
X142370760Y-115582592D01*
X142141956Y-115677132D01*
X141966747Y-115852035D01*
X141871808Y-116080674D01*
X141871592Y-116328240D01*
X131443800Y-116328240D01*
X131443800Y-116176724D01*
X131450743Y-116179600D01*
X132029200Y-116179600D01*
X132181600Y-116027200D01*
X132181600Y-114960400D01*
X132486400Y-114960400D01*
X132486400Y-116027200D01*
X132638800Y-116179600D01*
X133217257Y-116179600D01*
X133441311Y-116086794D01*
X133612794Y-115915311D01*
X133705600Y-115691257D01*
X133705600Y-115112800D01*
X133553200Y-114960400D01*
X132486400Y-114960400D01*
X132181600Y-114960400D01*
X132161600Y-114960400D01*
X132161600Y-114655600D01*
X132181600Y-114655600D01*
X132181600Y-114635600D01*
X132486400Y-114635600D01*
X132486400Y-114655600D01*
X133553200Y-114655600D01*
X133705600Y-114503200D01*
X133705600Y-113924743D01*
X133612794Y-113700689D01*
X133441311Y-113529206D01*
X133217257Y-113436400D01*
X133214504Y-113436400D01*
X133237862Y-113413083D01*
X133400615Y-113021131D01*
X133400985Y-112596731D01*
X133238916Y-112204496D01*
X132939083Y-111904138D01*
X132547131Y-111741385D01*
X132122731Y-111741015D01*
X131730496Y-111903084D01*
X131443800Y-112189279D01*
X131443800Y-107347858D01*
X131535035Y-107439253D01*
X131688868Y-107503130D01*
X136599284Y-112413546D01*
X136632132Y-112493044D01*
X136807035Y-112668253D01*
X137035674Y-112763192D01*
X137283240Y-112763408D01*
X137512044Y-112668868D01*
X137687253Y-112493965D01*
X137782192Y-112265326D01*
X137782408Y-112017760D01*
X137687868Y-111788956D01*
X137512965Y-111613747D01*
X137285598Y-111519336D01*
X132518702Y-106752440D01*
X137096392Y-106752440D01*
X137190932Y-106981244D01*
X137365835Y-107156453D01*
X137594474Y-107251392D01*
X137842040Y-107251608D01*
X138070844Y-107157068D01*
X138192525Y-107035600D01*
X140284200Y-107035600D01*
X140284200Y-111864009D01*
X140220808Y-112016674D01*
X140220592Y-112264240D01*
X140315132Y-112493044D01*
X140490035Y-112668253D01*
X140718674Y-112763192D01*
X140966240Y-112763408D01*
X141195044Y-112668868D01*
X141370253Y-112493965D01*
X141465192Y-112265326D01*
X141465408Y-112017760D01*
X141401800Y-111863817D01*
X141401800Y-102003991D01*
X141465192Y-101851326D01*
X141465408Y-101603760D01*
X141370868Y-101374956D01*
X141195965Y-101199747D01*
X140967326Y-101104808D01*
X140719760Y-101104592D01*
X140490956Y-101199132D01*
X140315747Y-101374035D01*
X140220808Y-101602674D01*
X140220592Y-101850240D01*
X140284200Y-102004183D01*
X140284200Y-106222800D01*
X138192407Y-106222800D01*
X138071765Y-106101947D01*
X137843126Y-106007008D01*
X137595560Y-106006792D01*
X137366756Y-106101332D01*
X137191547Y-106276235D01*
X137096608Y-106504874D01*
X137096392Y-106752440D01*
X132518702Y-106752440D01*
X132478994Y-106712732D01*
X132415868Y-106559956D01*
X132240965Y-106384747D01*
X132012326Y-106289808D01*
X131764760Y-106289592D01*
X131535956Y-106384132D01*
X131443800Y-106476127D01*
X131443800Y-100739240D01*
X131627592Y-100739240D01*
X131722132Y-100968044D01*
X131897035Y-101143253D01*
X132125674Y-101238192D01*
X132373240Y-101238408D01*
X132383877Y-101234013D01*
X132753141Y-101603277D01*
X132752992Y-101774040D01*
X132847532Y-102002844D01*
X133022435Y-102178053D01*
X133251074Y-102272992D01*
X133498640Y-102273208D01*
X133727444Y-102178668D01*
X133902653Y-102003765D01*
X133997592Y-101775126D01*
X133997808Y-101527560D01*
X133903268Y-101298756D01*
X133728365Y-101123547D01*
X133499726Y-101028608D01*
X133327794Y-101028458D01*
X132872338Y-100573002D01*
X132872408Y-100492760D01*
X132777868Y-100263956D01*
X132602965Y-100088747D01*
X132374326Y-99993808D01*
X132126760Y-99993592D01*
X131897956Y-100088132D01*
X131722747Y-100263035D01*
X131627808Y-100491674D01*
X131627592Y-100739240D01*
X131443800Y-100739240D01*
X131443800Y-99691240D01*
X132727592Y-99691240D01*
X132822132Y-99920044D01*
X132997035Y-100095253D01*
X133225674Y-100190192D01*
X133437869Y-100190377D01*
X133448477Y-100197465D01*
X133604000Y-100228400D01*
X136300864Y-100228400D01*
X135845523Y-100683741D01*
X135674760Y-100683592D01*
X135445956Y-100778132D01*
X135270747Y-100953035D01*
X135175808Y-101181674D01*
X135175592Y-101429240D01*
X135270132Y-101658044D01*
X135445035Y-101833253D01*
X135673674Y-101928192D01*
X135921240Y-101928408D01*
X136150044Y-101833868D01*
X136325253Y-101658965D01*
X136420192Y-101430326D01*
X136420342Y-101258394D01*
X137450336Y-100228400D01*
X138464393Y-100228400D01*
X138585035Y-100349253D01*
X138813674Y-100444192D01*
X139061240Y-100444408D01*
X139285585Y-100351710D01*
X139230208Y-100485074D01*
X139229992Y-100732640D01*
X139324532Y-100961444D01*
X139499435Y-101136653D01*
X139728074Y-101231592D01*
X139975640Y-101231808D01*
X140204444Y-101137268D01*
X140326125Y-101015800D01*
X141106464Y-101015800D01*
X141630400Y-101539736D01*
X141630400Y-105317393D01*
X141509547Y-105438035D01*
X141414608Y-105666674D01*
X141414392Y-105914240D01*
X141508932Y-106143044D01*
X141683835Y-106318253D01*
X141912474Y-106413192D01*
X142160040Y-106413408D01*
X142388844Y-106318868D01*
X142564053Y-106143965D01*
X142658992Y-105915326D01*
X142659208Y-105667760D01*
X142564668Y-105438956D01*
X142443200Y-105317275D01*
X142443200Y-101371400D01*
X142412265Y-101215877D01*
X142324168Y-101084032D01*
X141562168Y-100322032D01*
X141430323Y-100233935D01*
X141402496Y-100228400D01*
X141614464Y-100228400D01*
X142859760Y-101473696D01*
X142859760Y-106714393D01*
X142738907Y-106835035D01*
X142643968Y-107063674D01*
X142643752Y-107311240D01*
X142738292Y-107540044D01*
X142913195Y-107715253D01*
X143141834Y-107810192D01*
X143389400Y-107810408D01*
X143618204Y-107715868D01*
X143793413Y-107540965D01*
X143865600Y-107367119D01*
X143865600Y-115350393D01*
X143744747Y-115471035D01*
X143649808Y-115699674D01*
X143649592Y-115947240D01*
X143744132Y-116176044D01*
X143919035Y-116351253D01*
X144147674Y-116446192D01*
X144395240Y-116446408D01*
X144624044Y-116351868D01*
X144799253Y-116176965D01*
X144894192Y-115948326D01*
X144894408Y-115700760D01*
X144799868Y-115471956D01*
X144678400Y-115350275D01*
X144678400Y-107031840D01*
X145503792Y-107031840D01*
X145598332Y-107260644D01*
X145719800Y-107382325D01*
X145719800Y-108517749D01*
X145624347Y-108613035D01*
X145529408Y-108841674D01*
X145529192Y-109089240D01*
X145623732Y-109318044D01*
X145798635Y-109493253D01*
X146027274Y-109588192D01*
X146274840Y-109588408D01*
X146385600Y-109542643D01*
X146385600Y-112935905D01*
X146205956Y-113010132D01*
X146030747Y-113185035D01*
X145935808Y-113413674D01*
X145935592Y-113661240D01*
X146030132Y-113890044D01*
X146205035Y-114065253D01*
X146433674Y-114160192D01*
X146681240Y-114160408D01*
X146910044Y-114065868D01*
X147085253Y-113890965D01*
X147180192Y-113662326D01*
X147180408Y-113414760D01*
X147177681Y-113408161D01*
X147198400Y-113304000D01*
X147198400Y-97081607D01*
X147319253Y-96960965D01*
X147414192Y-96732326D01*
X147414408Y-96484760D01*
X147319868Y-96255956D01*
X147144965Y-96080747D01*
X146916326Y-95985808D01*
X146668760Y-95985592D01*
X146439956Y-96080132D01*
X146264747Y-96255035D01*
X146169808Y-96483674D01*
X146169592Y-96731240D01*
X146264132Y-96960044D01*
X146385600Y-97081725D01*
X146385600Y-106342496D01*
X146250526Y-106286408D01*
X146002960Y-106286192D01*
X145774156Y-106380732D01*
X145598947Y-106555635D01*
X145504008Y-106784274D01*
X145503792Y-107031840D01*
X144678400Y-107031840D01*
X144678400Y-105578336D01*
X144859477Y-105397259D01*
X145030240Y-105397408D01*
X145259044Y-105302868D01*
X145434253Y-105127965D01*
X145529192Y-104899326D01*
X145529408Y-104651760D01*
X145434868Y-104422956D01*
X145259965Y-104247747D01*
X145031326Y-104152808D01*
X144783760Y-104152592D01*
X144554956Y-104247132D01*
X144379747Y-104422035D01*
X144284808Y-104650674D01*
X144284658Y-104822606D01*
X143984632Y-105122632D01*
X143896535Y-105254477D01*
X143865600Y-105410000D01*
X143865600Y-107009173D01*
X143794028Y-106835956D01*
X143672560Y-106714275D01*
X143672560Y-101305360D01*
X143641625Y-101149837D01*
X143553528Y-101017992D01*
X142070168Y-99534632D01*
X141938323Y-99446535D01*
X141782800Y-99415600D01*
X139411607Y-99415600D01*
X139290965Y-99294747D01*
X139062326Y-99199808D01*
X138814760Y-99199592D01*
X138585956Y-99294132D01*
X138464275Y-99415600D01*
X133960359Y-99415600D01*
X133877868Y-99215956D01*
X133702965Y-99040747D01*
X133474326Y-98945808D01*
X133226760Y-98945592D01*
X132997956Y-99040132D01*
X132822747Y-99215035D01*
X132727808Y-99443674D01*
X132727592Y-99691240D01*
X131443800Y-99691240D01*
X131443800Y-98213837D01*
X131547035Y-98317253D01*
X131775674Y-98412192D01*
X132023240Y-98412408D01*
X132252044Y-98317868D01*
X132427253Y-98142965D01*
X132484167Y-98005900D01*
X136051393Y-98005900D01*
X136172035Y-98126753D01*
X136400674Y-98221692D01*
X136648240Y-98221908D01*
X136648501Y-98221800D01*
X140566009Y-98221800D01*
X140718674Y-98285192D01*
X140966240Y-98285408D01*
X141195044Y-98190868D01*
X141370253Y-98015965D01*
X141465192Y-97787326D01*
X141465408Y-97539760D01*
X141370868Y-97310956D01*
X141195965Y-97135747D01*
X140967326Y-97040808D01*
X140719760Y-97040592D01*
X140565817Y-97104200D01*
X136909862Y-97104200D01*
X136877965Y-97072247D01*
X136649326Y-96977308D01*
X136401760Y-96977092D01*
X136172956Y-97071632D01*
X136051275Y-97193100D01*
X132090500Y-97193100D01*
X132086941Y-97193808D01*
X132024326Y-97167808D01*
X131776760Y-97167592D01*
X131547956Y-97262132D01*
X131443800Y-97366106D01*
X131443800Y-89025800D01*
X132179651Y-89025800D01*
X132001187Y-89099540D01*
M02*
