M48
;DRILL file {KiCad 4.0.4-stable} date Tuesday, January 03, 2017 'PMt' 07:48:15 PM
;FORMAT={-:-/ absolute / inch / decimal}
FMAT,2
INCH,TZ
T1C0.015
T2C0.026
T3C0.031
%
G90
G05
M72
T1
X5.184Y-3.993
X5.1924Y-4.2091
X5.1929Y-3.85
X5.2Y-4.8375
X5.2067Y-3.9613
X5.2067Y-4.0557
X5.25Y-3.92
X5.2504Y-4.625
X5.2504Y-4.69
X5.251Y-4.002
X5.3464Y-3.9884
X5.35Y-3.672
X5.35Y-3.7296
X5.375Y-3.8425
X5.38Y-3.89
X5.4Y-3.52
X5.4Y-4.415
X5.422Y-4.198
X5.47Y-3.93
X5.4702Y-4.0554
X5.4705Y-4.82
X5.5Y-4.28
X5.5Y-4.7314
X5.506Y-3.961
X5.5295Y-4.82
X5.545Y-3.845
X5.545Y-4.005
X5.545Y-4.415
X5.57Y-4.5296
X5.592Y-4.165
X5.61Y-4.575
X5.61Y-4.765
X5.631Y-3.772
X5.6404Y-4.22
X5.68Y-4.56
X5.7Y-3.74
X5.705Y-4.125
X5.7096Y-4.6
X5.73Y-4.5296
X5.74Y-4.085
X5.753Y-4.209
X5.754Y-4.29
X5.77Y-4.47
X5.7792Y-3.8035
T2
X5.215Y-3.535
X5.215Y-3.585
X5.215Y-3.635
X5.215Y-3.685
X5.215Y-3.735
X5.265Y-3.535
X5.265Y-3.585
X5.265Y-3.635
X5.265Y-3.685
X5.265Y-3.735
T3
X5.21Y-4.4413
X5.21Y-4.52
X5.4613Y-4.95
X5.54Y-4.95
T0
M30
